<?xml version="1.0" encoding="UTF-8" standalone="no"?>
<!-- Created with Inkscape (http://www.inkscape.org/) -->

<svg
   width="44.957809mm"
   height="15.540233mm"
   viewBox="0 0 44.957808 15.540233"
   version="1.1"
   id="svg5"
   inkscape:version="1.2.2 (b0a8486541, 2022-12-01)"
   sodipodi:docname="application_topologies.svg"
   xml:space="preserve"
   inkscape:export-filename="application_topologies_4.png"
   inkscape:export-xdpi="600"
   inkscape:export-ydpi="600"
   xmlns:inkscape="http://www.inkscape.org/namespaces/inkscape"
   xmlns:sodipodi="http://sodipodi.sourceforge.net/DTD/sodipodi-0.dtd"
   xmlns="http://www.w3.org/2000/svg"
   xmlns:svg="http://www.w3.org/2000/svg"><sodipodi:namedview
     id="namedview7"
     pagecolor="#ffffff"
     bordercolor="#999999"
     borderopacity="1"
     inkscape:showpageshadow="0"
     inkscape:pageopacity="0"
     inkscape:pagecheckerboard="0"
     inkscape:deskcolor="#d1d1d1"
     inkscape:document-units="mm"
     showgrid="false"
     inkscape:zoom="2"
     inkscape:cx="-283.75"
     inkscape:cy="20"
     inkscape:window-width="3840"
     inkscape:window-height="2076"
     inkscape:window-x="0"
     inkscape:window-y="0"
     inkscape:window-maximized="1"
     inkscape:current-layer="layer1" /><defs
     id="defs2"><marker
       style="overflow:visible"
       id="TriangleStart-1"
       refX="0"
       refY="0"
       orient="auto-start-reverse"
       inkscape:stockid="TriangleStart"
       markerWidth="5.3244081"
       markerHeight="6.155385"
       viewBox="0 0 5.3244081 6.1553851"
       inkscape:isstock="true"
       inkscape:collect="always"
       preserveAspectRatio="xMidYMid"><path
         transform="scale(0.5)"
         style="fill:context-stroke;fill-rule:evenodd;stroke:context-stroke;stroke-width:1pt"
         d="M 5.77,0 -2.88,5 V -5 Z"
         id="path135-59" /></marker><marker
       style="overflow:visible"
       id="TriangleStart-7-7"
       refX="0"
       refY="0"
       orient="auto-start-reverse"
       inkscape:stockid="TriangleStart"
       markerWidth="5.3244081"
       markerHeight="6.155385"
       viewBox="0 0 5.3244081 6.1553851"
       inkscape:isstock="true"
       inkscape:collect="always"
       preserveAspectRatio="xMidYMid"><path
         transform="scale(0.5)"
         style="fill:context-stroke;fill-rule:evenodd;stroke:context-stroke;stroke-width:1pt"
         d="M 5.77,0 -2.88,5 V -5 Z"
         id="path135-6-7" /></marker></defs><g
     inkscape:label="Layer 1"
     inkscape:groupmode="layer"
     id="layer1"
     transform="translate(-73.389214,-55.761275)"><path
       id="rect234-7-7-4-1-7-7-4-3-5-6"
       style="fill:#37595f;stroke-width:0.339816"
       d="m 74.553398,55.761276 h 11.186153 c 0.644958,0 1.164184,0.519227 1.164184,1.164185 v 13.211861 c 0,0.644958 -0.519226,1.164184 -1.164184,1.164184 H 74.553398 c -0.644958,0 -1.164184,-0.519226 -1.164184,-1.164184 V 56.925461 c 0,-0.644958 0.519226,-1.164185 1.164184,-1.164185 z" /><path
       id="rect234-7-7-4-1-7-7-4-3-7-0-7"
       style="fill:#ffffff;stroke-width:0.145552"
       d="m 74.77723,58.836739 h 9.054571 c 0.43548,0 0.786066,0.350585 0.786066,0.786065 v 2.053716 c 0,0.43548 -0.350586,0.786065 -0.786066,0.786065 H 74.77723 c -0.43548,0 -0.786065,-0.350585 -0.786065,-0.786065 v -2.053716 c 0,-0.43548 0.350585,-0.786065 0.786065,-0.786065 z" /><path
       id="rect234-7-7-4-1-7-7-4-3-7-0-8-3"
       style="fill:#ffffff;stroke-width:0.145552"
       d="m 74.77723,62.855679 h 9.054571 c 0.43548,0 0.786066,0.350585 0.786066,0.786065 v 2.053716 c 0,0.43548 -0.350586,0.786065 -0.786066,0.786065 H 74.77723 c -0.43548,0 -0.786065,-0.350585 -0.786065,-0.786065 v -2.053716 c 0,-0.43548 0.350585,-0.786065 0.786065,-0.786065 z" /><g
       aria-label="Manifest"
       id="text1066-6-3-5-6-1-9-65"
       style="font-size:2.01728px;fill:#666666;stroke-width:0.686268"><path
         d="m 75.932628,61.411198 -0.47406,-1.262818 h -0.0081 q 0.0061,0.06254 0.01009,0.169452 0.004,0.104898 0.004,0.219883 v 0.873483 H 75.297185 V 59.97086 h 0.268299 l 0.443801,1.180109 h 0.0081 l 0.451871,-1.180109 h 0.266281 v 1.440338 h -0.179538 v -0.885586 q 0,-0.104899 0.004,-0.20778 0.0061,-0.102881 0.01009,-0.167434 h -0.0081 l -0.480113,1.2608 z"
         id="path7361" /><path
         d="m 77.512158,60.31178 q 0.197693,0 0.292506,0.08674 0.09481,0.08674 0.09481,0.276367 v 0.736308 H 77.77037 l -0.03429,-0.153314 h -0.0081 q -0.07061,0.08876 -0.149279,0.131124 -0.07666,0.04236 -0.213831,0.04236 -0.147262,0 -0.244091,-0.07666 -0.09683,-0.07867 -0.09683,-0.244091 0,-0.161382 0.127089,-0.248126 0.127088,-0.08876 0.391352,-0.09683 l 0.183573,-0.0061 v -0.06455 q 0,-0.135158 -0.0585,-0.187607 -0.0585,-0.05245 -0.165417,-0.05245 -0.08473,0 -0.161383,0.02622 -0.07666,0.02421 -0.143227,0.05648 l -0.05447,-0.13314 q 0.07061,-0.03833 0.167434,-0.06455 0.09683,-0.02824 0.201728,-0.02824 z m 0.05245,0.576942 q -0.201728,0.0081 -0.280402,0.06455 -0.07666,0.05648 -0.07666,0.159365 0,0.09078 0.05447,0.133141 0.05648,0.04236 0.143227,0.04236 0.137175,0 0.227953,-0.07464 0.09078,-0.07666 0.09078,-0.234004 v -0.09683 z"
         id="path7363" /><path
         d="m 78.754804,60.309763 q 0.193659,0 0.292506,0.09481 0.09885,0.09279 0.09885,0.302592 v 0.704031 h -0.175504 v -0.691927 q 0,-0.26023 -0.242073,-0.26023 -0.179538,0 -0.248126,0.100864 -0.06859,0.100864 -0.06859,0.290489 v 0.560804 h -0.177521 v -1.081262 h 0.143227 l 0.02622,0.147261 h 0.01009 q 0.05245,-0.08473 0.145244,-0.125071 0.09279,-0.04236 0.195676,-0.04236 z"
         id="path7365" /><path
         d="m 79.571802,59.924462 q 0.04035,0 0.07061,0.02824 0.03228,0.02623 0.03228,0.08473 0,0.05648 -0.03228,0.08473 -0.03026,0.02824 -0.07061,0.02824 -0.04438,0 -0.07464,-0.02824 -0.03026,-0.02824 -0.03026,-0.08473 0,-0.0585 0.03026,-0.08473 0.03026,-0.02824 0.07464,-0.02824 z m 0.08674,0.405474 v 1.081262 h -0.17752 v -1.081262 z"
         id="path7367" /><path
         d="m 80.49975,60.467111 h -0.272333 v 0.944087 h -0.17752 v -0.944087 h -0.189625 v -0.08271 l 0.189625,-0.06052 v -0.06254 q 0,-0.209797 0.09279,-0.300575 0.0928,-0.0928 0.258212,-0.0928 0.06455,0 0.117002,0.0121 0.05447,0.01009 0.0928,0.02421 l -0.0464,0.139193 q -0.03228,-0.01009 -0.07464,-0.02017 -0.04236,-0.01009 -0.08674,-0.01009 -0.08876,0 -0.133141,0.06052 -0.04236,0.0585 -0.04236,0.18559 v 0.0706 h 0.272333 z"
         id="path7369" /><path
         d="m 81.113003,60.309763 q 0.139192,0 0.238039,0.06052 0.100864,0.06052 0.153313,0.171469 0.05447,0.108933 0.05447,0.256195 V 60.90486 H 80.81848 q 0.004,0.183573 0.0928,0.280402 0.09078,0.09481 0.25216,0.09481 0.102881,0 0.181555,-0.01816 0.08069,-0.02017 0.165417,-0.05648 v 0.155331 q -0.08271,0.03631 -0.163399,0.05245 -0.08069,0.01816 -0.191642,0.01816 -0.153313,0 -0.272333,-0.06254 -0.117002,-0.06254 -0.183572,-0.18559 -0.06455,-0.125071 -0.06455,-0.304609 0,-0.177521 0.0585,-0.30461 0.06052,-0.127088 0.167434,-0.195676 0.108933,-0.06859 0.25216,-0.06859 z m -0.002,0.145244 q -0.127089,0 -0.201728,0.08271 -0.07262,0.08069 -0.08674,0.225936 h 0.550717 q -0.002,-0.137175 -0.06455,-0.221901 -0.06253,-0.08674 -0.197693,-0.08674 z"
         id="path7371" /><path
         d="m 82.537201,61.11264 q 0,0.157348 -0.117002,0.238039 -0.117002,0.08069 -0.314696,0.08069 -0.112967,0 -0.195676,-0.01816 -0.08069,-0.01816 -0.143227,-0.05043 v -0.161382 q 0.06455,0.03228 0.155331,0.06052 0.09279,0.02623 0.187607,0.02623 0.135158,0 0.195676,-0.04236 0.06052,-0.04438 0.06052,-0.117003 0,-0.04034 -0.02219,-0.07262 -0.02219,-0.03228 -0.08069,-0.06455 -0.05648,-0.03228 -0.1634,-0.07262 -0.104898,-0.04035 -0.179537,-0.08069 -0.07464,-0.04035 -0.114985,-0.09683 -0.04035,-0.05648 -0.04035,-0.145244 0,-0.137176 0.11095,-0.211815 0.112968,-0.07464 0.294523,-0.07464 0.09885,0 0.183573,0.02017 0.08674,0.01816 0.161382,0.05245 l -0.06052,0.141209 q -0.06859,-0.02824 -0.143227,-0.04841 -0.07464,-0.02017 -0.153313,-0.02017 -0.108934,0 -0.167435,0.03631 -0.05648,0.03429 -0.05648,0.09481 0,0.04438 0.02622,0.07666 0.02623,0.03026 0.08674,0.06052 0.06254,0.02824 0.165417,0.06859 0.102881,0.03833 0.175504,0.07867 0.07262,0.04035 0.11095,0.09885 0.03833,0.05648 0.03833,0.143227 z"
         id="path7373" /><path
         d="m 83.160541,61.286126 q 0.04035,0 0.08271,-0.0061 0.04236,-0.0081 0.06859,-0.01614 v 0.135158 q -0.02824,0.01412 -0.08069,0.02219 -0.05245,0.01009 -0.100864,0.01009 -0.08473,0 -0.157348,-0.02824 -0.07061,-0.03026 -0.114985,-0.102882 -0.04438,-0.07262 -0.04438,-0.203745 v -0.629391 h -0.153313 v -0.08473 l 0.15533,-0.07061 0.07061,-0.22997 H 82.9911 v 0.248126 h 0.312678 v 0.137175 H 82.99109 v 0.625356 q 0,0.09885 0.0464,0.147262 0.04842,0.0464 0.123054,0.0464 z"
         id="path7375" /></g><g
       aria-label="Board a)"
       id="text1066-6-3-5-6-1-9-6-3"
       style="font-size:2.01728px;fill:#666666;stroke-width:0.686268"><path
         d="m 75.893731,63.889183 q 0.270315,0 0.40749,0.08069 0.139193,0.07867 0.139193,0.276368 0,0.127088 -0.07061,0.211814 -0.07061,0.08271 -0.203745,0.106916 v 0.01009 q 0.09078,0.01412 0.163399,0.05245 0.07464,0.03833 0.117003,0.108933 0.04236,0.07061 0.04236,0.183572 0,0.195676 -0.135157,0.302592 -0.133141,0.106916 -0.365128,0.106916 h -0.506337 v -1.440338 z m 0.03631,0.613253 q 0.18559,0 0.254177,-0.0585 0.06859,-0.06052 0.06859,-0.17752 0,-0.11902 -0.08473,-0.169452 -0.08271,-0.05245 -0.266281,-0.05245 h -0.238039 v 0.457922 z m -0.266281,0.151296 v 0.522476 h 0.290488 q 0.191642,0 0.266281,-0.07464 0.07464,-0.07464 0.07464,-0.195677 0,-0.112967 -0.07867,-0.181555 -0.07666,-0.07061 -0.276368,-0.07061 z"
         id="path7378" /><path
         d="m 77.709282,64.786873 q 0,0.268298 -0.137175,0.41556 -0.135158,0.147261 -0.367145,0.147261 -0.143227,0 -0.256194,-0.06455 -0.110951,-0.06657 -0.175504,-0.191642 -0.06455,-0.127088 -0.06455,-0.306626 0,-0.268298 0.135158,-0.413543 0.135158,-0.145244 0.367145,-0.145244 0.147261,0 0.258212,0.06657 0.112967,0.06455 0.175503,0.189625 0.06455,0.123054 0.06455,0.302592 z m -0.816998,0 q 0,0.191641 0.07464,0.304609 0.07666,0.110951 0.242074,0.110951 0.163399,0 0.240056,-0.110951 0.07666,-0.112968 0.07666,-0.304609 0,-0.191642 -0.07666,-0.300575 -0.07666,-0.108933 -0.242074,-0.108933 -0.165417,0 -0.240056,0.108933 -0.07464,0.108933 -0.07464,0.300575 z"
         id="path7380" /><path
         d="m 78.399191,64.230104 q 0.197694,0 0.292506,0.08674 0.09481,0.08674 0.09481,0.276367 v 0.736307 h -0.129106 l -0.03429,-0.153313 h -0.0081 q -0.07061,0.08876 -0.149279,0.131123 -0.07666,0.04236 -0.213831,0.04236 -0.147262,0 -0.244091,-0.07666 -0.09683,-0.07867 -0.09683,-0.244091 0,-0.161382 0.127089,-0.248125 0.127089,-0.08876 0.391352,-0.09683 l 0.183573,-0.0061 v -0.06455 q 0,-0.135158 -0.0585,-0.187607 -0.0585,-0.05245 -0.165417,-0.05245 -0.08473,0 -0.161383,0.02623 -0.07666,0.02421 -0.143227,0.05648 l -0.05447,-0.133141 q 0.07061,-0.03833 0.167434,-0.06455 0.09683,-0.02824 0.201728,-0.02824 z m 0.05245,0.576942 q -0.201728,0.0081 -0.280402,0.06455 -0.07666,0.05648 -0.07666,0.159365 0,0.09078 0.05447,0.13314 0.05648,0.04236 0.143227,0.04236 0.137175,0 0.227953,-0.07464 0.09078,-0.07666 0.09078,-0.234005 v -0.09683 z"
         id="path7382" /><path
         d="m 79.625699,64.228086 q 0.03026,0 0.06455,0.004 0.03631,0.002 0.06254,0.0081 l -0.02219,0.1634 q -0.02622,-0.0061 -0.0585,-0.01009 -0.03026,-0.004 -0.0585,-0.004 -0.08271,0 -0.15533,0.0464 -0.07262,0.04438 -0.117002,0.127089 -0.04236,0.08069 -0.04236,0.189624 v 0.576942 h -0.177521 v -1.081262 h 0.145244 l 0.02017,0.197693 h 0.0081 q 0.05245,-0.08876 0.135158,-0.153313 0.08271,-0.06455 0.195676,-0.06455 z"
         id="path7384" /><path
         d="m 80.297453,65.349694 q -0.201728,0 -0.322765,-0.139192 -0.121037,-0.14121 -0.121037,-0.419595 0,-0.278384 0.121037,-0.419594 0.123054,-0.143227 0.324782,-0.143227 0.125071,0 0.203745,0.0464 0.08069,0.0464 0.131123,0.112967 h 0.0121 q -0.002,-0.02622 -0.0081,-0.07666 -0.004,-0.05245 -0.004,-0.08271 v -0.431698 h 0.177521 v 1.533133 h -0.143227 l -0.02622,-0.145244 h -0.0081 q -0.04841,0.06859 -0.129106,0.117002 -0.08069,0.04842 -0.207779,0.04842 z m 0.02824,-0.147261 q 0.171468,0 0.240056,-0.09279 0.07061,-0.09481 0.07061,-0.284437 v -0.03228 q 0,-0.201728 -0.06657,-0.308644 -0.06657,-0.108933 -0.246108,-0.108933 -0.143227,0 -0.215849,0.114985 -0.07061,0.112967 -0.07061,0.304609 0,0.193659 0.07061,0.300575 0.07262,0.106916 0.217867,0.106916 z"
         id="path7386" /><path
         d="m 82.088797,64.230104 q 0.197694,0 0.292506,0.08674 0.09481,0.08674 0.09481,0.276367 v 0.736307 h -0.129106 l -0.03429,-0.153313 h -0.0081 q -0.07061,0.08876 -0.149278,0.131123 -0.07666,0.04236 -0.213832,0.04236 -0.147262,0 -0.244091,-0.07666 -0.09683,-0.07867 -0.09683,-0.244091 0,-0.161382 0.127089,-0.248125 0.127089,-0.08876 0.391352,-0.09683 l 0.183573,-0.0061 v -0.06455 q 0,-0.135158 -0.0585,-0.187607 -0.0585,-0.05245 -0.165417,-0.05245 -0.08473,0 -0.161383,0.02623 -0.07666,0.02421 -0.143226,0.05648 l -0.05447,-0.133141 q 0.07061,-0.03833 0.167434,-0.06455 0.09683,-0.02824 0.201728,-0.02824 z m 0.05245,0.576942 q -0.201728,0.0081 -0.280402,0.06455 -0.07666,0.05648 -0.07666,0.159365 0,0.09078 0.05447,0.13314 0.05648,0.04236 0.143226,0.04236 0.137175,0 0.227953,-0.07464 0.09078,-0.07666 0.09078,-0.234005 v -0.09683 z"
         id="path7388" /><path
         d="m 83.164009,64.776786 q 0,0.244091 -0.07262,0.470027 -0.07061,0.223918 -0.223918,0.401438 h -0.165417 q 0.139192,-0.189624 0.209797,-0.413542 0.07262,-0.225935 0.07262,-0.45994 0,-0.240056 -0.07262,-0.468009 -0.07061,-0.227952 -0.211814,-0.417577 h 0.167434 q 0.153313,0.183573 0.223918,0.413543 0.07262,0.227952 0.07262,0.47406 z"
         id="path7390" /></g><path
       id="rect234-7-7-4-1-7-7-4-3-7-0-8-3-7"
       style="fill:#ffffff;stroke-width:0.145552"
       d="m 74.801133,66.920975 h 9.054571 c 0.43548,0 0.786065,0.350585 0.786065,0.786065 v 2.053716 c 0,0.43548 -0.350585,0.786065 -0.786065,0.786065 h -9.054571 c -0.43548,0 -0.786065,-0.350585 -0.786065,-0.786065 V 67.70704 c 0,-0.43548 0.350585,-0.786065 0.786065,-0.786065 z" /><g
       aria-label="Board b)"
       id="text1066-6-3-5-6-1-9-6-3-4"
       style="font-size:2.01728px;fill:#666666;stroke-width:0.686268"><path
         d="m 75.844567,67.900749 q 0.270316,0 0.407491,0.08069 0.139192,0.07867 0.139192,0.276367 0,0.127089 -0.07061,0.211814 -0.07061,0.08271 -0.203745,0.106916 v 0.01009 q 0.09078,0.01412 0.1634,0.05245 0.07464,0.03833 0.117002,0.108933 0.04236,0.07061 0.04236,0.183572 0,0.195677 -0.135158,0.302592 -0.133141,0.106916 -0.365128,0.106916 h -0.506337 v -1.440338 z m 0.03631,0.613253 q 0.18559,0 0.254177,-0.0585 0.06859,-0.06052 0.06859,-0.17752 0,-0.11902 -0.08473,-0.169452 -0.08271,-0.05245 -0.266281,-0.05245 h -0.238039 v 0.457922 z m -0.266281,0.151297 v 0.522475 h 0.290488 q 0.191642,0 0.266281,-0.07464 0.07464,-0.07464 0.07464,-0.195676 0,-0.112968 -0.07867,-0.181556 -0.07666,-0.0706 -0.276368,-0.0706 z"
         id="path7394" /><path
         d="m 77.660118,68.798439 q 0,0.268298 -0.137175,0.41556 -0.135157,0.147261 -0.367145,0.147261 -0.143227,0 -0.256194,-0.06455 -0.110951,-0.06657 -0.175504,-0.191641 -0.06455,-0.127089 -0.06455,-0.306627 0,-0.268298 0.135158,-0.413542 0.135158,-0.145245 0.367145,-0.145245 0.147262,0 0.258212,0.06657 0.112968,0.06455 0.175503,0.189624 0.06455,0.123054 0.06455,0.302592 z m -0.816998,0 q 0,0.191642 0.07464,0.304609 0.07666,0.110951 0.242074,0.110951 0.1634,0 0.240056,-0.110951 0.07666,-0.112967 0.07666,-0.304609 0,-0.191642 -0.07666,-0.300575 -0.07666,-0.108933 -0.242073,-0.108933 -0.165417,0 -0.240057,0.108933 -0.07464,0.108933 -0.07464,0.300575 z"
         id="path7396" /><path
         d="m 78.350027,68.24167 q 0.197694,0 0.292506,0.08674 0.09481,0.08674 0.09481,0.276367 v 0.736307 h -0.129106 l -0.03429,-0.153313 h -0.0081 q -0.07061,0.08876 -0.149278,0.131123 -0.07666,0.04236 -0.213832,0.04236 -0.147262,0 -0.244091,-0.07666 -0.09683,-0.07867 -0.09683,-0.24409 0,-0.161383 0.127089,-0.248126 0.127089,-0.08876 0.391352,-0.09683 l 0.183573,-0.0061 v -0.06455 q 0,-0.135158 -0.0585,-0.187607 -0.0585,-0.05245 -0.165417,-0.05245 -0.08473,0 -0.161383,0.02622 -0.07666,0.02421 -0.143226,0.05648 l -0.05447,-0.13314 q 0.07061,-0.03833 0.167434,-0.06455 0.09683,-0.02824 0.201728,-0.02824 z m 0.05245,0.576942 q -0.201728,0.0081 -0.280402,0.06455 -0.07666,0.05648 -0.07666,0.159365 0,0.09078 0.05447,0.13314 0.05648,0.04236 0.143226,0.04236 0.137175,0 0.227953,-0.07464 0.09078,-0.07666 0.09078,-0.234005 v -0.09683 z"
         id="path7398" /><path
         d="m 79.576535,68.239652 q 0.03026,0 0.06455,0.004 0.03631,0.002 0.06254,0.0081 l -0.02219,0.1634 q -0.02622,-0.0061 -0.0585,-0.01009 -0.03026,-0.004 -0.0585,-0.004 -0.08271,0 -0.15533,0.0464 -0.07262,0.04438 -0.117002,0.127089 -0.04236,0.08069 -0.04236,0.189624 v 0.576942 h -0.177521 v -1.081262 h 0.145244 l 0.02017,0.197694 h 0.0081 q 0.05245,-0.08876 0.135158,-0.153314 0.08271,-0.06455 0.195676,-0.06455 z"
         id="path7400" /><path
         d="m 80.248289,69.36126 q -0.201728,0 -0.322765,-0.139192 -0.121037,-0.14121 -0.121037,-0.419594 0,-0.278385 0.121037,-0.419595 0.123054,-0.143227 0.324782,-0.143227 0.125071,0 0.203745,0.0464 0.08069,0.0464 0.131124,0.112968 h 0.0121 q -0.002,-0.02622 -0.0081,-0.07666 -0.004,-0.05245 -0.004,-0.08271 v -0.431698 h 0.17752 v 1.533133 h -0.143227 l -0.02622,-0.145244 h -0.0081 q -0.04842,0.06859 -0.129106,0.117002 -0.08069,0.04842 -0.20778,0.04842 z m 0.02824,-0.147261 q 0.171469,0 0.240056,-0.09279 0.07061,-0.09481 0.07061,-0.284437 v -0.03228 q 0,-0.201728 -0.06657,-0.308644 -0.06657,-0.108933 -0.246109,-0.108933 -0.143226,0 -0.215849,0.114985 -0.0706,0.112968 -0.0706,0.304609 0,0.193659 0.0706,0.300575 0.07262,0.106916 0.217867,0.106916 z"
         id="path7402" /><path
         d="m 81.807646,68.181151 q 0,0.06859 -0.004,0.129106 -0.002,0.0585 -0.0061,0.0928 h 0.01009 q 0.0464,-0.06859 0.127089,-0.114985 0.08069,-0.0464 0.20778,-0.0464 0.201728,0 0.322765,0.141209 0.123054,0.139193 0.123054,0.417577 0,0.278385 -0.123054,0.419595 -0.123055,0.141209 -0.322765,0.141209 -0.127089,0 -0.20778,-0.0464 -0.08069,-0.0464 -0.127089,-0.110951 h -0.01412 l -0.03631,0.137175 h -0.127088 v -1.533133 h 0.17752 z m 0.30461,0.20778 q -0.171469,0 -0.23804,0.09885 -0.06657,0.09885 -0.06657,0.306626 v 0.0081 q 0,0.19971 0.06455,0.306626 0.06657,0.104899 0.244091,0.104899 0.145244,0 0.215849,-0.106916 0.07262,-0.106916 0.07262,-0.308644 0,-0.409508 -0.292505,-0.409508 z"
         id="path7404" /><path
         d="m 83.223776,68.788353 q 0,0.24409 -0.07262,0.470026 -0.0706,0.223918 -0.223918,0.401439 h -0.165417 q 0.139193,-0.189625 0.209797,-0.413543 0.07262,-0.225935 0.07262,-0.45994 0,-0.240056 -0.07262,-0.468009 -0.0706,-0.227952 -0.211814,-0.417577 h 0.167434 q 0.153314,0.183573 0.223918,0.413543 0.07262,0.227952 0.07262,0.474061 z"
         id="path7406" /></g><g
       aria-label="Application"
       id="text1066-6-3-5-6-3-4"
       style="font-size:2.01728px;stroke-width:0.686268"><path
         d="m 76.014075,57.648312 -0.173486,-0.445819 h -0.57089 l -0.171469,0.445819 h -0.183572 l 0.562821,-1.44639 h 0.163399 l 0.560804,1.44639 z M 75.62474,56.605378 q -0.0061,-0.01614 -0.02017,-0.0585 -0.01412,-0.04236 -0.02824,-0.08674 -0.0121,-0.0464 -0.02017,-0.0706 -0.01412,0.06254 -0.03228,0.123054 -0.01816,0.0585 -0.03026,0.0928 l -0.1634,0.435732 h 0.455906 z"
         style="fill:#ffffff"
         id="path7409" /><path
         d="m 76.889575,56.546877 q 0.19971,0 0.320747,0.139192 0.123054,0.139192 0.123054,0.419594 0,0.276368 -0.123054,0.419595 -0.121037,0.143226 -0.322765,0.143226 -0.125071,0 -0.207779,-0.0464 -0.08069,-0.04841 -0.127089,-0.11095 h -0.0121 q 0.004,0.03429 0.0081,0.08674 0.004,0.05245 0.004,0.09078 v 0.443802 h -0.177521 v -1.56541 h 0.145244 l 0.02421,0.147262 h 0.0081 q 0.04842,-0.07061 0.127089,-0.11902 0.07867,-0.04841 0.209797,-0.04841 z m -0.03228,0.149278 q -0.165417,0 -0.234004,0.0928 -0.06657,0.0928 -0.07061,0.28242 v 0.03429 q 0,0.199711 0.06455,0.308644 0.06657,0.106916 0.244091,0.106916 0.09885,0 0.161382,-0.05447 0.06455,-0.05447 0.09481,-0.147261 0.03228,-0.09481 0.03228,-0.215849 0,-0.18559 -0.07262,-0.29654 -0.07061,-0.110951 -0.219884,-0.110951 z"
         style="fill:#ffffff"
         id="path7411" /><path
         d="m 78.130202,56.546877 q 0.19971,0 0.320747,0.139192 0.123054,0.139192 0.123054,0.419594 0,0.276368 -0.123054,0.419595 -0.121037,0.143226 -0.322765,0.143226 -0.125071,0 -0.207779,-0.0464 -0.08069,-0.04841 -0.127089,-0.11095 h -0.0121 q 0.004,0.03429 0.0081,0.08674 0.004,0.05245 0.004,0.09078 v 0.443802 h -0.177521 v -1.56541 h 0.145244 l 0.02421,0.147262 h 0.0081 q 0.04841,-0.07061 0.127089,-0.11902 0.07867,-0.04841 0.209797,-0.04841 z m -0.03228,0.149278 q -0.165417,0 -0.234004,0.0928 -0.06657,0.0928 -0.07061,0.28242 v 0.03429 q 0,0.199711 0.06455,0.308644 0.06657,0.106916 0.244091,0.106916 0.09885,0 0.161382,-0.05447 0.06455,-0.05447 0.09481,-0.147261 0.03228,-0.09481 0.03228,-0.215849 0,-0.18559 -0.07262,-0.29654 -0.07061,-0.110951 -0.219884,-0.110951 z"
         style="fill:#ffffff"
         id="path7413" /><path
         d="m 79.033943,57.648312 h -0.177521 v -1.533133 h 0.177521 z"
         style="fill:#ffffff"
         id="path7415" /><path
         d="m 79.467656,56.161576 q 0.04035,0 0.07061,0.02824 0.03228,0.02622 0.03228,0.08473 0,0.05648 -0.03228,0.08473 -0.03026,0.02824 -0.07061,0.02824 -0.04438,0 -0.07464,-0.02824 -0.03026,-0.02824 -0.03026,-0.08473 0,-0.0585 0.03026,-0.08473 0.03026,-0.02824 0.07464,-0.02824 z m 0.08674,0.405473 v 1.081263 h -0.17752 v -1.081263 z"
         style="fill:#ffffff"
         id="path7417" /><path
         d="m 80.331051,57.668484 q -0.143227,0 -0.256194,-0.0585 -0.110951,-0.0585 -0.175504,-0.181555 -0.06254,-0.123054 -0.06254,-0.314696 0,-0.19971 0.06657,-0.324782 0.06657,-0.125071 0.179538,-0.183572 0.114985,-0.0585 0.260229,-0.0585 0.08271,0 0.159365,0.01816 0.07666,0.01614 0.125071,0.04035 l -0.05447,0.147261 q -0.04842,-0.01816 -0.112968,-0.03429 -0.06455,-0.01614 -0.121037,-0.01614 -0.31873,0 -0.31873,0.409508 0,0.195676 0.07666,0.300575 0.07867,0.102881 0.231987,0.102881 0.08876,0 0.155331,-0.01816 0.06859,-0.01816 0.125071,-0.04438 v 0.157348 q -0.05447,0.02824 -0.121037,0.04236 -0.06455,0.01614 -0.157348,0.01614 z"
         style="fill:#ffffff"
         id="path7419" /><path
         d="m 81.275138,56.548894 q 0.197693,0 0.292505,0.08674 0.09481,0.08674 0.09481,0.276367 v 0.736308 h -0.129106 l -0.03429,-0.153314 h -0.0081 q -0.07061,0.08876 -0.149279,0.131124 -0.07666,0.04236 -0.213832,0.04236 -0.147261,0 -0.244091,-0.07666 -0.09683,-0.07867 -0.09683,-0.244091 0,-0.161383 0.127088,-0.248126 0.127089,-0.08876 0.391353,-0.09683 l 0.183572,-0.0061 v -0.06455 q 0,-0.135158 -0.0585,-0.187607 -0.0585,-0.05245 -0.165417,-0.05245 -0.08473,0 -0.161382,0.02622 -0.07666,0.02421 -0.143227,0.05648 l -0.05447,-0.13314 q 0.07061,-0.03833 0.167435,-0.06455 0.09683,-0.02824 0.201728,-0.02824 z m 0.05245,0.576942 q -0.201728,0.0081 -0.280402,0.06455 -0.07666,0.05648 -0.07666,0.159365 0,0.09078 0.05447,0.133141 0.05648,0.04236 0.143227,0.04236 0.137175,0 0.227952,-0.07464 0.09078,-0.07666 0.09078,-0.234004 v -0.09683 z"
         style="fill:#ffffff"
         id="path7421" /><path
         d="m 82.358419,57.52324 q 0.04035,0 0.08271,-0.0061 0.04236,-0.0081 0.06859,-0.01614 v 0.135158 q -0.02824,0.01412 -0.08069,0.02219 -0.05245,0.01009 -0.100864,0.01009 -0.08473,0 -0.157347,-0.02824 -0.07061,-0.03026 -0.114985,-0.102881 -0.04438,-0.07262 -0.04438,-0.203745 V 56.704181 H 81.85814 v -0.08473 l 0.155331,-0.07061 0.07061,-0.22997 h 0.104898 v 0.248125 h 0.312679 v 0.137176 h -0.312679 v 0.625356 q 0,0.09885 0.0464,0.147262 0.04841,0.0464 0.123054,0.0464 z"
         style="fill:#ffffff"
         id="path7423" /><path
         d="m 82.816341,56.161576 q 0.04035,0 0.07061,0.02824 0.03228,0.02622 0.03228,0.08473 0,0.05648 -0.03228,0.08473 -0.03026,0.02824 -0.07061,0.02824 -0.04438,0 -0.07464,-0.02824 -0.03026,-0.02824 -0.03026,-0.08473 0,-0.0585 0.03026,-0.08473 0.03026,-0.02824 0.07464,-0.02824 z m 0.08674,0.405473 v 1.081263 h -0.17752 v -1.081263 z"
         style="fill:#ffffff"
         id="path7425" /><path
         d="m 84.186073,57.105663 q 0,0.268299 -0.137175,0.41556 -0.135158,0.147261 -0.367145,0.147261 -0.143227,0 -0.256195,-0.06455 -0.11095,-0.06657 -0.175503,-0.191641 -0.06455,-0.127089 -0.06455,-0.306627 0,-0.268298 0.135158,-0.413542 0.135158,-0.145244 0.367145,-0.145244 0.147261,0 0.258212,0.06657 0.112967,0.06455 0.175503,0.189624 0.06455,0.123054 0.06455,0.302592 z m -0.816999,0 q 0,0.191642 0.07464,0.30461 0.07666,0.11095 0.242073,0.11095 0.1634,0 0.240057,-0.11095 0.07666,-0.112968 0.07666,-0.30461 0,-0.191641 -0.07666,-0.300574 -0.07666,-0.108934 -0.242074,-0.108934 -0.165417,0 -0.240056,0.108934 -0.07464,0.108933 -0.07464,0.300574 z"
         style="fill:#ffffff"
         id="path7427" /><path
         d="m 84.986933,56.546877 q 0.193659,0 0.292505,0.09481 0.09885,0.0928 0.09885,0.302592 v 0.704031 h -0.175503 v -0.691927 q 0,-0.26023 -0.242074,-0.26023 -0.179538,0 -0.248125,0.100864 -0.06859,0.100864 -0.06859,0.290489 v 0.560804 h -0.17752 v -1.081263 h 0.143226 l 0.02622,0.147262 h 0.01009 q 0.05245,-0.08473 0.145244,-0.125071 0.09279,-0.04236 0.195676,-0.04236 z"
         style="fill:#ffffff"
         id="path7429" /></g><g
       inkscape:label="Ebene 1"
       id="layer1-6-1"
       transform="matrix(0.07400706,0,0,0.07354743,82.551557,50.990395)"
       style="fill:#ffffff;stroke:#808080;stroke-opacity:1"><path
         id="rect2396-2"
         style="fill-rule:evenodd;stroke-width:0.986368px"
         d="m 23.037609,113.39812 h 33.01363 v 37.01363 h -33.01363 z" /><path
         id="rect3170-93"
         style="fill-opacity:0.941176;fill-rule:evenodd;stroke-width:1px"
         inkscape:transform-center-x="0.99999999"
         inkscape:transform-center-y="-0.99999906"
         d="m 25.622131,117.89887 h 2 v 2 h -2 z" /><path
         id="rect3172-9"
         style="fill-opacity:0.941176;fill-rule:evenodd;stroke-width:1px"
         inkscape:transform-center-x="0.99999999"
         inkscape:transform-center-y="-0.99999906"
         d="m 25.537868,125.91951 h 2 v 2 h -2 z" /><path
         id="rect3174-0"
         style="fill-opacity:0.941176;fill-rule:evenodd;stroke-width:1px"
         inkscape:transform-center-x="0.99999999"
         inkscape:transform-center-y="-0.99999906"
         d="m 25.537868,133.85588 h 2 v 2 h -2 z" /><path
         id="rect3176-8"
         style="fill-rule:evenodd;stroke-width:1px"
         d="m 31.52354,117.89887 h 18 v 2 h -18 z" /><path
         id="rect3178-8"
         style="fill-rule:evenodd;stroke-width:1px"
         d="m 31.477398,125.91951 h 18 v 2 h -18 z" /><path
         id="rect3180-5"
         style="fill-rule:evenodd;stroke-width:1px"
         d="m 31.579151,133.95763 h 18 v 2 h -18 z" /><path
         id="rect3182-0"
         style="fill-rule:evenodd;stroke-width:1px"
         d="m 31.579151,137.92583 h 18 v 2 h -18 z" /><path
         id="rect3184-9"
         style="fill-rule:evenodd;stroke-width:1px"
         d="m 31.579147,121.95132 h 14 v 2 h -14 z" /><path
         id="rect3186-6"
         style="fill-rule:evenodd;stroke-width:1px"
         d="m 31.544182,129.8877 h 14 v 2 h -14 z" /><path
         id="rect3188-3"
         style="fill-rule:evenodd;stroke-width:1px"
         d="m 31.645931,141.89401 h 14 v 2 h -14 z" /></g><path
       id="rect234-7-7-4-1-7-7-4-3-5-7-5"
       style="fill:#37595f;stroke-width:0.236214"
       d="m 90.896374,63.792534 h 11.462896 c 0.5683,0 1.02581,0.457513 1.02581,1.025814 v 5.457346 c 0,0.568301 -0.45751,1.025814 -1.02581,1.025814 H 90.896374 c -0.568301,0 -1.025814,-0.457513 -1.025814,-1.025814 v -5.457346 c 0,-0.568301 0.457513,-1.025814 1.025814,-1.025814 z" /><path
       id="rect234-7-7-4-1-7-7-4-3-7-0-9-6"
       style="fill:#ffffff;stroke-width:0.145552"
       d="m 91.268708,66.892815 h 9.054572 c 0.43548,0 0.78606,0.350585 0.78606,0.786065 v 2.053716 c 0,0.43548 -0.35058,0.786065 -0.78606,0.786065 h -9.054572 c -0.43548,0 -0.786065,-0.350585 -0.786065,-0.786065 V 67.67888 c 0,-0.43548 0.350585,-0.786065 0.786065,-0.786065 z" /><g
       aria-label="Manifest"
       id="text1066-6-3-5-6-1-9-02-1"
       style="font-size:2.01728px;fill:#666666;stroke-width:0.686268"><path
         d="m 92.424106,69.467239 -0.47406,-1.262817 h -0.0081 q 0.0061,0.06254 0.01009,0.169452 0.004,0.104898 0.004,0.219883 v 0.873482 H 91.788602 V 68.026901 H 92.0569 l 0.443802,1.180109 h 0.0081 l 0.451871,-1.180109 h 0.266281 v 1.440338 h -0.179538 v -0.885586 q 0,-0.104898 0.004,-0.207779 0.0061,-0.102882 0.01009,-0.167435 h -0.0081 l -0.480113,1.2608 z"
         id="path7445" /><path
         d="m 94.003636,68.367822 q 0.197693,0 0.292506,0.08674 0.09481,0.08674 0.09481,0.276367 v 0.736307 h -0.129106 l -0.03429,-0.153313 h -0.0081 q -0.07061,0.08876 -0.149279,0.131123 -0.07666,0.04236 -0.213832,0.04236 -0.147261,0 -0.24409,-0.07666 -0.09683,-0.07867 -0.09683,-0.244091 0,-0.161383 0.127089,-0.248126 0.127088,-0.08876 0.391352,-0.09683 l 0.183573,-0.0061 v -0.06455 q 0,-0.135158 -0.0585,-0.187607 -0.0585,-0.05245 -0.165417,-0.05245 -0.08473,0 -0.161383,0.02622 -0.07666,0.02421 -0.143227,0.05648 l -0.05447,-0.13314 q 0.0706,-0.03833 0.167434,-0.06455 0.09683,-0.02824 0.201728,-0.02824 z m 0.05245,0.576942 q -0.201728,0.0081 -0.280402,0.06455 -0.07666,0.05648 -0.07666,0.159365 0,0.09078 0.05447,0.13314 0.05648,0.04236 0.143227,0.04236 0.137175,0 0.227953,-0.07464 0.09078,-0.07666 0.09078,-0.234005 v -0.09683 z"
         id="path7447" /><path
         d="m 95.246282,68.365804 q 0.193659,0 0.292506,0.09481 0.09885,0.09279 0.09885,0.302592 v 0.70403 h -0.175504 v -0.691927 q 0,-0.260229 -0.242073,-0.260229 -0.179538,0 -0.248126,0.100864 -0.06859,0.100864 -0.06859,0.290489 v 0.560803 h -0.177521 v -1.081262 h 0.143227 l 0.02622,0.147262 h 0.01009 q 0.05245,-0.08473 0.145244,-0.125072 0.09279,-0.04236 0.195677,-0.04236 z"
         id="path7449" /><path
         d="m 96.06328,67.980504 q 0.04035,0 0.07061,0.02824 0.03228,0.02622 0.03228,0.08473 0,0.05648 -0.03228,0.08472 -0.03026,0.02824 -0.07061,0.02824 -0.04438,0 -0.07464,-0.02824 -0.03026,-0.02824 -0.03026,-0.08472 0,-0.0585 0.03026,-0.08473 0.03026,-0.02824 0.07464,-0.02824 z m 0.08674,0.405473 v 1.081262 H 95.9725 v -1.081262 z"
         id="path7451" /><path
         d="m 96.991228,68.523152 h -0.272333 v 0.944087 h -0.17752 V 68.523152 H 96.35175 v -0.08271 l 0.189625,-0.06052 v -0.06253 q 0,-0.209797 0.09279,-0.300575 0.0928,-0.09279 0.258212,-0.09279 0.06455,0 0.117002,0.0121 0.05447,0.01009 0.0928,0.02421 l -0.0464,0.139192 q -0.03228,-0.01009 -0.07464,-0.02017 -0.04236,-0.01009 -0.08674,-0.01009 -0.08876,0 -0.133141,0.06052 -0.04236,0.0585 -0.04236,0.185589 v 0.07061 h 0.272333 z"
         id="path7453" /><path
         d="m 97.604481,68.365804 q 0.139192,0 0.238039,0.06052 0.100864,0.06052 0.153313,0.171469 0.05447,0.108933 0.05447,0.256194 v 0.106916 h -0.740342 q 0.004,0.183573 0.0928,0.280402 0.09078,0.09481 0.25216,0.09481 0.102881,0 0.181555,-0.01816 0.08069,-0.02017 0.165417,-0.05648 v 0.15533 q -0.08271,0.03631 -0.163399,0.05245 -0.08069,0.01816 -0.191642,0.01816 -0.153313,0 -0.272333,-0.06254 -0.117002,-0.06253 -0.183572,-0.185589 -0.06455,-0.125072 -0.06455,-0.30461 0,-0.17752 0.0585,-0.304609 0.06052,-0.127089 0.167434,-0.195676 0.108933,-0.06859 0.25216,-0.06859 z m -0.002,0.145245 q -0.127089,0 -0.201728,0.08271 -0.07262,0.08069 -0.08674,0.225935 h 0.550717 q -0.002,-0.137175 -0.06455,-0.2219 -0.06254,-0.08674 -0.197693,-0.08674 z"
         id="path7455" /><path
         d="m 99.028679,69.168682 q 0,0.157348 -0.117002,0.238039 -0.117002,0.08069 -0.314696,0.08069 -0.112967,0 -0.195676,-0.01816 -0.08069,-0.01816 -0.143227,-0.05043 v -0.161383 q 0.06455,0.03228 0.155331,0.06052 0.09279,0.02622 0.187607,0.02622 0.135158,0 0.195676,-0.04236 0.06052,-0.04438 0.06052,-0.117002 0,-0.04035 -0.02219,-0.07262 -0.02219,-0.03228 -0.08069,-0.06455 -0.05648,-0.03228 -0.1634,-0.07262 -0.104898,-0.04035 -0.179538,-0.08069 -0.07464,-0.04035 -0.114984,-0.09683 -0.04035,-0.05648 -0.04035,-0.145244 0,-0.137175 0.11095,-0.211814 0.112968,-0.07464 0.294523,-0.07464 0.09885,0 0.183573,0.02017 0.08674,0.01816 0.161382,0.05245 l -0.06052,0.141209 q -0.06859,-0.02824 -0.143227,-0.04841 -0.07464,-0.02017 -0.153313,-0.02017 -0.108934,0 -0.167435,0.03631 -0.05648,0.03429 -0.05648,0.09481 0,0.04438 0.02622,0.07666 0.02623,0.03026 0.08674,0.06052 0.06254,0.02824 0.165417,0.06859 0.102881,0.03833 0.175503,0.07867 0.07262,0.04035 0.110951,0.09885 0.03833,0.05648 0.03833,0.143227 z"
         id="path7457" /><path
         d="m 99.652019,69.342168 q 0.04035,0 0.08271,-0.0061 0.04236,-0.0081 0.06859,-0.01614 v 0.135158 q -0.02824,0.01412 -0.08069,0.02219 -0.05245,0.01009 -0.100864,0.01009 -0.08473,0 -0.157348,-0.02824 -0.07061,-0.03026 -0.114985,-0.102881 -0.04438,-0.07262 -0.04438,-0.203745 v -0.629392 h -0.153313 v -0.08472 l 0.15533,-0.07061 0.07061,-0.22997 h 0.104899 v 0.248125 h 0.312678 v 0.137175 h -0.312678 v 0.625357 q 0,0.09885 0.0464,0.147262 0.04842,0.0464 0.123054,0.0464 z"
         id="path7459" /></g><g
       aria-label="Zephyr"
       id="text1066-6-3-5-6-3-9-5"
       style="font-size:2.01728px;stroke-width:0.686268"><path
         d="M 94.359375,65.803635 H 93.360821 V 65.66646 l 0.758497,-1.141781 h -0.73429 v -0.161382 h 0.954174 v 0.137175 l -0.758497,1.14178 h 0.77867 z"
         style="fill:#ffffff"
         id="path7462" /><path
         d="m 95.027095,64.7022 q 0.139193,0 0.23804,0.06052 0.100864,0.06052 0.153313,0.171469 0.05447,0.108933 0.05447,0.256194 v 0.106916 h -0.740341 q 0.004,0.183573 0.09279,0.280402 0.09078,0.09481 0.25216,0.09481 0.102882,0 0.181556,-0.01815 0.08069,-0.02017 0.165417,-0.05648 v 0.155331 q -0.08271,0.03631 -0.1634,0.05245 -0.08069,0.01816 -0.191642,0.01816 -0.153313,0 -0.272332,-0.06253 -0.117003,-0.06254 -0.183573,-0.18559 -0.06455,-0.125071 -0.06455,-0.304609 0,-0.177521 0.0585,-0.30461 0.06052,-0.127088 0.167434,-0.195676 0.108934,-0.06859 0.25216,-0.06859 z m -0.002,0.145244 q -0.127088,0 -0.201728,0.08271 -0.07262,0.08069 -0.08674,0.225936 h 0.550718 q -0.002,-0.137175 -0.06455,-0.221901 -0.06254,-0.08674 -0.197694,-0.08674 z"
         style="fill:#ffffff"
         id="path7464" /><path
         d="m 96.261669,64.7022 q 0.199711,0 0.320748,0.139192 0.123054,0.139192 0.123054,0.419594 0,0.276368 -0.123054,0.419595 -0.121037,0.143226 -0.322765,0.143226 -0.125071,0 -0.20778,-0.0464 -0.08069,-0.04842 -0.127089,-0.11095 h -0.0121 q 0.004,0.03429 0.0081,0.08674 0.004,0.05245 0.004,0.09078 v 0.443802 h -0.17752 V 64.72237 h 0.145244 l 0.02421,0.147261 h 0.0081 q 0.04841,-0.07061 0.127089,-0.11902 0.07867,-0.04841 0.209797,-0.04841 z m -0.03228,0.149278 q -0.165417,0 -0.234005,0.09279 -0.06657,0.0928 -0.07061,0.28242 v 0.03429 q 0,0.199711 0.06455,0.308644 0.06657,0.106916 0.244091,0.106916 0.09885,0 0.161383,-0.05447 0.06455,-0.05447 0.09481,-0.147261 0.03228,-0.09481 0.03228,-0.215849 0,-0.18559 -0.07262,-0.29654 -0.07061,-0.110951 -0.219883,-0.110951 z"
         style="fill:#ffffff"
         id="path7466" /><path
         d="m 97.16541,64.720355 q 0,0.08069 -0.01009,0.151296 h 0.0121 q 0.05245,-0.08271 0.141209,-0.125071 0.09078,-0.04236 0.195676,-0.04236 0.197694,0 0.29654,0.09481 0.09885,0.09279 0.09885,0.300575 v 0.704031 h -0.175503 v -0.691927 q 0,-0.26023 -0.242074,-0.26023 -0.181555,0 -0.250143,0.102882 -0.06657,0.100864 -0.06657,0.290488 v 0.558787 h -0.17752 v -1.533133 h 0.17752 z"
         style="fill:#ffffff"
         id="path7468" /><path
         d="m 98.065117,64.722373 h 0.189624 l 0.234005,0.61527 q 0.03026,0.08069 0.05447,0.155331 0.02421,0.07262 0.03631,0.139192 h 0.0081 q 0.0121,-0.05043 0.03833,-0.131123 0.02622,-0.08271 0.05447,-0.165417 l 0.219883,-0.613253 h 0.191642 l -0.465992,1.23054 q -0.05648,0.153314 -0.147261,0.244091 -0.08876,0.09078 -0.246109,0.09078 -0.04841,0 -0.08473,-0.0061 -0.03631,-0.004 -0.06254,-0.01009 v -0.14121 q 0.02219,0.004 0.05245,0.0081 0.03228,0.004 0.06657,0.004 0.0928,0 0.149279,-0.05245 0.0585,-0.05245 0.09078,-0.139192 l 0.05648,-0.143227 z"
         style="fill:#ffffff"
         id="path7470" /><path
         d="m 99.767702,64.7022 q 0.03026,0 0.06455,0.004 0.03631,0.002 0.06254,0.0081 l -0.02219,0.1634 q -0.02622,-0.0061 -0.0585,-0.01009 -0.03026,-0.004 -0.0585,-0.004 -0.08271,0 -0.15533,0.0464 -0.07262,0.04438 -0.117002,0.127088 -0.04236,0.08069 -0.04236,0.189625 v 0.576942 h -0.177521 v -1.081262 h 0.145244 l 0.02017,0.197693 h 0.0081 q 0.05245,-0.08876 0.135158,-0.153313 0.08271,-0.06455 0.195676,-0.06455 z"
         style="fill:#ffffff"
         id="path7472" /></g><g
       inkscape:label="Ebene 1"
       id="layer1-6-2-8"
       transform="matrix(0.07400706,0,0,0.07354743,99.032897,59.021622)"
       style="fill:#ffffff;stroke:#808080;stroke-opacity:1"><path
         id="rect2396-8-4"
         style="fill-rule:evenodd;stroke-width:0.986368px"
         d="m 23.037609,113.39812 h 33.01363 v 37.01363 h -33.01363 z" /><path
         id="rect3170-9-8"
         style="fill-opacity:0.941176;fill-rule:evenodd;stroke-width:1px"
         inkscape:transform-center-x="0.99999999"
         inkscape:transform-center-y="-0.99999906"
         d="m 25.622131,117.89887 h 2 v 2 h -2 z" /><path
         id="rect3172-7-1"
         style="fill-opacity:0.941176;fill-rule:evenodd;stroke-width:1px"
         inkscape:transform-center-x="0.99999999"
         inkscape:transform-center-y="-0.99999906"
         d="m 25.537868,125.91951 h 2 v 2 h -2 z" /><path
         id="rect3174-3-0"
         style="fill-opacity:0.941176;fill-rule:evenodd;stroke-width:1px"
         inkscape:transform-center-x="0.99999999"
         inkscape:transform-center-y="-0.99999906"
         d="m 25.537868,133.85588 h 2 v 2 h -2 z" /><path
         id="rect3176-6-3"
         style="fill-rule:evenodd;stroke-width:1px"
         d="m 31.52354,117.89887 h 18 v 2 h -18 z" /><path
         id="rect3178-1-0"
         style="fill-rule:evenodd;stroke-width:1px"
         d="m 31.477398,125.91951 h 18 v 2 h -18 z" /><path
         id="rect3180-2-4"
         style="fill-rule:evenodd;stroke-width:1px"
         d="m 31.579151,133.95763 h 18 v 2 h -18 z" /><path
         id="rect3182-9-4"
         style="fill-rule:evenodd;stroke-width:1px"
         d="m 31.579151,137.92583 h 18 v 2 h -18 z" /><path
         id="rect3184-3-4"
         style="fill-rule:evenodd;stroke-width:1px"
         d="m 31.579147,121.95132 h 14 v 2 h -14 z" /><path
         id="rect3186-1-4"
         style="fill-rule:evenodd;stroke-width:1px"
         d="m 31.544182,129.8877 h 14 v 2 h -14 z" /><path
         id="rect3188-9-7"
         style="fill-rule:evenodd;stroke-width:1px"
         d="m 31.645931,141.89401 h 14 v 2 h -14 z" /></g><path
       id="rect234-7-7-4-1-7-7-4-3-5-7-7-1"
       style="fill:#37595f;stroke-width:0.160633"
       d="m 105.65705,67.82901 h 11.86541 c 0.45681,0 0.82456,0.367752 0.82456,0.824556 v 1.823385 c 0,0.456804 -0.36775,0.824556 -0.82456,0.824556 h -11.86541 c -0.4568,0 -0.82455,-0.367752 -0.82455,-0.824556 v -1.823385 c 0,-0.456804 0.36775,-0.824556 0.82455,-0.824556 z" /><g
       aria-label="Modules"
       id="text1066-6-3-5-6-3-9-0-7"
       style="font-size:2.01728px;stroke-width:0.686268"><path
         d="m 108.28746,70.321747 -0.47406,-1.262818 h -0.008 q 0.006,0.06254 0.0101,0.169452 0.004,0.104899 0.004,0.219884 v 0.873482 h -0.16744 v -1.440338 h 0.2683 l 0.4438,1.180109 h 0.008 l 0.45187,-1.180109 h 0.26628 v 1.440338 h -0.17953 v -0.885586 q 0,-0.104899 0.004,-0.20778 0.006,-0.102881 0.0101,-0.167434 h -0.008 l -0.48011,1.2608 z"
         style="fill:#ffffff"
         id="path7487" /><path
         d="m 110.39753,69.779098 q 0,0.268299 -0.13717,0.41556 -0.13516,0.147262 -0.36715,0.147262 -0.14323,0 -0.25619,-0.06455 -0.11095,-0.06657 -0.17551,-0.191642 -0.0645,-0.127089 -0.0645,-0.306627 0,-0.268298 0.13516,-0.413542 0.13516,-0.145244 0.36714,-0.145244 0.14726,0 0.25821,0.06657 0.11297,0.06455 0.17551,0.189624 0.0645,0.123055 0.0645,0.302592 z m -0.817,0 q 0,0.191642 0.0746,0.30461 0.0767,0.11095 0.24208,0.11095 0.16339,0 0.24005,-0.11095 0.0767,-0.112968 0.0767,-0.30461 0,-0.191641 -0.0767,-0.300574 -0.0767,-0.108933 -0.24207,-0.108933 -0.16542,0 -0.24006,0.108933 -0.0746,0.108933 -0.0746,0.300574 z"
         style="fill:#ffffff"
         id="path7489" /><path
         d="m 111.06121,70.34192 q -0.20172,0 -0.32276,-0.139193 -0.12104,-0.141209 -0.12104,-0.419594 0,-0.278385 0.12104,-0.419594 0.12305,-0.143227 0.32478,-0.143227 0.12507,0 0.20375,0.0464 0.0807,0.0464 0.13112,0.112968 h 0.0121 q -0.002,-0.02622 -0.008,-0.07666 -0.004,-0.05245 -0.004,-0.08271 v -0.431698 h 0.17752 v 1.533133 h -0.14323 l -0.0262,-0.145244 h -0.008 q -0.0484,0.06859 -0.12911,0.117002 -0.0807,0.04842 -0.20778,0.04842 z m 0.0282,-0.147262 q 0.17147,0 0.24005,-0.0928 0.0706,-0.09481 0.0706,-0.284436 v -0.03228 q 0,-0.201728 -0.0666,-0.308644 -0.0666,-0.108933 -0.24611,-0.108933 -0.14323,0 -0.21585,0.114985 -0.0706,0.112968 -0.0706,0.30461 0,0.193658 0.0706,0.300574 0.0726,0.106916 0.21787,0.106916 z"
         style="fill:#ffffff"
         id="path7491" /><path
         d="m 112.8223,69.240485 v 1.081262 h -0.14524 l -0.0262,-0.143227 h -0.008 q -0.0524,0.08473 -0.14524,0.125071 -0.0928,0.03833 -0.1977,0.03833 -0.19567,0 -0.29452,-0.09279 -0.0988,-0.09481 -0.0988,-0.300575 v -0.708065 h 0.17954 v 0.695961 q 0,0.258212 0.24006,0.258212 0.17954,0 0.24812,-0.100864 0.0706,-0.100864 0.0706,-0.290488 v -0.562821 z"
         style="fill:#ffffff"
         id="path7493" /><path
         d="m 113.34276,70.321747 h -0.17752 v -1.533133 h 0.17752 z"
         style="fill:#ffffff"
         id="path7495" /><path
         d="m 114.10327,69.220312 q 0.13919,0 0.23804,0.06052 0.10086,0.06052 0.15331,0.171469 0.0545,0.108933 0.0545,0.256195 v 0.106916 h -0.74034 q 0.004,0.183572 0.0928,0.280401 0.0908,0.09481 0.25216,0.09481 0.10289,0 0.18156,-0.01816 0.0807,-0.02017 0.16542,-0.05648 v 0.155331 q -0.0827,0.03631 -0.1634,0.05245 -0.0807,0.01816 -0.19165,0.01816 -0.15331,0 -0.27233,-0.06254 -0.117,-0.06254 -0.18357,-0.18559 -0.0645,-0.125071 -0.0645,-0.304609 0,-0.177521 0.0585,-0.304609 0.0605,-0.127089 0.16743,-0.195677 0.10893,-0.06859 0.25216,-0.06859 z m -0.002,0.145244 q -0.12708,0 -0.20172,0.08271 -0.0726,0.08069 -0.0867,0.225935 h 0.55072 q -0.002,-0.137175 -0.0645,-0.221901 -0.0625,-0.08674 -0.1977,-0.08674 z"
         style="fill:#ffffff"
         id="path7497" /><path
         d="m 115.52747,70.023189 q 0,0.157348 -0.117,0.238039 -0.11701,0.08069 -0.3147,0.08069 -0.11297,0 -0.19567,-0.01816 -0.0807,-0.01815 -0.14323,-0.05043 V 70.11195 q 0.0645,0.03228 0.15533,0.06052 0.0928,0.02623 0.18761,0.02623 0.13515,0 0.19567,-0.04236 0.0605,-0.04438 0.0605,-0.117002 0,-0.04035 -0.0222,-0.07262 -0.0222,-0.03228 -0.0807,-0.06455 -0.0565,-0.03228 -0.1634,-0.07262 -0.1049,-0.04035 -0.17954,-0.08069 -0.0746,-0.04035 -0.11498,-0.09683 -0.0403,-0.05648 -0.0403,-0.145244 0,-0.137175 0.11095,-0.211815 0.11297,-0.07464 0.29452,-0.07464 0.0988,0 0.18358,0.02017 0.0867,0.01815 0.16138,0.05245 l -0.0605,0.14121 q -0.0686,-0.02824 -0.14323,-0.04842 -0.0746,-0.02017 -0.15331,-0.02017 -0.10893,0 -0.16743,0.03631 -0.0565,0.03429 -0.0565,0.09481 0,0.04438 0.0262,0.07666 0.0262,0.03026 0.0867,0.06052 0.0625,0.02824 0.16542,0.06859 0.10288,0.03833 0.1755,0.07867 0.0726,0.04035 0.11095,0.09885 0.0383,0.05648 0.0383,0.143227 z"
         style="fill:#ffffff"
         id="path7499" /></g><path
       style="fill:none;stroke:#303030;stroke-width:0.194197;stroke-dasharray:none;stroke-opacity:1;marker-end:url(#TriangleStart-1)"
       d="m 101.93993,67.337704 c -0.0357,-1.976885 1.76191,-4.27177 4.89776,-4.530381 2.97615,-0.321213 4.40271,2.620249 4.39449,4.347639"
       id="path2641-96"
       sodipodi:nodetypes="ccc" /><path
       style="fill:none;stroke:#303030;stroke-width:0.194197;stroke-dasharray:none;stroke-opacity:1;marker-end:url(#TriangleStart-7-7)"
       d="m 85.447675,59.312201 c 0.133357,-1.724722 1.965348,-2.395188 4.171797,-2.636703 4.581505,-0.486439 6.417112,4.691803 6.408888,6.419192"
       id="path2641-5-2"
       sodipodi:nodetypes="ccc" /></g></svg>
