<?xml version="1.0" encoding="UTF-8" standalone="no"?>
<!-- Created with Inkscape (http://www.inkscape.org/) -->

<svg
   width="67.801201mm"
   height="15.864857mm"
   viewBox="0 0 67.801198 15.864857"
   version="1.1"
   id="svg5"
   inkscape:version="1.2.2 (b0a8486541, 2022-12-01)"
   sodipodi:docname="application_topologies.svg"
   xml:space="preserve"
   inkscape:export-filename="application_topologies_4.png"
   inkscape:export-xdpi="600"
   inkscape:export-ydpi="600"
   xmlns:inkscape="http://www.inkscape.org/namespaces/inkscape"
   xmlns:sodipodi="http://sodipodi.sourceforge.net/DTD/sodipodi-0.dtd"
   xmlns="http://www.w3.org/2000/svg"
   xmlns:svg="http://www.w3.org/2000/svg"><sodipodi:namedview
     id="namedview7"
     pagecolor="#ffffff"
     bordercolor="#999999"
     borderopacity="1"
     inkscape:showpageshadow="0"
     inkscape:pageopacity="0"
     inkscape:pagecheckerboard="0"
     inkscape:deskcolor="#d1d1d1"
     inkscape:document-units="mm"
     showgrid="false"
     inkscape:zoom="2"
     inkscape:cx="-283.75"
     inkscape:cy="20"
     inkscape:window-width="3840"
     inkscape:window-height="2076"
     inkscape:window-x="0"
     inkscape:window-y="0"
     inkscape:window-maximized="1"
     inkscape:current-layer="layer1" /><defs
     id="defs2"><marker
       style="overflow:visible"
       id="TriangleStart-1"
       refX="0"
       refY="0"
       orient="auto-start-reverse"
       inkscape:stockid="TriangleStart"
       markerWidth="5.3244081"
       markerHeight="6.155385"
       viewBox="0 0 5.3244081 6.1553851"
       inkscape:isstock="true"
       inkscape:collect="always"
       preserveAspectRatio="xMidYMid"><path
         transform="scale(0.5)"
         style="fill:context-stroke;fill-rule:evenodd;stroke:context-stroke;stroke-width:1pt"
         d="M 5.77,0 -2.88,5 V -5 Z"
         id="path135-59" /></marker><marker
       style="overflow:visible"
       id="TriangleStart-1-8"
       refX="0"
       refY="0"
       orient="auto-start-reverse"
       inkscape:stockid="TriangleStart"
       markerWidth="5.3244081"
       markerHeight="6.155385"
       viewBox="0 0 5.3244081 6.1553851"
       inkscape:isstock="true"
       inkscape:collect="always"
       preserveAspectRatio="xMidYMid"><path
         transform="scale(0.5)"
         style="fill:context-stroke;fill-rule:evenodd;stroke:context-stroke;stroke-width:1pt"
         d="M 5.77,0 -2.88,5 V -5 Z"
         id="path135-59-5" /></marker><marker
       style="overflow:visible"
       id="TriangleStart-7-7-9-3"
       refX="0"
       refY="0"
       orient="auto-start-reverse"
       inkscape:stockid="TriangleStart"
       markerWidth="5.3244081"
       markerHeight="6.155385"
       viewBox="0 0 5.3244081 6.1553851"
       inkscape:isstock="true"
       inkscape:collect="always"
       preserveAspectRatio="xMidYMid"><path
         transform="scale(0.5)"
         style="fill:context-stroke;fill-rule:evenodd;stroke:context-stroke;stroke-width:1pt"
         d="M 5.77,0 -2.88,5 V -5 Z"
         id="path135-6-7-7-6" /></marker><marker
       style="overflow:visible"
       id="TriangleStart-1-4"
       refX="0"
       refY="0"
       orient="auto-start-reverse"
       inkscape:stockid="TriangleStart"
       markerWidth="5.3244081"
       markerHeight="6.155385"
       viewBox="0 0 5.3244081 6.1553851"
       inkscape:isstock="true"
       inkscape:collect="always"
       preserveAspectRatio="xMidYMid"><path
         transform="scale(0.5)"
         style="fill:context-stroke;fill-rule:evenodd;stroke:context-stroke;stroke-width:1pt"
         d="M 5.77,0 -2.88,5 V -5 Z"
         id="path135-59-8" /></marker></defs><g
     inkscape:label="Layer 1"
     inkscape:groupmode="layer"
     id="layer1"
     transform="translate(-49.704723,-115.61486)"><path
       id="rect234-7-7-4-1-7-7-4-3-5-6-3"
       style="fill:#37595f;stroke-width:0.277834"
       d="m 77.461696,119.78479 h 10.252237 c 0.485369,0 0.876117,0.39075 0.876117,0.87612 v 9.94269 c 0,0.48537 -0.390748,0.87612 -0.876117,0.87612 H 77.461696 c -0.485369,0 -0.876117,-0.39075 -0.876117,-0.87612 v -9.94269 c 0,-0.48537 0.390748,-0.87612 0.876117,-0.87612 z" /><path
       id="rect234-7-7-4-1-7-7-4-3-7-0-8-3-8"
       style="fill:#ffffff;stroke-width:0.145553"
       d="m 77.973596,123.03388 h 9.05457 c 0.43548,0 0.786065,0.35059 0.786065,0.78607 v 2.05371 c 0,0.43548 -0.350585,0.78607 -0.786065,0.78607 h -9.05457 c -0.43548,0 -0.786065,-0.35059 -0.786065,-0.78607 v -2.05371 c 0,-0.43548 0.350585,-0.78607 0.786065,-0.78607 z" /><g
       aria-label="Board a)"
       id="text1066-6-3-5-6-1-9-6-3-8"
       style="font-size:2.01728px;fill:#666666;stroke-width:0.686269"><path
         d="m 79.090089,124.06738 q 0.270315,0 0.40749,0.0807 0.139192,0.0787 0.139192,0.27637 0,0.12709 -0.0706,0.21182 -0.0706,0.0827 -0.203746,0.10691 v 0.0101 q 0.09078,0.0141 0.1634,0.0525 0.07464,0.0383 0.117002,0.10893 0.04236,0.0706 0.04236,0.18357 0,0.19568 -0.135158,0.3026 -0.13314,0.10691 -0.365127,0.10691 h -0.506338 v -1.44034 z m 0.03631,0.61326 q 0.185589,0 0.254177,-0.0585 0.06859,-0.0605 0.06859,-0.17752 0,-0.11902 -0.08472,-0.16945 -0.08271,-0.0524 -0.266281,-0.0524 h -0.238039 v 0.45793 z m -0.266281,0.15129 v 0.52248 h 0.290488 q 0.191642,0 0.266281,-0.0746 0.07464,-0.0746 0.07464,-0.19568 0,-0.11297 -0.07867,-0.18155 -0.07666,-0.0706 -0.276367,-0.0706 z"
         id="path7648" /><path
         d="m 80.90564,124.96507 q 0,0.2683 -0.137175,0.41556 -0.135158,0.14726 -0.367145,0.14726 -0.143227,0 -0.256195,-0.0645 -0.11095,-0.0666 -0.175503,-0.19164 -0.06455,-0.12709 -0.06455,-0.30663 0,-0.2683 0.135158,-0.41354 0.135157,-0.14524 0.367145,-0.14524 0.147261,0 0.258212,0.0666 0.112967,0.0645 0.175503,0.18962 0.06455,0.12305 0.06455,0.30259 z m -0.816999,0 q 0,0.19164 0.07464,0.30461 0.07666,0.11095 0.242073,0.11095 0.1634,0 0.240057,-0.11095 0.07666,-0.11297 0.07666,-0.30461 0,-0.19164 -0.07666,-0.30057 -0.07666,-0.10894 -0.242074,-0.10894 -0.165417,0 -0.240056,0.10894 -0.07464,0.10893 -0.07464,0.30057 z"
         id="path7650" /><path
         d="m 81.595549,124.4083 q 0.197693,0 0.292505,0.0868 0.09481,0.0867 0.09481,0.27636 v 0.73631 h -0.129106 l -0.03429,-0.15331 h -0.0081 q -0.07061,0.0888 -0.149279,0.13112 -0.07666,0.0424 -0.213832,0.0424 -0.147261,0 -0.244091,-0.0767 -0.09683,-0.0787 -0.09683,-0.24409 0,-0.16139 0.127089,-0.24813 0.127088,-0.0888 0.391352,-0.0968 l 0.183573,-0.006 v -0.0645 q 0,-0.13516 -0.0585,-0.18761 -0.0585,-0.0525 -0.165417,-0.0525 -0.08473,0 -0.161382,0.0262 -0.07666,0.0242 -0.143227,0.0565 l -0.05447,-0.13314 q 0.0706,-0.0383 0.167434,-0.0645 0.09683,-0.0282 0.201728,-0.0282 z m 0.05245,0.57695 q -0.201728,0.008 -0.280402,0.0646 -0.07666,0.0565 -0.07666,0.15936 0,0.0908 0.05447,0.13314 0.05648,0.0424 0.143227,0.0424 0.137175,0 0.227953,-0.0746 0.09078,-0.0767 0.09078,-0.23401 v -0.0968 z"
         id="path7652" /><path
         d="m 82.822057,124.40629 q 0.03026,0 0.06455,0.004 0.03631,0.002 0.06253,0.008 l -0.02219,0.1634 q -0.02622,-0.006 -0.0585,-0.0101 -0.03026,-0.004 -0.0585,-0.004 -0.08271,0 -0.155331,0.0464 -0.07262,0.0444 -0.117002,0.12708 -0.04236,0.0807 -0.04236,0.18963 v 0.57694 h -0.17752 v -1.08126 h 0.145244 l 0.02017,0.19769 h 0.0081 q 0.05245,-0.0888 0.135158,-0.15331 0.08271,-0.0645 0.195676,-0.0645 z"
         id="path7654" /><path
         d="m 83.49381,125.52789 q -0.201728,0 -0.322764,-0.13919 -0.121037,-0.14121 -0.121037,-0.41959 0,-0.27839 0.121037,-0.4196 0.123054,-0.14322 0.324782,-0.14322 0.125071,0 0.203745,0.0464 0.08069,0.0464 0.131123,0.11297 h 0.0121 q -0.002,-0.0262 -0.0081,-0.0767 -0.004,-0.0524 -0.004,-0.0827 v -0.4317 h 0.177521 v 1.53313 H 83.86499 l -0.02623,-0.14524 h -0.0081 q -0.04842,0.0686 -0.129106,0.117 -0.08069,0.0484 -0.20778,0.0484 z m 0.02824,-0.14726 q 0.171469,0 0.240057,-0.0928 0.0706,-0.0948 0.0706,-0.28444 v -0.0323 q 0,-0.20172 -0.06657,-0.30864 -0.06657,-0.10893 -0.246108,-0.10893 -0.143227,0 -0.215849,0.11498 -0.07061,0.11297 -0.07061,0.30461 0,0.19366 0.07061,0.30058 0.07262,0.10691 0.217866,0.10691 z"
         id="path7656" /><path
         d="m 85.285155,124.4083 q 0.197693,0 0.292506,0.0868 0.09481,0.0867 0.09481,0.27636 v 0.73631 h -0.129106 l -0.03429,-0.15331 h -0.0081 q -0.07061,0.0888 -0.149279,0.13112 -0.07666,0.0424 -0.213831,0.0424 -0.147262,0 -0.244091,-0.0767 -0.09683,-0.0787 -0.09683,-0.24409 0,-0.16139 0.127089,-0.24813 0.127089,-0.0888 0.391352,-0.0968 l 0.183573,-0.006 v -0.0645 q 0,-0.13516 -0.0585,-0.18761 -0.0585,-0.0525 -0.165417,-0.0525 -0.08473,0 -0.161383,0.0262 -0.07666,0.0242 -0.143227,0.0565 l -0.05447,-0.13314 q 0.07061,-0.0383 0.167434,-0.0645 0.09683,-0.0282 0.201728,-0.0282 z m 0.05245,0.57695 q -0.201728,0.008 -0.280402,0.0646 -0.07666,0.0565 -0.07666,0.15936 0,0.0908 0.05447,0.13314 0.05648,0.0424 0.143227,0.0424 0.137175,0 0.227953,-0.0746 0.09078,-0.0767 0.09078,-0.23401 v -0.0968 z"
         id="path7658" /><path
         d="m 86.360367,124.95499 q 0,0.24409 -0.07262,0.47002 -0.07061,0.22392 -0.223918,0.40144 H 85.89841 q 0.139192,-0.18962 0.209797,-0.41354 0.07262,-0.22594 0.07262,-0.45994 0,-0.24006 -0.07262,-0.46801 -0.0706,-0.22795 -0.211815,-0.41758 h 0.167435 q 0.153313,0.18358 0.223918,0.41355 0.07262,0.22795 0.07262,0.47406 z"
         id="path7660" /></g><path
       id="rect234-7-7-4-1-7-7-4-3-7-0-8-3-7-6"
       style="fill:#ffffff;stroke-width:0.145553"
       d="m 77.997491,127.09918 h 9.05457 c 0.43548,0 0.786065,0.35059 0.786065,0.78607 v 2.05371 c 0,0.43548 -0.350585,0.78607 -0.786065,0.78607 h -9.05457 c -0.43548,0 -0.786065,-0.35059 -0.786065,-0.78607 v -2.05371 c 0,-0.43548 0.350585,-0.78607 0.786065,-0.78607 z" /><g
       aria-label="Board b)"
       id="text1066-6-3-5-6-1-9-6-3-4-4"
       style="font-size:2.01728px;fill:#666666;stroke-width:0.686269"><path
         d="m 79.040932,128.07895 q 0.270316,0 0.407491,0.0807 0.139192,0.0787 0.139192,0.27637 0,0.12709 -0.07061,0.21181 -0.0706,0.0827 -0.203745,0.10692 v 0.0101 q 0.09078,0.0141 0.1634,0.0525 0.07464,0.0383 0.117002,0.10894 0.04236,0.0706 0.04236,0.18357 0,0.19568 -0.135158,0.30259 -0.13314,0.10692 -0.365127,0.10692 h -0.506338 v -1.44034 z m 0.03631,0.61325 q 0.18559,0 0.254178,-0.0585 0.06859,-0.0605 0.06859,-0.17752 0,-0.11902 -0.08473,-0.16945 -0.08271,-0.0524 -0.26628,-0.0524 h -0.23804 v 0.45792 z m -0.266281,0.1513 v 0.52247 h 0.290489 q 0.191641,0 0.266281,-0.0746 0.07464,-0.0746 0.07464,-0.19567 0,-0.11297 -0.07867,-0.18156 -0.07666,-0.0706 -0.276367,-0.0706 z"
         id="path7664" /><path
         d="m 80.856484,128.97664 q 0,0.2683 -0.137175,0.41556 -0.135158,0.14726 -0.367145,0.14726 -0.143227,0 -0.256195,-0.0645 -0.11095,-0.0666 -0.175503,-0.19164 -0.06455,-0.12709 -0.06455,-0.30663 0,-0.2683 0.135158,-0.41354 0.135157,-0.14525 0.367144,-0.14525 0.147262,0 0.258212,0.0666 0.112968,0.0646 0.175504,0.18963 0.06455,0.12305 0.06455,0.30259 z m -0.816999,0 q 0,0.19164 0.07464,0.30461 0.07666,0.11095 0.242073,0.11095 0.1634,0 0.240057,-0.11095 0.07666,-0.11297 0.07666,-0.30461 0,-0.19164 -0.07666,-0.30058 -0.07666,-0.10893 -0.242074,-0.10893 -0.165417,0 -0.240056,0.10893 -0.07464,0.10894 -0.07464,0.30058 z"
         id="path7666" /><path
         d="m 81.546393,128.41987 q 0.197693,0 0.292505,0.0867 0.09481,0.0867 0.09481,0.27637 v 0.73631 h -0.129106 l -0.03429,-0.15332 h -0.0081 q -0.07061,0.0888 -0.149279,0.13113 -0.07666,0.0424 -0.213832,0.0424 -0.147261,0 -0.244091,-0.0767 -0.09683,-0.0787 -0.09683,-0.24409 0,-0.16138 0.127088,-0.24812 0.127089,-0.0888 0.391353,-0.0968 l 0.183572,-0.006 v -0.0646 q 0,-0.13516 -0.0585,-0.1876 -0.0585,-0.0525 -0.165417,-0.0525 -0.08473,0 -0.161382,0.0262 -0.07666,0.0242 -0.143227,0.0565 l -0.05447,-0.13314 q 0.07061,-0.0383 0.167435,-0.0645 0.09683,-0.0282 0.201728,-0.0282 z m 0.05245,0.57694 q -0.201728,0.008 -0.280402,0.0645 -0.07666,0.0565 -0.07666,0.15937 0,0.0908 0.05447,0.13314 0.05648,0.0424 0.143227,0.0424 0.137175,0 0.227952,-0.0746 0.09078,-0.0766 0.09078,-0.234 v -0.0968 z"
         id="path7668" /><path
         d="m 82.772901,128.41785 q 0.03026,0 0.06455,0.004 0.03631,0.002 0.06254,0.008 l -0.02219,0.1634 q -0.02622,-0.006 -0.0585,-0.0101 -0.03026,-0.004 -0.0585,-0.004 -0.08271,0 -0.155331,0.0464 -0.07262,0.0444 -0.117002,0.12709 -0.04236,0.0807 -0.04236,0.18963 v 0.57694 h -0.17752 v -1.08127 h 0.145244 l 0.02017,0.1977 h 0.0081 q 0.05245,-0.0888 0.135157,-0.15331 0.08271,-0.0646 0.195677,-0.0646 z"
         id="path7670" /><path
         d="m 83.444654,129.53946 q -0.201728,0 -0.322765,-0.13919 -0.121036,-0.14121 -0.121036,-0.4196 0,-0.27838 0.121036,-0.41959 0.123054,-0.14323 0.324782,-0.14323 0.125072,0 0.203746,0.0464 0.08069,0.0464 0.131123,0.11297 h 0.0121 q -0.002,-0.0262 -0.0081,-0.0767 -0.004,-0.0524 -0.004,-0.0827 v -0.4317 h 0.177521 v 1.53314 h -0.143227 l -0.02622,-0.14525 h -0.0081 q -0.04842,0.0686 -0.129106,0.11701 -0.08069,0.0484 -0.20778,0.0484 z m 0.02824,-0.14726 q 0.171469,0 0.240056,-0.0928 0.07061,-0.0948 0.07061,-0.28443 v -0.0323 q 0,-0.20173 -0.06657,-0.30864 -0.06657,-0.10894 -0.246108,-0.10894 -0.143227,0 -0.215849,0.11499 -0.07061,0.11297 -0.07061,0.30461 0,0.19366 0.07061,0.30057 0.07262,0.10692 0.217866,0.10692 z"
         id="path7672" /><path
         d="m 85.004012,128.35935 q 0,0.0686 -0.004,0.12911 -0.002,0.0585 -0.0061,0.0928 h 0.01009 q 0.0464,-0.0686 0.127088,-0.11498 0.08069,-0.0464 0.20778,-0.0464 0.201728,0 0.322765,0.14121 0.123054,0.13919 0.123054,0.41758 0,0.27838 -0.123054,0.41959 -0.123054,0.14121 -0.322765,0.14121 -0.127089,0 -0.20778,-0.0464 -0.08069,-0.0464 -0.127088,-0.11095 h -0.01412 l -0.03631,0.13718 h -0.127089 v -1.53314 h 0.177521 z m 0.304609,0.20778 q -0.171469,0 -0.238039,0.0988 -0.06657,0.0988 -0.06657,0.30662 v 0.008 q 0,0.19971 0.06455,0.30663 0.06657,0.1049 0.24409,0.1049 0.145245,0 0.215849,-0.10692 0.07262,-0.10691 0.07262,-0.30864 0,-0.40951 -0.292506,-0.40951 z"
         id="path7674" /><path
         d="m 86.420142,128.96655 q 0,0.24409 -0.07262,0.47003 -0.07061,0.22392 -0.223918,0.40144 h -0.165417 q 0.139192,-0.18963 0.209797,-0.41355 0.07262,-0.22593 0.07262,-0.45993 0,-0.24006 -0.07262,-0.46801 -0.07061,-0.22796 -0.211815,-0.41758 h 0.167435 q 0.153313,0.18357 0.223918,0.41354 0.07262,0.22795 0.07262,0.47406 z"
         id="path7676" /></g><g
       aria-label="App b)"
       id="text1066-6-3-5-6-3-4-3"
       style="font-size:2.01728px;stroke-width:0.686269"><path
         d="m 79.210441,121.74837 -0.173486,-0.44582 h -0.570891 l -0.171469,0.44582 h -0.183572 l 0.562821,-1.44639 h 0.1634 l 0.560804,1.44639 z m -0.389335,-1.04294 q -0.0061,-0.0161 -0.02017,-0.0585 -0.01412,-0.0424 -0.02824,-0.0867 -0.0121,-0.0464 -0.02017,-0.0706 -0.01412,0.0625 -0.03228,0.12306 -0.01816,0.0585 -0.03026,0.0928 l -0.163399,0.43574 h 0.455905 z"
         style="fill:#ffffff"
         id="path7679" /><path
         d="m 80.08594,120.64693 q 0.199711,0 0.320748,0.13919 0.123054,0.1392 0.123054,0.4196 0,0.27637 -0.123054,0.41959 -0.121037,0.14323 -0.322765,0.14323 -0.125072,0 -0.20778,-0.0464 -0.08069,-0.0484 -0.127089,-0.11095 h -0.0121 q 0.004,0.0343 0.0081,0.0868 0.004,0.0524 0.004,0.0908 v 0.4438 h -0.17752 v -1.5654 h 0.145244 l 0.02421,0.14726 h 0.0081 q 0.04842,-0.0706 0.127089,-0.11902 0.07867,-0.0484 0.209797,-0.0484 z m -0.03228,0.14928 q -0.165417,0 -0.234005,0.0928 -0.06657,0.0928 -0.07061,0.28242 v 0.0343 q 0,0.19971 0.06455,0.30864 0.06657,0.10692 0.244091,0.10692 0.09885,0 0.161383,-0.0545 0.06455,-0.0545 0.09481,-0.14726 0.03228,-0.0948 0.03228,-0.21585 0,-0.18559 -0.07262,-0.29654 -0.07061,-0.11095 -0.219883,-0.11095 z"
         style="fill:#ffffff"
         id="path7681" /><path
         d="m 81.326567,120.64693 q 0.199711,0 0.320748,0.13919 0.123054,0.1392 0.123054,0.4196 0,0.27637 -0.123054,0.41959 -0.121037,0.14323 -0.322765,0.14323 -0.125072,0 -0.20778,-0.0464 -0.08069,-0.0484 -0.127089,-0.11095 h -0.0121 q 0.004,0.0343 0.0081,0.0868 0.004,0.0524 0.004,0.0908 v 0.4438 h -0.17752 v -1.5654 h 0.145244 l 0.02421,0.14726 h 0.0081 q 0.04841,-0.0706 0.127089,-0.11902 0.07867,-0.0484 0.209797,-0.0484 z m -0.03228,0.14928 q -0.165417,0 -0.234005,0.0928 -0.06657,0.0928 -0.07061,0.28242 v 0.0343 q 0,0.19971 0.06455,0.30864 0.06657,0.10692 0.244091,0.10692 0.09885,0 0.161382,-0.0545 0.06455,-0.0545 0.09481,-0.14726 0.03228,-0.0948 0.03228,-0.21585 0,-0.18559 -0.07262,-0.29654 -0.07061,-0.11095 -0.219883,-0.11095 z"
         style="fill:#ffffff"
         id="path7683" /><path
         d="m 82.754801,120.58843 q 0,0.0686 -0.004,0.12911 -0.002,0.0585 -0.0061,0.0928 h 0.01009 q 0.0464,-0.0686 0.127089,-0.11498 0.08069,-0.0464 0.20778,-0.0464 0.201728,0 0.322765,0.14121 0.123054,0.13919 0.123054,0.41758 0,0.27838 -0.123054,0.41959 -0.123055,0.14121 -0.322765,0.14121 -0.127089,0 -0.20778,-0.0464 -0.08069,-0.0464 -0.127089,-0.11095 h -0.01412 l -0.03631,0.13718 h -0.127088 v -1.53314 h 0.17752 z m 0.30461,0.20778 q -0.171469,0 -0.23804,0.0988 -0.06657,0.0988 -0.06657,0.30662 v 0.008 q 0,0.19971 0.06455,0.30663 0.06657,0.1049 0.244091,0.1049 0.145244,0 0.215849,-0.10692 0.07262,-0.10691 0.07262,-0.30864 0,-0.40951 -0.292505,-0.40951 z"
         style="fill:#ffffff"
         id="path7685" /><path
         d="m 84.170931,121.19563 q 0,0.24409 -0.07262,0.47003 -0.0706,0.22392 -0.223918,0.40144 h -0.165417 q 0.139193,-0.18963 0.209797,-0.41354 0.07262,-0.22594 0.07262,-0.45994 0,-0.24006 -0.07262,-0.46801 -0.0706,-0.22796 -0.211814,-0.41758 h 0.167434 q 0.153314,0.18357 0.223918,0.41354 0.07262,0.22795 0.07262,0.47406 z"
         style="fill:#ffffff"
         id="path7687" /></g><path
       id="rect234-7-7-4-1-7-7-4-3-5-6-3-1"
       style="fill:#37595f;stroke-width:0.27796"
       d="m 65.07307,119.77514 h 10.26307 c 0.485368,0 0.876116,0.39075 0.876116,0.87612 v 9.94269 c 0,0.48537 -0.390748,0.87612 -0.876116,0.87612 H 65.07307 c -0.485369,0 -0.876117,-0.39075 -0.876117,-0.87612 v -9.94269 c 0,-0.48537 0.390748,-0.87612 0.876117,-0.87612 z" /><path
       id="rect234-7-7-4-1-7-7-4-3-7-0-8-3-8-59"
       style="fill:#ffffff;stroke-width:0.145553"
       d="m 65.58497,123.02422 h 9.05457 c 0.43548,0 0.786065,0.35059 0.786065,0.78607 v 2.05371 c 0,0.43548 -0.350585,0.78607 -0.786065,0.78607 h -9.05457 c -0.435481,0 -0.786066,-0.35059 -0.786066,-0.78607 v -2.05371 c 0,-0.43548 0.350585,-0.78607 0.786066,-0.78607 z" /><g
       aria-label="Board a)"
       id="text1066-6-3-5-6-1-9-6-3-8-9"
       style="font-size:2.01728px;fill:#666666;stroke-width:0.686269"><path
         d="m 66.701462,124.05774 q 0.270316,0 0.407491,0.0807 0.139192,0.0787 0.139192,0.27637 0,0.12709 -0.0706,0.21181 -0.07061,0.0827 -0.203746,0.10692 v 0.0101 q 0.09078,0.0141 0.1634,0.0524 0.07464,0.0383 0.117002,0.10894 0.04236,0.0706 0.04236,0.18357 0,0.19568 -0.135158,0.30259 -0.13314,0.10692 -0.365127,0.10692 h -0.506338 v -1.44034 z m 0.03631,0.61325 q 0.185589,0 0.254177,-0.0585 0.06859,-0.0605 0.06859,-0.17752 0,-0.11902 -0.08472,-0.16945 -0.08271,-0.0524 -0.266281,-0.0524 h -0.238039 v 0.45792 z m -0.266281,0.1513 v 0.52247 h 0.290488 q 0.191641,0 0.266281,-0.0746 0.07464,-0.0746 0.07464,-0.19567 0,-0.11297 -0.07867,-0.18156 -0.07666,-0.0706 -0.276367,-0.0706 z"
         id="path7692" /><path
         d="m 68.517014,124.95543 q 0,0.2683 -0.137175,0.41556 -0.135158,0.14726 -0.367145,0.14726 -0.143227,0 -0.256195,-0.0645 -0.11095,-0.0666 -0.175503,-0.19164 -0.06455,-0.12709 -0.06455,-0.30663 0,-0.2683 0.135158,-0.41354 0.135157,-0.14525 0.367145,-0.14525 0.147261,0 0.258211,0.0666 0.112968,0.0646 0.175504,0.18963 0.06455,0.12305 0.06455,0.30259 z m -0.816999,0 q 0,0.19164 0.07464,0.30461 0.07666,0.11095 0.242073,0.11095 0.1634,0 0.240057,-0.11095 0.07666,-0.11297 0.07666,-0.30461 0,-0.19164 -0.07666,-0.30058 -0.07666,-0.10893 -0.242074,-0.10893 -0.165417,0 -0.240056,0.10893 -0.07464,0.10894 -0.07464,0.30058 z"
         id="path7694" /><path
         d="m 69.206923,124.39866 q 0.197693,0 0.292505,0.0867 0.09481,0.0867 0.09481,0.27637 v 0.73631 h -0.129105 l -0.03429,-0.15332 h -0.0081 q -0.07061,0.0888 -0.149279,0.13113 -0.07666,0.0424 -0.213832,0.0424 -0.147261,0 -0.244091,-0.0767 -0.09683,-0.0787 -0.09683,-0.24409 0,-0.16138 0.127089,-0.24812 0.127088,-0.0888 0.391352,-0.0968 l 0.183572,-0.006 v -0.0646 q 0,-0.13515 -0.0585,-0.1876 -0.0585,-0.0525 -0.165417,-0.0525 -0.08473,0 -0.161382,0.0262 -0.07666,0.0242 -0.143227,0.0565 l -0.05447,-0.13315 q 0.07061,-0.0383 0.167435,-0.0645 0.09683,-0.0282 0.201728,-0.0282 z m 0.05245,0.57694 q -0.201728,0.008 -0.280402,0.0645 -0.07666,0.0565 -0.07666,0.15937 0,0.0908 0.05447,0.13314 0.05648,0.0424 0.143227,0.0424 0.137175,0 0.227953,-0.0746 0.09078,-0.0767 0.09078,-0.234 v -0.0968 z"
         id="path7696" /><path
         d="m 70.433431,124.39664 q 0.03026,0 0.06455,0.004 0.03631,0.002 0.06253,0.008 l -0.02219,0.1634 q -0.02622,-0.006 -0.0585,-0.0101 -0.03026,-0.004 -0.0585,-0.004 -0.08271,0 -0.155331,0.0464 -0.07262,0.0444 -0.117002,0.12709 -0.04236,0.0807 -0.04236,0.18963 v 0.57694 h -0.17752 v -1.08126 h 0.145244 l 0.02017,0.19769 h 0.0081 q 0.05245,-0.0888 0.135157,-0.15331 0.08271,-0.0646 0.195677,-0.0646 z"
         id="path7698" /><path
         d="m 71.105184,125.51825 q -0.201728,0 -0.322765,-0.13919 -0.121036,-0.14121 -0.121036,-0.4196 0,-0.27838 0.121036,-0.41959 0.123055,-0.14323 0.324783,-0.14323 0.125071,0 0.203745,0.0464 0.08069,0.0464 0.131123,0.11297 h 0.0121 q -0.002,-0.0262 -0.0081,-0.0767 -0.004,-0.0524 -0.004,-0.0827 v -0.4317 h 0.177521 v 1.53314 h -0.143227 l -0.02623,-0.14525 h -0.0081 q -0.04842,0.0686 -0.129106,0.11701 -0.08069,0.0484 -0.20778,0.0484 z m 0.02824,-0.14726 q 0.171469,0 0.240056,-0.0928 0.07061,-0.0948 0.07061,-0.28443 v -0.0323 q 0,-0.20173 -0.06657,-0.30864 -0.06657,-0.10894 -0.246108,-0.10894 -0.143227,0 -0.215849,0.11499 -0.07061,0.11297 -0.07061,0.30461 0,0.19366 0.07061,0.30057 0.07262,0.10692 0.217866,0.10692 z"
         id="path7700" /><path
         d="m 72.896529,124.39866 q 0.197693,0 0.292506,0.0867 0.09481,0.0867 0.09481,0.27637 v 0.73631 h -0.129106 l -0.03429,-0.15332 h -0.0081 q -0.07061,0.0888 -0.149279,0.13113 -0.07666,0.0424 -0.213832,0.0424 -0.147261,0 -0.24409,-0.0767 -0.09683,-0.0787 -0.09683,-0.24409 0,-0.16138 0.127089,-0.24812 0.127088,-0.0888 0.391352,-0.0968 l 0.183573,-0.006 v -0.0646 q 0,-0.13515 -0.0585,-0.1876 -0.0585,-0.0525 -0.165416,-0.0525 -0.08473,0 -0.161383,0.0262 -0.07666,0.0242 -0.143227,0.0565 l -0.05447,-0.13315 q 0.0706,-0.0383 0.167434,-0.0645 0.09683,-0.0282 0.201728,-0.0282 z m 0.05245,0.57694 q -0.201728,0.008 -0.280402,0.0645 -0.07666,0.0565 -0.07666,0.15937 0,0.0908 0.05447,0.13314 0.05648,0.0424 0.143227,0.0424 0.137175,0 0.227953,-0.0746 0.09078,-0.0767 0.09078,-0.234 v -0.0968 z"
         id="path7702" /><path
         d="m 73.971741,124.94534 q 0,0.24409 -0.07262,0.47003 -0.07061,0.22392 -0.223918,0.40144 h -0.165417 q 0.139192,-0.18963 0.209797,-0.41354 0.07262,-0.22594 0.07262,-0.45994 0,-0.24006 -0.07262,-0.46801 -0.07061,-0.22796 -0.211815,-0.41758 h 0.167435 q 0.153313,0.18357 0.223918,0.41354 0.07262,0.22795 0.07262,0.47406 z"
         id="path7704" /></g><path
       id="rect234-7-7-4-1-7-7-4-3-7-0-8-3-7-6-4"
       style="fill:#ffffff;stroke-width:0.145553"
       d="m 65.608865,127.08952 h 9.05457 c 0.43548,0 0.786065,0.35059 0.786065,0.78607 v 2.05371 c 0,0.43548 -0.350585,0.78607 -0.786065,0.78607 h -9.05457 c -0.43548,0 -0.786065,-0.35059 -0.786065,-0.78607 v -2.05371 c 0,-0.43548 0.350585,-0.78607 0.786065,-0.78607 z" /><g
       aria-label="Board b)"
       id="text1066-6-3-5-6-1-9-6-3-4-4-9"
       style="font-size:2.01728px;fill:#666666;stroke-width:0.686269"><path
         d="m 66.652306,128.06928 q 0.270316,0 0.407491,0.0807 0.139192,0.0787 0.139192,0.27636 0,0.12709 -0.07061,0.21182 -0.0706,0.0827 -0.203745,0.10691 v 0.0101 q 0.09078,0.0141 0.1634,0.0525 0.07464,0.0383 0.117002,0.10893 0.04236,0.0706 0.04236,0.18358 0,0.19567 -0.135158,0.30259 -0.13314,0.10691 -0.365128,0.10691 h -0.506337 v -1.44033 z m 0.03631,0.61325 q 0.18559,0 0.254178,-0.0585 0.06859,-0.0605 0.06859,-0.17752 0,-0.11902 -0.08473,-0.16946 -0.08271,-0.0524 -0.266281,-0.0524 h -0.238039 v 0.45792 z m -0.266281,0.15129 v 0.52248 h 0.290489 q 0.191641,0 0.266281,-0.0746 0.07464,-0.0746 0.07464,-0.19568 0,-0.11296 -0.07867,-0.18155 -0.07666,-0.0706 -0.276367,-0.0706 z"
         id="path7708" /><path
         d="m 68.467858,128.96696 q 0,0.2683 -0.137175,0.41556 -0.135158,0.14727 -0.367145,0.14727 -0.143227,0 -0.256195,-0.0646 -0.11095,-0.0666 -0.175503,-0.19164 -0.06455,-0.12709 -0.06455,-0.30663 0,-0.26829 0.135157,-0.41354 0.135158,-0.14524 0.367145,-0.14524 0.147262,0 0.258212,0.0666 0.112968,0.0645 0.175504,0.18962 0.06455,0.12306 0.06455,0.30259 z m -0.816999,0 q 0,0.19165 0.07464,0.30461 0.07666,0.11095 0.242074,0.11095 0.1634,0 0.240056,-0.11095 0.07666,-0.11296 0.07666,-0.30461 0,-0.19164 -0.07666,-0.30057 -0.07666,-0.10893 -0.242073,-0.10893 -0.165417,0 -0.240057,0.10893 -0.07464,0.10893 -0.07464,0.30057 z"
         id="path7710" /><path
         d="m 69.157767,128.4102 q 0.197693,0 0.292505,0.0867 0.09481,0.0867 0.09481,0.27637 v 0.7363 h -0.129106 l -0.03429,-0.15331 h -0.0081 q -0.0706,0.0888 -0.149278,0.13112 -0.07666,0.0424 -0.213832,0.0424 -0.147261,0 -0.244091,-0.0767 -0.09683,-0.0787 -0.09683,-0.24409 0,-0.16138 0.127088,-0.24813 0.127089,-0.0888 0.391353,-0.0968 l 0.183572,-0.006 v -0.0646 q 0,-0.13516 -0.0585,-0.18761 -0.0585,-0.0525 -0.165417,-0.0525 -0.08473,0 -0.161382,0.0262 -0.07666,0.0242 -0.143227,0.0565 l -0.05447,-0.13314 q 0.07061,-0.0383 0.167435,-0.0645 0.09683,-0.0282 0.201728,-0.0282 z m 0.05245,0.57694 q -0.201728,0.008 -0.280402,0.0645 -0.07666,0.0565 -0.07666,0.15937 0,0.0908 0.05447,0.13314 0.05648,0.0424 0.143227,0.0424 0.137175,0 0.227952,-0.0746 0.09078,-0.0767 0.09078,-0.234 v -0.0968 z"
         id="path7712" /><path
         d="m 70.384274,128.40818 q 0.03026,0 0.06455,0.004 0.03631,0.002 0.06254,0.008 l -0.02219,0.1634 q -0.02622,-0.006 -0.0585,-0.0101 -0.03026,-0.004 -0.0585,-0.004 -0.08271,0 -0.155331,0.0464 -0.07262,0.0444 -0.117002,0.12709 -0.04236,0.0807 -0.04236,0.18962 v 0.57694 H 69.87996 v -1.08126 h 0.145245 l 0.02017,0.19769 h 0.0081 q 0.05245,-0.0888 0.135157,-0.15331 0.08271,-0.0646 0.195676,-0.0646 z"
         id="path7714" /><path
         d="m 71.056028,129.52979 q -0.201728,0 -0.322765,-0.1392 -0.121037,-0.14121 -0.121037,-0.41959 0,-0.27839 0.121037,-0.4196 0.123054,-0.14322 0.324782,-0.14322 0.125072,0 0.203746,0.0464 0.08069,0.0464 0.131123,0.11296 h 0.0121 q -0.002,-0.0262 -0.0081,-0.0767 -0.004,-0.0524 -0.004,-0.0827 v -0.4317 h 0.17752 v 1.53313 h -0.143226 l -0.02622,-0.14524 h -0.0081 q -0.04842,0.0686 -0.129106,0.117 -0.08069,0.0484 -0.20778,0.0484 z m 0.02824,-0.14727 q 0.171469,0 0.240056,-0.0928 0.07061,-0.0948 0.07061,-0.28444 v -0.0323 q 0,-0.20173 -0.06657,-0.30865 -0.06657,-0.10893 -0.246108,-0.10893 -0.143227,0 -0.215849,0.11498 -0.07061,0.11297 -0.07061,0.30461 0,0.19366 0.07061,0.30058 0.07262,0.10691 0.217866,0.10691 z"
         id="path7716" /><path
         d="m 72.615386,128.34968 q 0,0.0686 -0.004,0.1291 -0.002,0.0585 -0.0061,0.0928 h 0.01009 q 0.0464,-0.0686 0.127088,-0.11499 0.08069,-0.0464 0.20778,-0.0464 0.201728,0 0.322765,0.1412 0.123054,0.1392 0.123054,0.41758 0,0.27839 -0.123054,0.4196 -0.123054,0.14121 -0.322765,0.14121 -0.127089,0 -0.20778,-0.0464 -0.08069,-0.0464 -0.127088,-0.11095 h -0.01412 l -0.03631,0.13717 h -0.127089 v -1.53313 h 0.177521 z m 0.304609,0.20778 q -0.171469,0 -0.238039,0.0988 -0.06657,0.0988 -0.06657,0.30663 v 0.008 q 0,0.19971 0.06455,0.30663 0.06657,0.10489 0.244091,0.10489 0.145245,0 0.215849,-0.10691 0.07262,-0.10692 0.07262,-0.30865 0,-0.4095 -0.292505,-0.4095 z"
         id="path7718" /><path
         d="m 74.031516,128.95688 q 0,0.24409 -0.07262,0.47002 -0.07061,0.22392 -0.223918,0.40144 h -0.165417 q 0.139192,-0.18962 0.209797,-0.41354 0.07262,-0.22593 0.07262,-0.45994 0,-0.24006 -0.07262,-0.46801 -0.07061,-0.22795 -0.211815,-0.41757 h 0.167435 q 0.153313,0.18357 0.223918,0.41354 0.07262,0.22795 0.07262,0.47406 z"
         id="path7720" /></g><g
       aria-label="App a)"
       id="text1066-6-3-5-6-3-4-3-0"
       style="font-size:2.01728px;stroke-width:0.686269"><path
         d="m 66.821815,121.7387 -0.173487,-0.44582 h -0.57089 l -0.171469,0.44582 h -0.183572 l 0.562821,-1.44639 h 0.1634 l 0.560804,1.44639 z m -0.389336,-1.04293 q -0.0061,-0.0161 -0.02017,-0.0585 -0.01412,-0.0424 -0.02824,-0.0867 -0.0121,-0.0464 -0.02017,-0.0706 -0.01412,0.0625 -0.03228,0.12305 -0.01815,0.0585 -0.03026,0.0928 l -0.163399,0.43573 h 0.455905 z"
         style="fill:#ffffff"
         id="path7723" /><path
         d="m 67.697314,120.63727 q 0.199711,0 0.320747,0.13919 0.123055,0.13919 0.123055,0.41959 0,0.27637 -0.123055,0.4196 -0.121036,0.14322 -0.322764,0.14322 -0.125072,0 -0.20778,-0.0464 -0.08069,-0.0484 -0.127089,-0.11095 h -0.0121 q 0.004,0.0343 0.0081,0.0867 0.004,0.0524 0.004,0.0908 v 0.4438 h -0.17752 v -1.56541 h 0.145244 l 0.02421,0.14726 h 0.0081 q 0.04842,-0.0706 0.127089,-0.11902 0.07867,-0.0484 0.209797,-0.0484 z m -0.03228,0.14927 q -0.165416,0 -0.234004,0.0928 -0.06657,0.0928 -0.07061,0.28242 v 0.0343 q 0,0.19971 0.06455,0.30865 0.06657,0.10691 0.244091,0.10691 0.09885,0 0.161382,-0.0545 0.06455,-0.0545 0.09481,-0.14727 0.03228,-0.0948 0.03228,-0.21584 0,-0.18559 -0.07262,-0.29654 -0.07061,-0.11096 -0.219884,-0.11096 z"
         style="fill:#ffffff"
         id="path7725" /><path
         d="m 68.937941,120.63727 q 0.199711,0 0.320747,0.13919 0.123055,0.13919 0.123055,0.41959 0,0.27637 -0.123055,0.4196 -0.121036,0.14322 -0.322764,0.14322 -0.125072,0 -0.20778,-0.0464 -0.08069,-0.0484 -0.127089,-0.11095 h -0.0121 q 0.004,0.0343 0.0081,0.0867 0.004,0.0524 0.004,0.0908 v 0.4438 h -0.177521 v -1.56541 h 0.145245 l 0.02421,0.14726 h 0.0081 q 0.04841,-0.0706 0.127089,-0.11902 0.07867,-0.0484 0.209797,-0.0484 z m -0.03228,0.14927 q -0.165417,0 -0.234004,0.0928 -0.06657,0.0928 -0.07061,0.28242 v 0.0343 q 0,0.19971 0.06455,0.30865 0.06657,0.10691 0.244091,0.10691 0.09885,0 0.161382,-0.0545 0.06455,-0.0545 0.09481,-0.14727 0.03228,-0.0948 0.03228,-0.21584 0,-0.18559 -0.07262,-0.29654 -0.07061,-0.11096 -0.219884,-0.11096 z"
         style="fill:#ffffff"
         id="path7727" /><path
         d="m 70.598162,120.63928 q 0.197694,0 0.292506,0.0867 0.09481,0.0867 0.09481,0.27636 v 0.73631 h -0.129106 l -0.03429,-0.15331 h -0.0081 q -0.0706,0.0888 -0.149278,0.13112 -0.07666,0.0424 -0.213832,0.0424 -0.147262,0 -0.244091,-0.0767 -0.09683,-0.0787 -0.09683,-0.24409 0,-0.16139 0.127088,-0.24813 0.127089,-0.0888 0.391353,-0.0968 l 0.183572,-0.006 v -0.0645 q 0,-0.13516 -0.0585,-0.18761 -0.0585,-0.0524 -0.165417,-0.0524 -0.08473,0 -0.161382,0.0262 -0.07666,0.0242 -0.143227,0.0565 L 70.229,120.73208 q 0.07061,-0.0383 0.167434,-0.0645 0.09683,-0.0282 0.201728,-0.0282 z m 0.05245,0.57695 q -0.201728,0.008 -0.280402,0.0645 -0.07666,0.0565 -0.07666,0.15936 0,0.0908 0.05447,0.13314 0.05648,0.0424 0.143227,0.0424 0.137175,0 0.227952,-0.0746 0.09078,-0.0767 0.09078,-0.23401 v -0.0968 z"
         style="fill:#ffffff"
         id="path7729" /><path
         d="m 71.673374,121.18597 q 0,0.24409 -0.07262,0.47002 -0.07061,0.22392 -0.223918,0.40144 h -0.165417 q 0.139192,-0.18962 0.209797,-0.41354 0.07262,-0.22594 0.07262,-0.45994 0,-0.24006 -0.07262,-0.46801 -0.07061,-0.22795 -0.211814,-0.41758 h 0.167434 q 0.153313,0.18358 0.223918,0.41355 0.07262,0.22795 0.07262,0.47406 z"
         style="fill:#ffffff"
         id="path7731" /></g><path
       id="rect234-7-7-4-1-7-7-4-3-5-7-5-0"
       style="fill:#37595f;stroke-width:0.236214"
       d="m 90.055279,123.97074 h 11.462891 c 0.5683,0 1.02582,0.45751 1.02582,1.02582 v 5.45734 c 0,0.5683 -0.45752,1.02582 -1.02582,1.02582 H 90.055279 c -0.568301,0 -1.025814,-0.45752 -1.025814,-1.02582 v -5.45734 c 0,-0.56831 0.457513,-1.02582 1.025814,-1.02582 z" /><path
       id="rect234-7-7-4-1-7-7-4-3-7-0-9-6-3"
       style="fill:#ffffff;stroke-width:0.145552"
       d="m 90.427621,127.07102 h 9.054571 c 0.43548,0 0.786068,0.35059 0.786068,0.78607 v 2.05371 c 0,0.43548 -0.350588,0.78607 -0.786068,0.78607 h -9.054571 c -0.43548,0 -0.786065,-0.35059 -0.786065,-0.78607 v -2.05371 c 0,-0.43548 0.350585,-0.78607 0.786065,-0.78607 z" /><g
       aria-label="Manifest"
       id="text1066-6-3-5-6-1-9-02-1-0"
       style="font-size:2.01728px;fill:#666666;stroke-width:0.686268"><path
         d="m 91.583011,129.64545 -0.47406,-1.26282 h -0.0081 q 0.0061,0.0625 0.01009,0.16945 0.004,0.1049 0.004,0.21988 v 0.87349 h -0.167435 v -1.44034 h 0.268299 l 0.443801,1.18011 h 0.0081 l 0.451871,-1.18011 h 0.266281 v 1.44034 H 92.20632 v -0.88559 q 0,-0.1049 0.004,-0.20778 0.0061,-0.10288 0.01009,-0.16743 h -0.0081 l -0.480113,1.2608 z"
         id="path7736" /><path
         d="m 93.162541,128.54603 q 0.197693,0 0.292506,0.0867 0.09481,0.0867 0.09481,0.27637 v 0.73631 h -0.129106 l -0.03429,-0.15332 h -0.0081 q -0.07061,0.0888 -0.149279,0.13113 -0.07666,0.0424 -0.213831,0.0424 -0.147262,0 -0.244091,-0.0767 -0.09683,-0.0787 -0.09683,-0.24409 0,-0.16138 0.127089,-0.24812 0.127088,-0.0888 0.391352,-0.0968 l 0.183573,-0.006 v -0.0646 q 0,-0.13516 -0.0585,-0.1876 -0.0585,-0.0525 -0.165417,-0.0525 -0.08473,0 -0.161383,0.0262 -0.07666,0.0242 -0.143227,0.0565 l -0.05447,-0.13314 q 0.07061,-0.0383 0.167434,-0.0645 0.09683,-0.0282 0.201728,-0.0282 z m 0.05245,0.57694 q -0.201728,0.008 -0.280402,0.0645 -0.07666,0.0565 -0.07666,0.15937 0,0.0908 0.05447,0.13314 0.05648,0.0424 0.143227,0.0424 0.137175,0 0.227953,-0.0746 0.09078,-0.0767 0.09078,-0.234 v -0.0968 z"
         id="path7738" /><path
         d="m 94.405187,128.54401 q 0.193659,0 0.292506,0.0948 0.09885,0.0928 0.09885,0.3026 v 0.70403 h -0.175504 v -0.69193 q 0,-0.26023 -0.242073,-0.26023 -0.179538,0 -0.248126,0.10086 -0.06859,0.10087 -0.06859,0.29049 v 0.56081 h -0.177521 v -1.08127 h 0.143227 l 0.02622,0.14727 h 0.01009 q 0.05245,-0.0847 0.145244,-0.12508 0.09279,-0.0424 0.195676,-0.0424 z"
         id="path7740" /><path
         d="m 95.222185,128.15871 q 0.04035,0 0.07061,0.0282 0.03228,0.0262 0.03228,0.0847 0,0.0565 -0.03228,0.0847 -0.03026,0.0282 -0.07061,0.0282 -0.04438,0 -0.07464,-0.0282 -0.03026,-0.0282 -0.03026,-0.0847 0,-0.0585 0.03026,-0.0847 0.03026,-0.0282 0.07464,-0.0282 z m 0.08674,0.40547 v 1.08127 h -0.17752 v -1.08127 z"
         id="path7742" /><path
         d="M 96.150133,128.70136 H 95.8778 v 0.94409 h -0.17752 v -0.94409 h -0.189625 v -0.0827 l 0.189625,-0.0605 v -0.0625 q 0,-0.2098 0.09279,-0.30058 0.09279,-0.0928 0.258212,-0.0928 0.06455,0 0.117002,0.0121 0.05447,0.0101 0.09279,0.0242 l -0.0464,0.13919 q -0.03228,-0.0101 -0.07464,-0.0202 -0.04236,-0.0101 -0.08674,-0.0101 -0.08876,0 -0.133141,0.0605 -0.04236,0.0585 -0.04236,0.18559 v 0.0706 h 0.272333 z"
         id="path7744" /><path
         d="m 96.763386,128.54401 q 0.139192,0 0.238039,0.0605 0.100864,0.0605 0.153313,0.17147 0.05447,0.10893 0.05447,0.25619 v 0.10692 h -0.740342 q 0.004,0.18357 0.09279,0.2804 0.09078,0.0948 0.25216,0.0948 0.102881,0 0.181555,-0.0181 0.08069,-0.0202 0.165417,-0.0565 v 0.15533 q -0.08271,0.0363 -0.163399,0.0524 -0.08069,0.0182 -0.191642,0.0182 -0.153313,0 -0.272333,-0.0625 -0.117002,-0.0625 -0.183572,-0.18559 -0.06455,-0.12507 -0.06455,-0.30461 0,-0.17752 0.0585,-0.3046 0.06052,-0.12709 0.167434,-0.19568 0.108933,-0.0686 0.25216,-0.0686 z m -0.002,0.14525 q -0.127089,0 -0.201728,0.0827 -0.07262,0.0807 -0.08674,0.22594 h 0.550717 q -0.002,-0.13718 -0.06455,-0.2219 -0.06253,-0.0867 -0.197693,-0.0867 z"
         id="path7746" /><path
         d="m 98.187584,129.34689 q 0,0.15735 -0.117002,0.23804 -0.117002,0.0807 -0.314696,0.0807 -0.112967,0 -0.195676,-0.0182 -0.08069,-0.0181 -0.143227,-0.0504 v -0.16138 q 0.06455,0.0323 0.155331,0.0605 0.09279,0.0262 0.187607,0.0262 0.135158,0 0.195676,-0.0424 0.06052,-0.0444 0.06052,-0.117 0,-0.0404 -0.02219,-0.0726 -0.02219,-0.0323 -0.08069,-0.0646 -0.05648,-0.0323 -0.1634,-0.0726 -0.104898,-0.0404 -0.179537,-0.0807 -0.07464,-0.0403 -0.114985,-0.0968 -0.04035,-0.0565 -0.04035,-0.14524 0,-0.13718 0.11095,-0.21182 0.112968,-0.0746 0.294523,-0.0746 0.09885,0 0.183573,0.0202 0.08674,0.0182 0.161382,0.0524 l -0.06052,0.14121 q -0.06859,-0.0282 -0.143227,-0.0484 -0.07464,-0.0202 -0.153313,-0.0202 -0.108934,0 -0.167435,0.0363 -0.05648,0.0343 -0.05648,0.0948 0,0.0444 0.02622,0.0767 0.02622,0.0303 0.08674,0.0605 0.06254,0.0283 0.165417,0.0686 0.102881,0.0383 0.175504,0.0787 0.07262,0.0403 0.11095,0.0988 0.03833,0.0565 0.03833,0.14323 z"
         id="path7748" /><path
         d="m 98.810924,129.52038 q 0.04035,0 0.08271,-0.006 0.04236,-0.008 0.06859,-0.0161 v 0.13515 q -0.02824,0.0141 -0.08069,0.0222 -0.05245,0.0101 -0.100864,0.0101 -0.08473,0 -0.157348,-0.0282 -0.07061,-0.0303 -0.114985,-0.10288 -0.04438,-0.0726 -0.04438,-0.20375 v -0.62939 h -0.153313 v -0.0847 l 0.15533,-0.0706 0.07061,-0.22997 h 0.104899 v 0.24812 h 0.312678 v 0.13718 h -0.312678 v 0.62536 q 0,0.0988 0.0464,0.14726 0.04841,0.0464 0.123054,0.0464 z"
         id="path7750" /></g><g
       aria-label="Zephyr"
       id="text1066-6-3-5-6-3-9-5-2"
       style="font-size:2.01728px;stroke-width:0.686268"><path
         d="m 93.518287,125.98184 h -0.998553 v -0.13717 l 0.758497,-1.14178 h -0.73429 v -0.16139 h 0.954174 v 0.13718 l -0.758498,1.14178 h 0.77867 z"
         style="fill:#ffffff"
         id="path7753" /><path
         d="m 94.186008,124.88041 q 0.139192,0 0.238039,0.0605 0.100864,0.0605 0.153313,0.17146 0.05447,0.10894 0.05447,0.2562 v 0.10691 h -0.740342 q 0.004,0.18358 0.09279,0.28041 0.09078,0.0948 0.25216,0.0948 0.102881,0 0.181555,-0.0182 0.08069,-0.0202 0.165417,-0.0565 v 0.15533 q -0.08271,0.0363 -0.163399,0.0525 -0.08069,0.0181 -0.191642,0.0181 -0.153313,0 -0.272333,-0.0625 -0.117002,-0.0625 -0.183572,-0.18559 -0.06455,-0.12507 -0.06455,-0.30461 0,-0.17752 0.0585,-0.30461 0.06052,-0.12709 0.167434,-0.19568 0.108933,-0.0686 0.25216,-0.0686 z m -0.002,0.14524 q -0.127089,0 -0.201728,0.0827 -0.07262,0.0807 -0.08674,0.22594 h 0.550717 q -0.002,-0.13718 -0.06455,-0.22191 -0.06254,-0.0867 -0.197693,-0.0867 z"
         style="fill:#ffffff"
         id="path7755" /><path
         d="m 95.420582,124.88041 q 0.199711,0 0.320747,0.13919 0.123054,0.13919 0.123054,0.41959 0,0.27637 -0.123054,0.4196 -0.121036,0.14322 -0.322764,0.14322 -0.125072,0 -0.20778,-0.0464 -0.08069,-0.0484 -0.127089,-0.11095 h -0.0121 q 0.004,0.0343 0.0081,0.0867 0.004,0.0525 0.004,0.0908 v 0.4438 h -0.177521 v -1.56541 h 0.145245 l 0.02421,0.14726 h 0.0081 q 0.04841,-0.0706 0.127089,-0.11902 0.07867,-0.0484 0.209797,-0.0484 z m -0.03228,0.14928 q -0.165417,0 -0.234004,0.0928 -0.06657,0.0928 -0.07061,0.28242 v 0.0343 q 0,0.19971 0.06455,0.30865 0.06657,0.10691 0.244091,0.10691 0.09885,0 0.161382,-0.0545 0.06455,-0.0545 0.09481,-0.14726 0.03228,-0.0948 0.03228,-0.21585 0,-0.18559 -0.07262,-0.29654 -0.07061,-0.11095 -0.219884,-0.11095 z"
         style="fill:#ffffff"
         id="path7757" /><path
         d="m 96.324323,124.89856 q 0,0.0807 -0.01009,0.1513 h 0.0121 q 0.05245,-0.0827 0.14121,-0.12507 0.09078,-0.0424 0.195676,-0.0424 0.197693,0 0.29654,0.0948 0.09885,0.0928 0.09885,0.30057 v 0.70403 h -0.175504 v -0.69193 q 0,-0.26022 -0.242073,-0.26022 -0.181555,0 -0.250143,0.10288 -0.06657,0.10086 -0.06657,0.29049 v 0.55878 h -0.177521 v -1.53313 h 0.177521 z"
         style="fill:#ffffff"
         id="path7759" /><path
         d="m 97.22403,124.90058 h 0.189624 l 0.234005,0.61527 q 0.03026,0.0807 0.05447,0.15533 0.02421,0.0726 0.03631,0.13919 h 0.0081 q 0.0121,-0.0504 0.03833,-0.13112 0.02622,-0.0827 0.05447,-0.16542 l 0.219884,-0.61325 h 0.191641 l -0.465991,1.23054 q -0.05648,0.15331 -0.147262,0.24409 -0.08876,0.0908 -0.246108,0.0908 -0.04842,0 -0.08473,-0.006 -0.03631,-0.004 -0.06253,-0.0101 v -0.14121 q 0.02219,0.004 0.05245,0.008 0.03228,0.004 0.06657,0.004 0.0928,0 0.149279,-0.0525 0.0585,-0.0524 0.09078,-0.1392 l 0.05648,-0.14322 z"
         style="fill:#ffffff"
         id="path7761" /><path
         d="m 98.926615,124.88041 q 0.03026,0 0.06455,0.004 0.03631,0.002 0.06253,0.008 l -0.02219,0.1634 q -0.02622,-0.006 -0.0585,-0.0101 -0.03026,-0.004 -0.0585,-0.004 -0.08271,0 -0.155331,0.0464 -0.07262,0.0444 -0.117002,0.12709 -0.04236,0.0807 -0.04236,0.18962 v 0.57694 h -0.17752 v -1.08126 h 0.145244 l 0.02017,0.19769 h 0.0081 q 0.05245,-0.0888 0.135158,-0.15331 0.08271,-0.0645 0.195676,-0.0645 z"
         style="fill:#ffffff"
         id="path7763" /></g><path
       id="rect2396-8-4-0"
       style="fill:#ffffff;fill-rule:evenodd;stroke:#808080;stroke-width:0.0727712px"
       d="m 99.896751,127.53997 h 2.443239 v 2.72226 h -2.443239 z" /><path
       id="rect3170-9-8-5"
       style="fill:#ffffff;fill-opacity:0.941176;fill-rule:evenodd;stroke:#808080;stroke-width:0.0737769px"
       inkscape:transform-center-x="0.99999999"
       inkscape:transform-center-y="-0.99999906"
       d="m 100.08803,127.87099 h 0.14801 v 0.14709 h -0.14801 z" /><path
       id="rect3172-7-1-9"
       style="fill:#ffffff;fill-opacity:0.941176;fill-rule:evenodd;stroke:#808080;stroke-width:0.0737769px"
       inkscape:transform-center-x="0.99999999"
       inkscape:transform-center-y="-0.99999906"
       d="m 100.08179,128.46089 h 0.14801 v 0.1471 h -0.14801 z" /><path
       id="rect3174-3-0-4"
       style="fill:#ffffff;fill-opacity:0.941176;fill-rule:evenodd;stroke:#808080;stroke-width:0.0737769px"
       inkscape:transform-center-x="0.99999999"
       inkscape:transform-center-y="-0.99999906"
       d="m 100.08179,129.04459 h 0.14801 v 0.14709 h -0.14801 z" /><path
       id="rect3176-6-3-6"
       style="fill:#ffffff;fill-rule:evenodd;stroke:#808080;stroke-width:0.0737769px"
       d="m 100.52477,127.87099 h 1.33213 v 0.14709 h -1.33213 z" /><path
       id="rect3178-1-0-9"
       style="fill:#ffffff;fill-rule:evenodd;stroke:#808080;stroke-width:0.0737769px"
       d="m 100.52135,128.46089 h 1.33212 v 0.1471 h -1.33212 z" /><path
       id="rect3180-2-4-2"
       style="fill:#ffffff;fill-rule:evenodd;stroke:#808080;stroke-width:0.0737769px"
       d="m 100.52888,129.05206 h 1.33212 v 0.1471 h -1.33212 z" /><path
       id="rect3182-9-4-2"
       style="fill:#ffffff;fill-rule:evenodd;stroke:#808080;stroke-width:0.0737769px"
       d="m 100.52888,129.34392 h 1.33212 v 0.14709 h -1.33212 z" /><path
       id="rect3184-3-4-4"
       style="fill:#ffffff;fill-rule:evenodd;stroke:#808080;stroke-width:0.0737769px"
       d="m 100.52888,128.16904 h 1.0361 v 0.14709 h -1.0361 z" /><path
       id="rect3186-1-4-7"
       style="fill:#ffffff;fill-rule:evenodd;stroke:#808080;stroke-width:0.0737769px"
       d="m 100.5263,128.75273 h 1.0361 v 0.1471 h -1.0361 z" /><path
       id="rect3188-9-7-7"
       style="fill:#ffffff;fill-rule:evenodd;stroke:#808080;stroke-width:0.0737769px"
       d="m 100.53383,129.63577 h 1.0361 v 0.1471 h -1.0361 z" /><path
       id="rect234-7-7-4-1-7-7-4-3-5-7-5-0-7"
       style="fill:#37595f;stroke-width:0.236214"
       d="m 50.730538,123.97073 h 11.462893 c 0.568301,0 1.025814,0.45752 1.025814,1.02582 v 5.45734 c 0,0.5683 -0.457513,1.02582 -1.025814,1.02582 H 50.730538 c -0.568301,0 -1.025815,-0.45752 -1.025815,-1.02582 v -5.45734 c 0,-0.5683 0.457514,-1.02582 1.025815,-1.02582 z" /><path
       id="rect234-7-7-4-1-7-7-4-3-7-0-9-6-3-5"
       style="fill:#ffffff;stroke-width:0.145552"
       d="m 51.10288,127.07101 h 9.054571 c 0.43548,0 0.786065,0.35058 0.786065,0.78606 v 2.05372 c 0,0.43548 -0.350585,0.78606 -0.786065,0.78606 H 51.10288 c -0.435481,0 -0.786066,-0.35058 -0.786066,-0.78606 v -2.05372 c 0,-0.43548 0.350585,-0.78606 0.786066,-0.78606 z" /><g
       aria-label="Manifest"
       id="text1066-6-3-5-6-1-9-02-1-0-6"
       style="font-size:2.01728px;fill:#666666;stroke-width:0.686268"><path
         d="m 52.25827,129.64545 -0.474061,-1.26282 h -0.0081 q 0.0061,0.0625 0.01009,0.16945 0.004,0.1049 0.004,0.21988 v 0.87349 h -0.167434 v -1.44034 h 0.268298 l 0.443802,1.18011 h 0.0081 l 0.451871,-1.18011 h 0.266281 v 1.44034 H 52.88161 v -0.88559 q 0,-0.1049 0.004,-0.20778 0.0061,-0.10288 0.01009,-0.16743 h -0.0081 l -0.480113,1.2608 z"
         id="path7779" /><path
         d="m 53.8378,128.54603 q 0.197693,0 0.292505,0.0867 0.09481,0.0867 0.09481,0.27637 v 0.73631 h -0.129106 l -0.03429,-0.15332 h -0.0081 q -0.07061,0.0888 -0.149279,0.13113 -0.07666,0.0424 -0.213832,0.0424 -0.147261,0 -0.244091,-0.0767 -0.09683,-0.0787 -0.09683,-0.24409 0,-0.16138 0.127088,-0.24812 0.127089,-0.0888 0.391353,-0.0968 l 0.183572,-0.006 v -0.0646 q 0,-0.13516 -0.0585,-0.1876 -0.0585,-0.0525 -0.165417,-0.0525 -0.08473,0 -0.161382,0.0262 -0.07666,0.0242 -0.143227,0.0565 l -0.05447,-0.13314 q 0.07061,-0.0383 0.167435,-0.0645 0.09683,-0.0282 0.201728,-0.0282 z m 0.05245,0.57694 q -0.201728,0.008 -0.280402,0.0645 -0.07666,0.0565 -0.07666,0.15937 0,0.0908 0.05447,0.13314 0.05648,0.0424 0.143227,0.0424 0.137175,0 0.227952,-0.0746 0.09078,-0.0767 0.09078,-0.234 v -0.0968 z"
         id="path7781" /><path
         d="m 55.080446,128.54401 q 0.193659,0 0.292505,0.0948 0.09885,0.0928 0.09885,0.3026 v 0.70403 h -0.175503 v -0.69193 q 0,-0.26023 -0.242074,-0.26023 -0.179538,0 -0.248125,0.10086 -0.06859,0.10087 -0.06859,0.29049 v 0.56081 h -0.17752 v -1.08127 h 0.143227 l 0.02622,0.14727 h 0.01009 q 0.05245,-0.0847 0.145244,-0.12508 0.09279,-0.0424 0.195676,-0.0424 z"
         id="path7783" /><path
         d="m 55.897444,128.15871 q 0.04035,0 0.07061,0.0282 0.03228,0.0262 0.03228,0.0847 0,0.0565 -0.03228,0.0847 -0.03026,0.0282 -0.07061,0.0282 -0.04438,0 -0.07464,-0.0282 -0.03026,-0.0282 -0.03026,-0.0847 0,-0.0585 0.03026,-0.0847 0.03026,-0.0282 0.07464,-0.0282 z m 0.08674,0.40547 v 1.08127 h -0.177521 v -1.08127 z"
         id="path7785" /><path
         d="m 56.825392,128.70136 h -0.272333 v 0.94409 h -0.177521 v -0.94409 h -0.189624 v -0.0827 l 0.189624,-0.0605 v -0.0625 q 0,-0.2098 0.0928,-0.30058 0.09279,-0.0928 0.258212,-0.0928 0.06455,0 0.117002,0.0121 0.05447,0.0101 0.0928,0.0242 l -0.0464,0.13919 q -0.03228,-0.0101 -0.07464,-0.0202 -0.04236,-0.0101 -0.08674,-0.0101 -0.08876,0 -0.13314,0.0605 -0.04236,0.0585 -0.04236,0.18559 v 0.0706 h 0.272333 z"
         id="path7787" /><path
         d="m 57.438645,128.54401 q 0.139192,0 0.238039,0.0605 0.100864,0.0605 0.153313,0.17147 0.05447,0.10893 0.05447,0.25619 v 0.10692 h -0.740342 q 0.004,0.18357 0.09279,0.2804 0.09078,0.0948 0.25216,0.0948 0.102881,0 0.181555,-0.0181 0.08069,-0.0202 0.165417,-0.0565 v 0.15533 q -0.08271,0.0363 -0.1634,0.0524 -0.08069,0.0182 -0.191641,0.0182 -0.153314,0 -0.272333,-0.0625 -0.117003,-0.0625 -0.183573,-0.18559 -0.06455,-0.12507 -0.06455,-0.30461 0,-0.17752 0.0585,-0.3046 0.06052,-0.12709 0.167435,-0.19568 0.108933,-0.0686 0.25216,-0.0686 z m -0.002,0.14525 q -0.127088,0 -0.201728,0.0827 -0.07262,0.0807 -0.08674,0.22594 h 0.550718 q -0.002,-0.13718 -0.06455,-0.2219 -0.06254,-0.0867 -0.197694,-0.0867 z"
         id="path7789" /><path
         d="m 58.862843,129.34689 q 0,0.15735 -0.117002,0.23804 -0.117003,0.0807 -0.314696,0.0807 -0.112968,0 -0.195676,-0.0182 -0.08069,-0.0181 -0.143227,-0.0504 v -0.16138 q 0.06455,0.0323 0.15533,0.0605 0.0928,0.0262 0.187607,0.0262 0.135158,0 0.195677,-0.0424 0.06052,-0.0444 0.06052,-0.117 0,-0.0404 -0.02219,-0.0726 -0.02219,-0.0323 -0.08069,-0.0646 -0.05648,-0.0323 -0.1634,-0.0726 -0.104898,-0.0404 -0.179538,-0.0807 -0.07464,-0.0403 -0.114985,-0.0968 -0.04035,-0.0565 -0.04035,-0.14524 0,-0.13718 0.11095,-0.21182 0.112968,-0.0746 0.294523,-0.0746 0.09885,0 0.183572,0.0202 0.08674,0.0182 0.161383,0.0524 l -0.06052,0.14121 q -0.06859,-0.0282 -0.143226,-0.0484 -0.07464,-0.0202 -0.153314,-0.0202 -0.108933,0 -0.167434,0.0363 -0.05648,0.0343 -0.05648,0.0948 0,0.0444 0.02623,0.0767 0.02622,0.0303 0.08674,0.0605 0.06253,0.0283 0.165417,0.0686 0.102881,0.0383 0.175503,0.0787 0.07262,0.0403 0.110951,0.0988 0.03833,0.0565 0.03833,0.14323 z"
         id="path7791" /><path
         d="m 59.486183,129.52038 q 0.04035,0 0.08271,-0.006 0.04236,-0.008 0.06859,-0.0161 v 0.13515 q -0.02824,0.0141 -0.08069,0.0222 -0.05245,0.0101 -0.100864,0.0101 -0.08473,0 -0.157348,-0.0282 -0.07061,-0.0303 -0.114985,-0.10288 -0.04438,-0.0726 -0.04438,-0.20375 v -0.62939 h -0.153314 v -0.0847 l 0.155331,-0.0706 0.07061,-0.22997 h 0.104898 v 0.24812 h 0.312679 v 0.13718 h -0.312679 v 0.62536 q 0,0.0988 0.0464,0.14726 0.04841,0.0464 0.123054,0.0464 z"
         id="path7793" /></g><g
       aria-label="Manifest Repo"
       id="text1066-6-3-5-6-3-9-5-2-8"
       style="font-size:1.83022px;stroke-width:0.686268"><path
         d="m 51.257789,125.98184 -0.430102,-1.14572 h -0.0073 q 0.0055,0.0567 0.0092,0.15374 0.0037,0.0952 0.0037,0.1995 v 0.79248 H 50.68127 v -1.30678 h 0.243419 l 0.402648,1.07068 h 0.0073 l 0.40997,-1.07068 h 0.241589 v 1.30678 h -0.16289 v -0.80346 q 0,-0.0952 0.0037,-0.18852 0.0055,-0.0933 0.0092,-0.15191 h -0.0073 l -0.435593,1.14389 z"
         style="fill:#ffffff"
         id="path7796" /><path
         d="m 52.690851,124.98437 q 0.179361,0 0.265381,0.0787 0.08602,0.0787 0.08602,0.25074 v 0.66803 h -0.117134 l -0.03111,-0.13909 h -0.0073 q -0.06406,0.0805 -0.135436,0.11896 -0.06955,0.0384 -0.194004,0.0384 -0.133606,0 -0.221456,-0.0695 -0.08785,-0.0714 -0.08785,-0.22146 0,-0.14642 0.115304,-0.22512 0.115304,-0.0805 0.355063,-0.0879 l 0.16655,-0.005 v -0.0586 q 0,-0.12262 -0.05308,-0.17021 -0.05308,-0.0476 -0.150078,-0.0476 -0.07687,0 -0.146417,0.0238 -0.06955,0.022 -0.129946,0.0512 l -0.04942,-0.1208 q 0.06406,-0.0348 0.151909,-0.0586 0.08785,-0.0256 0.183022,-0.0256 z m 0.04758,0.52345 q -0.183022,0.007 -0.2544,0.0586 -0.06955,0.0513 -0.06955,0.14459 0,0.0824 0.04942,0.12079 0.05125,0.0384 0.129946,0.0384 0.124455,0 0.206815,-0.0677 0.08236,-0.0696 0.08236,-0.21231 v -0.0879 z"
         style="fill:#ffffff"
         id="path7798" /><path
         d="m 53.818268,124.98254 q 0.175701,0 0.265382,0.086 0.08968,0.0842 0.08968,0.27454 v 0.63874 h -0.159229 v -0.62776 q 0,-0.2361 -0.219626,-0.2361 -0.16289,0 -0.225117,0.0915 -0.06223,0.0915 -0.06223,0.26355 v 0.5088 h -0.161059 v -0.981 h 0.129945 l 0.02379,0.13361 h 0.0092 q 0.04759,-0.0769 0.131776,-0.11347 0.08419,-0.0384 0.177532,-0.0384 z"
         style="fill:#ffffff"
         id="path7800" /><path
         d="m 54.559507,124.63297 q 0.0366,0 0.06406,0.0256 0.02928,0.0238 0.02928,0.0769 0,0.0512 -0.02928,0.0769 -0.02745,0.0256 -0.06406,0.0256 -0.04027,0 -0.06772,-0.0256 -0.02745,-0.0256 -0.02745,-0.0769 0,-0.0531 0.02745,-0.0769 0.02745,-0.0256 0.06772,-0.0256 z m 0.0787,0.36787 v 0.981 h -0.161059 v -0.981 z"
         style="fill:#ffffff"
         id="path7802" /><path
         d="m 55.401407,125.1253 h -0.24708 v 0.85654 h -0.161059 v -0.85654 h -0.172041 v -0.075 l 0.172041,-0.0549 v -0.0567 q 0,-0.19035 0.08419,-0.27271 0.08419,-0.0842 0.234268,-0.0842 0.05857,0 0.106153,0.011 0.04942,0.009 0.08419,0.022 l -0.04209,0.12628 q -0.02928,-0.009 -0.06772,-0.0183 -0.03843,-0.009 -0.0787,-0.009 -0.08053,0 -0.120794,0.0549 -0.03843,0.0531 -0.03843,0.16838 v 0.064 h 0.24708 z"
         style="fill:#ffffff"
         id="path7804" /><path
         d="m 55.957794,124.98254 q 0.126285,0 0.215966,0.0549 0.09151,0.0549 0.139096,0.15557 0.04942,0.0988 0.04942,0.23244 v 0.097 h -0.67169 q 0.0037,0.16655 0.08419,0.2544 0.08236,0.086 0.228777,0.086 0.09334,0 0.16472,-0.0165 0.07321,-0.0183 0.150078,-0.0513 v 0.14093 q -0.07504,0.0329 -0.148248,0.0476 -0.07321,0.0165 -0.173871,0.0165 -0.139096,0 -0.247079,-0.0567 -0.106153,-0.0567 -0.16655,-0.16838 -0.05857,-0.11348 -0.05857,-0.27637 0,-0.16106 0.05308,-0.27636 0.05491,-0.1153 0.151908,-0.17753 0.09883,-0.0622 0.228778,-0.0622 z m -0.0018,0.13178 q -0.115303,0 -0.183022,0.075 -0.06589,0.0732 -0.0787,0.20498 h 0.49965 q -0.0018,-0.12445 -0.05857,-0.20132 -0.05674,-0.0787 -0.179362,-0.0787 z"
         style="fill:#ffffff"
         id="path7806" /><path
         d="m 57.249927,125.71097 q 0,0.14276 -0.106153,0.21597 -0.106152,0.0732 -0.285514,0.0732 -0.102492,0 -0.177531,-0.0165 -0.07321,-0.0165 -0.129946,-0.0457 v -0.14642 q 0.05857,0.0293 0.140927,0.0549 0.08419,0.0238 0.170211,0.0238 0.122624,0 0.177531,-0.0384 0.05491,-0.0403 0.05491,-0.10615 0,-0.0366 -0.02013,-0.0659 -0.02013,-0.0293 -0.07321,-0.0586 -0.05125,-0.0293 -0.148248,-0.0659 -0.09517,-0.0366 -0.162889,-0.0732 -0.06772,-0.0366 -0.104323,-0.0878 -0.0366,-0.0513 -0.0366,-0.13178 0,-0.12445 0.100662,-0.19217 0.102492,-0.0677 0.267212,-0.0677 0.08968,0 0.16655,0.0183 0.0787,0.0165 0.146418,0.0476 l -0.05491,0.12812 q -0.06223,-0.0256 -0.129945,-0.0439 -0.06772,-0.0183 -0.139097,-0.0183 -0.09883,0 -0.151908,0.0329 -0.05125,0.0311 -0.05125,0.086 0,0.0403 0.02379,0.0696 0.02379,0.0275 0.0787,0.0549 0.05674,0.0256 0.150078,0.0622 0.09334,0.0348 0.159229,0.0714 0.06589,0.0366 0.100662,0.0897 0.03477,0.0513 0.03477,0.12995 z"
         style="fill:#ffffff"
         id="path7808" /><path
         d="m 57.815465,125.86837 q 0.0366,0 0.07504,-0.005 0.03843,-0.007 0.06223,-0.0146 v 0.12262 q -0.02562,0.0128 -0.07321,0.0201 -0.04759,0.009 -0.09151,0.009 -0.07687,0 -0.142757,-0.0256 -0.06406,-0.0275 -0.104323,-0.0933 -0.04026,-0.0659 -0.04026,-0.18485 v -0.57103 h -0.139097 v -0.0769 l 0.140927,-0.0641 0.06406,-0.20864 h 0.09517 v 0.22511 h 0.283684 v 0.12446 h -0.283684 v 0.56737 q 0,0.0897 0.0421,0.1336 0.04392,0.0421 0.111643,0.0421 z"
         style="fill:#ffffff"
         id="path7810" /><path
         d="m 59.006939,124.67506 q 0.243419,0 0.358723,0.0934 0.117134,0.0915 0.117134,0.27819 0,0.10432 -0.03843,0.17387 -0.03843,0.0695 -0.09883,0.11164 -0.05857,0.0403 -0.124455,0.0641 l 0.358723,0.58567 h -0.192173 l -0.316628,-0.53991 h -0.259891 v 0.53991 h -0.16472 v -1.30678 z m -0.0092,0.14276 h -0.186682 v 0.48501 h 0.195833 q 0.159229,0 0.232438,-0.0622 0.07321,-0.064 0.07321,-0.18668 0,-0.12811 -0.07687,-0.18119 -0.07687,-0.0549 -0.237929,-0.0549 z"
         style="fill:#ffffff"
         id="path7812" /><path
         d="m 60.141675,124.98254 q 0.126286,0 0.215966,0.0549 0.09151,0.0549 0.139097,0.15557 0.04942,0.0988 0.04942,0.23244 v 0.097 h -0.671691 q 0.0037,0.16655 0.08419,0.2544 0.08236,0.086 0.228778,0.086 0.09334,0 0.16472,-0.0165 0.07321,-0.0183 0.150078,-0.0513 v 0.14093 q -0.07504,0.0329 -0.148248,0.0476 -0.07321,0.0165 -0.173871,0.0165 -0.139097,0 -0.24708,-0.0567 -0.106152,-0.0567 -0.16655,-0.16838 -0.05857,-0.11348 -0.05857,-0.27637 0,-0.16106 0.05308,-0.27636 0.05491,-0.1153 0.151908,-0.17753 0.09883,-0.0622 0.228777,-0.0622 z m -0.0018,0.13178 q -0.115304,0 -0.183022,0.075 -0.06589,0.0732 -0.0787,0.20498 h 0.49965 q -0.0018,-0.12445 -0.05857,-0.20132 -0.05674,-0.0787 -0.179362,-0.0787 z"
         style="fill:#ffffff"
         id="path7814" /><path
         d="m 61.261768,124.98254 q 0.181192,0 0.291005,0.12629 0.111643,0.12628 0.111643,0.38068 0,0.25074 -0.111643,0.38069 -0.109813,0.12994 -0.292835,0.12994 -0.113474,0 -0.188513,-0.0421 -0.07321,-0.0439 -0.115304,-0.10066 h -0.01098 q 0.0037,0.0311 0.0073,0.0787 0.0037,0.0476 0.0037,0.0824 v 0.40264 h -0.161059 v -1.42025 h 0.131776 l 0.02196,0.13361 h 0.0073 q 0.04392,-0.0641 0.115304,-0.10798 0.07138,-0.0439 0.190343,-0.0439 z m -0.02928,0.13544 q -0.150078,0 -0.212305,0.0842 -0.0604,0.0842 -0.06406,0.25623 v 0.0311 q 0,0.18119 0.05857,0.28003 0.0604,0.097 0.221457,0.097 0.08968,0 0.146417,-0.0494 0.05857,-0.0494 0.08602,-0.1336 0.02928,-0.086 0.02928,-0.19584 0,-0.16838 -0.06589,-0.26904 -0.06406,-0.10066 -0.199494,-0.10066 z"
         style="fill:#ffffff"
         id="path7816" /><path
         d="m 62.77353,125.48951 q 0,0.24342 -0.124455,0.37703 -0.122625,0.1336 -0.3331,0.1336 -0.129946,0 -0.232438,-0.0586 -0.100662,-0.0604 -0.159229,-0.17387 -0.05857,-0.11531 -0.05857,-0.2782 0,-0.24342 0.122624,-0.37519 0.122625,-0.13178 0.3331,-0.13178 0.133606,0 0.234269,0.0604 0.102492,0.0586 0.159229,0.17204 0.05857,0.11164 0.05857,0.27453 z m -0.741239,0 q 0,0.17387 0.06772,0.27637 0.06955,0.10066 0.219626,0.10066 0.148248,0 0.217796,-0.10066 0.06955,-0.1025 0.06955,-0.27637 0,-0.17387 -0.06955,-0.2727 -0.06955,-0.0988 -0.219626,-0.0988 -0.150078,0 -0.217796,0.0988 -0.06772,0.0988 -0.06772,0.2727 z"
         style="fill:#ffffff"
         id="path7818" /></g><path
       id="rect2396-8-4-0-8"
       style="fill:#ffffff;fill-rule:evenodd;stroke:#808080;stroke-width:0.0727712px"
       d="m 60.57201,127.53997 h 2.443242 v 2.72226 H 60.57201 Z" /><path
       id="rect3170-9-8-5-2"
       style="fill:#ffffff;fill-opacity:0.941176;fill-rule:evenodd;stroke:#808080;stroke-width:0.0737769px"
       inkscape:transform-center-x="0.99999999"
       inkscape:transform-center-y="-0.99999906"
       d="m 60.763283,127.87099 h 0.148014 v 0.14709 h -0.148014 z" /><path
       id="rect3172-7-1-9-9"
       style="fill:#ffffff;fill-opacity:0.941176;fill-rule:evenodd;stroke:#808080;stroke-width:0.0737769px"
       inkscape:transform-center-x="0.99999999"
       inkscape:transform-center-y="-0.99999906"
       d="m 60.757046,128.46089 h 0.148014 v 0.1471 h -0.148014 z" /><path
       id="rect3174-3-0-4-96"
       style="fill:#ffffff;fill-opacity:0.941176;fill-rule:evenodd;stroke:#808080;stroke-width:0.0737769px"
       inkscape:transform-center-x="0.99999999"
       inkscape:transform-center-y="-0.99999906"
       d="m 60.757046,129.04459 h 0.148014 v 0.14709 h -0.148014 z" /><path
       id="rect3176-6-3-6-0"
       style="fill:#ffffff;fill-rule:evenodd;stroke:#808080;stroke-width:0.0737769px"
       d="m 61.200027,127.87099 h 1.332128 v 0.14709 h -1.332128 z" /><path
       id="rect3178-1-0-9-2"
       style="fill:#ffffff;fill-rule:evenodd;stroke:#808080;stroke-width:0.0737769px"
       d="m 61.196613,128.46089 h 1.332127 v 0.1471 h -1.332127 z" /><path
       id="rect3180-2-4-2-7"
       style="fill:#ffffff;fill-rule:evenodd;stroke:#808080;stroke-width:0.0737769px"
       d="m 61.204144,129.05206 h 1.332127 v 0.1471 h -1.332127 z" /><path
       id="rect3182-9-4-2-6"
       style="fill:#ffffff;fill-rule:evenodd;stroke:#808080;stroke-width:0.0737769px"
       d="m 61.204144,129.34392 h 1.332127 v 0.14709 h -1.332127 z" /><path
       id="rect3184-3-4-4-1"
       style="fill:#ffffff;fill-rule:evenodd;stroke:#808080;stroke-width:0.0737769px"
       d="m 61.204144,128.16904 h 1.036098 v 0.14709 h -1.036098 z" /><path
       id="rect3186-1-4-7-3"
       style="fill:#ffffff;fill-rule:evenodd;stroke:#808080;stroke-width:0.0737769px"
       d="m 61.201553,128.75273 h 1.036099 v 0.1471 h -1.036099 z" /><path
       id="rect3188-9-7-7-2"
       style="fill:#ffffff;fill-rule:evenodd;stroke:#808080;stroke-width:0.0737769px"
       d="m 61.209084,129.63577 h 1.036098 v 0.1471 h -1.036098 z" /><path
       id="rect234-7-7-4-1-7-7-4-3-5-7-7-1-8"
       style="fill:#37595f;stroke-width:0.160633"
       d="m 104.81597,128.00722 h 11.8654 c 0.45681,0 0.82456,0.36775 0.82456,0.82455 v 1.82339 c 0,0.4568 -0.36775,0.82455 -0.82456,0.82455 h -11.8654 c -0.45681,0 -0.82456,-0.36775 -0.82456,-0.82455 v -1.82339 c 0,-0.4568 0.36775,-0.82455 0.82456,-0.82455 z" /><g
       aria-label="Modules"
       id="text1066-6-3-5-6-3-9-0-7-1"
       style="font-size:2.01728px;stroke-width:0.686268"><path
         d="m 107.44638,130.49994 -0.47406,-1.26282 h -0.008 q 0.006,0.0625 0.0101,0.16945 0.004,0.1049 0.004,0.21989 v 0.87348 h -0.16744 v -1.44034 h 0.2683 l 0.4438,1.18011 h 0.008 l 0.45187,-1.18011 h 0.26628 v 1.44034 h -0.17953 v -0.88559 q 0,-0.1049 0.004,-0.20778 0.006,-0.10288 0.0101,-0.16743 h -0.008 l -0.48011,1.2608 z"
         style="fill:#ffffff"
         id="path7833" /><path
         d="m 109.55645,129.95729 q 0,0.2683 -0.13717,0.41556 -0.13516,0.14726 -0.36715,0.14726 -0.14323,0 -0.25619,-0.0645 -0.11095,-0.0666 -0.17551,-0.19164 -0.0645,-0.12709 -0.0645,-0.30663 0,-0.2683 0.13516,-0.41354 0.13516,-0.14525 0.36714,-0.14525 0.14726,0 0.25821,0.0666 0.11297,0.0646 0.17551,0.18963 0.0645,0.12305 0.0645,0.30259 z m -0.817,0 q 0,0.19164 0.0746,0.30461 0.0767,0.11095 0.24208,0.11095 0.1634,0 0.24005,-0.11095 0.0767,-0.11297 0.0767,-0.30461 0,-0.19164 -0.0767,-0.30057 -0.0767,-0.10894 -0.24207,-0.10894 -0.16542,0 -0.24006,0.10894 -0.0746,0.10893 -0.0746,0.30057 z"
         style="fill:#ffffff"
         id="path7835" /><path
         d="m 110.22013,130.52011 q -0.20172,0 -0.32276,-0.13919 -0.12104,-0.14121 -0.12104,-0.41959 0,-0.27839 0.12104,-0.4196 0.12305,-0.14323 0.32478,-0.14323 0.12507,0 0.20375,0.0464 0.0807,0.0464 0.13112,0.11297 h 0.0121 q -0.002,-0.0262 -0.008,-0.0767 -0.004,-0.0524 -0.004,-0.0827 v -0.43169 h 0.17752 v 1.53313 h -0.14323 l -0.0262,-0.14525 h -0.008 q -0.0484,0.0686 -0.12911,0.11701 -0.0807,0.0484 -0.20778,0.0484 z m 0.0282,-0.14726 q 0.17147,0 0.24005,-0.0928 0.0706,-0.0948 0.0706,-0.28444 v -0.0323 q 0,-0.20173 -0.0666,-0.30864 -0.0666,-0.10893 -0.24611,-0.10893 -0.14323,0 -0.21585,0.11498 -0.0706,0.11297 -0.0706,0.30461 0,0.19366 0.0706,0.30057 0.0726,0.10692 0.21787,0.10692 z"
         style="fill:#ffffff"
         id="path7837" /><path
         d="m 111.98122,129.41868 v 1.08126 h -0.14524 l -0.0262,-0.14323 h -0.008 q -0.0525,0.0847 -0.14524,0.12507 -0.0928,0.0383 -0.1977,0.0383 -0.19567,0 -0.29452,-0.0928 -0.0988,-0.0948 -0.0988,-0.30058 v -0.70806 h 0.17954 v 0.69596 q 0,0.25821 0.24006,0.25821 0.17954,0 0.24812,-0.10086 0.0706,-0.10087 0.0706,-0.29049 v -0.56282 z"
         style="fill:#ffffff"
         id="path7839" /><path
         d="m 112.50168,130.49994 h -0.17752 v -1.53313 h 0.17752 z"
         style="fill:#ffffff"
         id="path7841" /><path
         d="m 113.26219,129.3985 q 0.13919,0 0.23804,0.0605 0.10087,0.0605 0.15331,0.17147 0.0545,0.10893 0.0545,0.2562 v 0.10691 h -0.74034 q 0.004,0.18357 0.0928,0.2804 0.0908,0.0948 0.25216,0.0948 0.10289,0 0.18156,-0.0182 0.0807,-0.0202 0.16542,-0.0565 v 0.15533 q -0.0827,0.0363 -0.1634,0.0524 -0.0807,0.0181 -0.19165,0.0181 -0.15331,0 -0.27233,-0.0625 -0.117,-0.0625 -0.18357,-0.18559 -0.0646,-0.12508 -0.0646,-0.30461 0,-0.17752 0.0585,-0.30461 0.0605,-0.12709 0.16743,-0.19568 0.10894,-0.0686 0.25216,-0.0686 z m -0.002,0.14525 q -0.12708,0 -0.20172,0.0827 -0.0726,0.0807 -0.0867,0.22593 h 0.55072 q -0.002,-0.13717 -0.0645,-0.2219 -0.0625,-0.0867 -0.1977,-0.0867 z"
         style="fill:#ffffff"
         id="path7843" /><path
         d="m 114.68639,130.20138 q 0,0.15735 -0.117,0.23804 -0.117,0.0807 -0.3147,0.0807 -0.11297,0 -0.19567,-0.0181 -0.0807,-0.0182 -0.14323,-0.0504 v -0.16138 q 0.0645,0.0323 0.15533,0.0605 0.0928,0.0262 0.18761,0.0262 0.13515,0 0.19567,-0.0424 0.0605,-0.0444 0.0605,-0.117 0,-0.0404 -0.0222,-0.0726 -0.0222,-0.0323 -0.0807,-0.0646 -0.0565,-0.0323 -0.1634,-0.0726 -0.1049,-0.0403 -0.17954,-0.0807 -0.0746,-0.0403 -0.11498,-0.0968 -0.0404,-0.0565 -0.0404,-0.14524 0,-0.13718 0.11095,-0.21182 0.11297,-0.0746 0.29452,-0.0746 0.0989,0 0.18358,0.0202 0.0867,0.0181 0.16138,0.0524 l -0.0605,0.14121 q -0.0686,-0.0282 -0.14323,-0.0484 -0.0746,-0.0202 -0.15331,-0.0202 -0.10893,0 -0.16743,0.0363 -0.0565,0.0343 -0.0565,0.0948 0,0.0444 0.0262,0.0767 0.0262,0.0303 0.0867,0.0605 0.0625,0.0282 0.16542,0.0686 0.10288,0.0383 0.1755,0.0787 0.0726,0.0403 0.11095,0.0988 0.0383,0.0565 0.0383,0.14323 z"
         style="fill:#ffffff"
         id="path7845" /></g><path
       style="fill:none;stroke:#303030;stroke-width:0.194197;stroke-dasharray:0.194197, 0.194197;stroke-dashoffset:0;stroke-opacity:1;marker-end:url(#TriangleStart-1-8)"
       d="m 101.09883,127.51592 c -0.0357,-1.97689 1.76191,-4.27177 4.89776,-4.53041 2.97616,-0.32119 4.40272,2.62025 4.39449,4.34764"
       id="path2641-96-8"
       sodipodi:nodetypes="ccc" /><path
       style="fill:none;stroke:#303030;stroke-width:0.194197;stroke-dasharray:none;stroke-opacity:1;marker-end:url(#TriangleStart-7-7-9-3)"
       d="m 62.505588,127.40548 c 0.268152,-2.96102 1.556551,-6.87939 8.203329,-9.41759 5.527722,-2.539 22.90098,-3.58888 31.336993,0.2508 5.67947,2.70397 8.30845,6.69851 8.37267,9.07138"
       id="path2641-5-2-9-8"
       sodipodi:nodetypes="cccc" /><path
       style="fill:none;stroke:#303030;stroke-width:0.194197;stroke-dasharray:none;stroke-opacity:1;marker-end:url(#TriangleStart-1)"
       d="m 62.420873,127.42722 c 0.268151,-2.96102 1.898745,-7.03945 8.545523,-9.57766 5.182182,-1.83685 11.577652,-0.7115 11.688017,1.323 m 13.02058,4.26661 c -0.0027,-3.8134 -5.161168,-7.43476 -11.444325,-7.65834 -4.725495,-0.16824 -9.47507,0.77696 -13.242341,2.05675 -6.646778,2.53821 -8.213221,6.66782 -8.481373,9.62885 0,0 0.340308,-3.85977 2.19811,-5.4621 1.599171,-1.99759 5.759322,-4.66435 5.768742,-2.91582"
       id="path2641-5-2-9-8-0"
       sodipodi:nodetypes="ccscccccc" /><path
       style="fill:#4d4d4d;stroke:#303030;stroke-width:0.247049;stroke-dasharray:0.247049, 0.247049;stroke-dashoffset:0;stroke-opacity:1;marker-end:url(#TriangleStart-1)"
       d="m 82.34448,118.93391 c 0.334996,-0.0222 0.339413,1.7e-4 0.339413,1.7e-4"
       id="path12441" /><path
       style="fill:#4d4d4d;stroke:#303030;stroke-width:0.247049;stroke-dasharray:0.247049, 0.247049;stroke-dashoffset:0;stroke-opacity:1;marker-end:url(#TriangleStart-1-4)"
       d="m 95.824353,122.85359 c -0.191882,0.27546 -0.212165,0.26493 -0.212165,0.26493"
       id="path12441-0" /></g></svg>
