<?xml version="1.0" encoding="UTF-8" standalone="no"?>
<!-- Created with Inkscape (http://www.inkscape.org/) -->

<svg
   width="59.424068mm"
   height="18.317333mm"
   viewBox="0 0 59.424066 18.317333"
   version="1.1"
   id="svg5"
   inkscape:version="1.2.2 (b0a8486541, 2022-12-01)"
   sodipodi:docname="application_topologies.svg"
   xml:space="preserve"
   inkscape:export-filename="application_topologies_4.png"
   inkscape:export-xdpi="600"
   inkscape:export-ydpi="600"
   xmlns:inkscape="http://www.inkscape.org/namespaces/inkscape"
   xmlns:sodipodi="http://sodipodi.sourceforge.net/DTD/sodipodi-0.dtd"
   xmlns="http://www.w3.org/2000/svg"
   xmlns:svg="http://www.w3.org/2000/svg"><sodipodi:namedview
     id="namedview7"
     pagecolor="#ffffff"
     bordercolor="#999999"
     borderopacity="1"
     inkscape:showpageshadow="0"
     inkscape:pageopacity="0"
     inkscape:pagecheckerboard="0"
     inkscape:deskcolor="#d1d1d1"
     inkscape:document-units="mm"
     showgrid="false"
     inkscape:zoom="2"
     inkscape:cx="-283.75"
     inkscape:cy="20"
     inkscape:window-width="3840"
     inkscape:window-height="2076"
     inkscape:window-x="0"
     inkscape:window-y="0"
     inkscape:window-maximized="1"
     inkscape:current-layer="layer1" /><defs
     id="defs2"><marker
       style="overflow:visible"
       id="TriangleStart-1-8-0"
       refX="0"
       refY="0"
       orient="auto-start-reverse"
       inkscape:stockid="TriangleStart"
       markerWidth="5.3244081"
       markerHeight="6.155385"
       viewBox="0 0 5.3244081 6.1553851"
       inkscape:isstock="true"
       inkscape:collect="always"
       preserveAspectRatio="xMidYMid"><path
         transform="scale(0.5)"
         style="fill:context-stroke;fill-rule:evenodd;stroke:context-stroke;stroke-width:1pt"
         d="M 5.77,0 -2.88,5 V -5 Z"
         id="path135-59-5-2" /></marker><marker
       style="overflow:visible"
       id="TriangleStart-7-7-9-1"
       refX="0"
       refY="0"
       orient="auto-start-reverse"
       inkscape:stockid="TriangleStart"
       markerWidth="5.3244081"
       markerHeight="6.155385"
       viewBox="0 0 5.3244081 6.1553851"
       inkscape:isstock="true"
       inkscape:collect="always"
       preserveAspectRatio="xMidYMid"><path
         transform="scale(0.5)"
         style="fill:context-stroke;fill-rule:evenodd;stroke:context-stroke;stroke-width:1pt"
         d="M 5.77,0 -2.88,5 V -5 Z"
         id="path135-6-7-7-0" /></marker><marker
       style="overflow:visible"
       id="TriangleStart-7-7-9-3-5"
       refX="0"
       refY="0"
       orient="auto-start-reverse"
       inkscape:stockid="TriangleStart"
       markerWidth="5.3244081"
       markerHeight="6.155385"
       viewBox="0 0 5.3244081 6.1553851"
       inkscape:isstock="true"
       inkscape:collect="always"
       preserveAspectRatio="xMidYMid"><path
         transform="scale(0.5)"
         style="fill:context-stroke;fill-rule:evenodd;stroke:context-stroke;stroke-width:1pt"
         d="M 5.77,0 -2.88,5 V -5 Z"
         id="path135-6-7-7-6-1" /></marker><marker
       style="overflow:visible"
       id="TriangleStart-7-7-9-3-5-9"
       refX="0"
       refY="0"
       orient="auto-start-reverse"
       inkscape:stockid="TriangleStart"
       markerWidth="5.3244081"
       markerHeight="6.155385"
       viewBox="0 0 5.3244081 6.1553851"
       inkscape:isstock="true"
       inkscape:collect="always"
       preserveAspectRatio="xMidYMid"><path
         transform="scale(0.5)"
         style="fill:context-stroke;fill-rule:evenodd;stroke:context-stroke;stroke-width:1pt"
         d="M 5.77,0 -2.88,5 V -5 Z"
         id="path135-6-7-7-6-1-6" /></marker><marker
       style="overflow:visible"
       id="TriangleStart-7-7-9-3-5-9-5"
       refX="0"
       refY="0"
       orient="auto-start-reverse"
       inkscape:stockid="TriangleStart"
       markerWidth="5.3244081"
       markerHeight="6.155385"
       viewBox="0 0 5.3244081 6.1553851"
       inkscape:isstock="true"
       inkscape:collect="always"
       preserveAspectRatio="xMidYMid"><path
         transform="scale(0.5)"
         style="fill:context-stroke;fill-rule:evenodd;stroke:context-stroke;stroke-width:1pt"
         d="M 5.77,0 -2.88,5 V -5 Z"
         id="path135-6-7-7-6-1-6-4" /></marker></defs><g
     inkscape:label="Layer 1"
     inkscape:groupmode="layer"
     id="layer1"
     transform="translate(-58.167336,-136.3867)"><path
       id="rect234-7-7-4-1-7-7-4-3-5-6-3-0"
       style="fill:#37595f;stroke-width:0.339816"
       d="m 73.797783,139.16379 h 11.186152 c 0.644958,0 1.164184,0.51922 1.164184,1.16418 v 13.21186 c 0,0.64496 -0.519226,1.16419 -1.164184,1.16419 H 73.797783 c -0.644958,0 -1.164185,-0.51923 -1.164185,-1.16419 v -13.21186 c 0,-0.64496 0.519227,-1.16418 1.164185,-1.16418 z" /><path
       id="rect234-7-7-4-1-7-7-4-3-7-0-7-8-8"
       style="fill:#ffffff;stroke-width:0.145553"
       d="m 74.021607,142.23926 h 9.054571 c 0.43548,0 0.786065,0.35058 0.786065,0.78606 v 2.05372 c 0,0.43548 -0.350585,0.78606 -0.786065,0.78606 h -9.054571 c -0.43548,0 -0.786065,-0.35058 -0.786065,-0.78606 v -2.05372 c 0,-0.43548 0.350585,-0.78606 0.786065,-0.78606 z" /><path
       id="rect234-7-7-4-1-7-7-4-3-7-0-8-3-8-5"
       style="fill:#ffffff;stroke-width:0.145553"
       d="m 74.021607,146.25818 h 9.054571 c 0.43548,0 0.786065,0.35058 0.786065,0.78606 v 2.05372 c 0,0.43548 -0.350585,0.78606 -0.786065,0.78606 h -9.054571 c -0.43548,0 -0.786065,-0.35058 -0.786065,-0.78606 v -2.05372 c 0,-0.43548 0.350585,-0.78606 0.786065,-0.78606 z" /><g
       aria-label="Manifest"
       id="text1066-6-3-5-6-1-9-65-3-0"
       style="font-size:2.01728px;fill:#666666;stroke-width:0.686269"><path
         d="m 75.177013,144.81371 -0.474061,-1.26282 h -0.0081 q 0.0061,0.0625 0.01009,0.16945 0.004,0.1049 0.004,0.21988 v 0.87349 H 74.54157 v -1.44034 h 0.268298 l 0.443802,1.18011 h 0.0081 l 0.451871,-1.18011 h 0.266281 v 1.44034 h -0.179538 v -0.88559 q 0,-0.1049 0.004,-0.20778 0.0061,-0.10288 0.01009,-0.16743 h -0.0081 l -0.480113,1.2608 z"
         id="path7851" /><path
         d="m 76.756543,143.71429 q 0.197693,0 0.292505,0.0867 0.09481,0.0867 0.09481,0.27637 v 0.73631 h -0.129106 l -0.03429,-0.15332 h -0.0081 q -0.07061,0.0888 -0.149279,0.13113 -0.07666,0.0424 -0.213832,0.0424 -0.147261,0 -0.244091,-0.0767 -0.09683,-0.0787 -0.09683,-0.24409 0,-0.16138 0.127089,-0.24812 0.127088,-0.0888 0.391352,-0.0968 l 0.183572,-0.006 v -0.0645 q 0,-0.13516 -0.0585,-0.18761 -0.0585,-0.0525 -0.165417,-0.0525 -0.08472,0 -0.161382,0.0262 -0.07666,0.0242 -0.143227,0.0565 l -0.05447,-0.13314 q 0.07061,-0.0383 0.167435,-0.0646 0.09683,-0.0282 0.201728,-0.0282 z m 0.05245,0.57694 q -0.201728,0.008 -0.280402,0.0645 -0.07666,0.0565 -0.07666,0.15937 0,0.0908 0.05447,0.13314 0.05648,0.0424 0.143227,0.0424 0.137175,0 0.227953,-0.0746 0.09078,-0.0767 0.09078,-0.234 v -0.0968 z"
         id="path7853" /><path
         d="m 77.999189,143.71227 q 0.193659,0 0.292506,0.0948 0.09885,0.0928 0.09885,0.30259 v 0.70404 h -0.175503 v -0.69193 q 0,-0.26023 -0.242074,-0.26023 -0.179538,0 -0.248125,0.10086 -0.06859,0.10087 -0.06859,0.29049 v 0.56081 h -0.17752 v -1.08127 h 0.143227 l 0.02622,0.14726 h 0.01009 q 0.05245,-0.0847 0.145244,-0.12507 0.0928,-0.0424 0.195676,-0.0424 z"
         id="path7855" /><path
         d="m 78.816187,143.32697 q 0.04035,0 0.07061,0.0282 0.03228,0.0262 0.03228,0.0847 0,0.0565 -0.03228,0.0847 -0.03026,0.0282 -0.07061,0.0282 -0.04438,0 -0.07464,-0.0282 -0.03026,-0.0282 -0.03026,-0.0847 0,-0.0585 0.03026,-0.0847 0.03026,-0.0282 0.07464,-0.0282 z m 0.08674,0.40547 v 1.08127 h -0.17752 v -1.08127 z"
         id="path7857" /><path
         d="m 79.744135,143.86962 h -0.272333 v 0.94409 h -0.17752 v -0.94409 h -0.189625 v -0.0827 l 0.189625,-0.0605 v -0.0625 q 0,-0.2098 0.09279,-0.30058 0.0928,-0.0928 0.258212,-0.0928 0.06455,0 0.117003,0.0121 0.05447,0.0101 0.09279,0.0242 l -0.0464,0.13919 q -0.03228,-0.0101 -0.07464,-0.0202 -0.04236,-0.0101 -0.08674,-0.0101 -0.08876,0 -0.133141,0.0605 -0.04236,0.0585 -0.04236,0.18559 v 0.0706 h 0.272333 z"
         id="path7859" /><path
         d="m 80.357388,143.71227 q 0.139192,0 0.238039,0.0605 0.100864,0.0605 0.153313,0.17147 0.05447,0.10893 0.05447,0.25619 v 0.10692 h -0.740342 q 0.004,0.18357 0.09279,0.2804 0.09078,0.0948 0.25216,0.0948 0.102881,0 0.181555,-0.0181 0.08069,-0.0202 0.165417,-0.0565 v 0.15533 q -0.08271,0.0363 -0.1634,0.0524 -0.08069,0.0182 -0.191641,0.0182 -0.153314,0 -0.272333,-0.0625 -0.117002,-0.0625 -0.183573,-0.18559 -0.06455,-0.12507 -0.06455,-0.30461 0,-0.17752 0.0585,-0.30461 0.06052,-0.12708 0.167434,-0.19567 0.108933,-0.0686 0.25216,-0.0686 z m -0.002,0.14524 q -0.127089,0 -0.201728,0.0827 -0.07262,0.0807 -0.08674,0.22594 h 0.550718 q -0.002,-0.13718 -0.06455,-0.2219 -0.06254,-0.0868 -0.197693,-0.0868 z"
         id="path7861" /><path
         d="m 81.781586,144.51515 q 0,0.15735 -0.117002,0.23804 -0.117002,0.0807 -0.314696,0.0807 -0.112968,0 -0.195676,-0.0182 -0.08069,-0.0181 -0.143227,-0.0504 v -0.16138 q 0.06455,0.0323 0.155331,0.0605 0.09279,0.0262 0.187607,0.0262 0.135157,0 0.195676,-0.0424 0.06052,-0.0444 0.06052,-0.117 0,-0.0404 -0.02219,-0.0726 -0.02219,-0.0323 -0.08069,-0.0645 -0.05648,-0.0323 -0.1634,-0.0726 -0.104898,-0.0404 -0.179538,-0.0807 -0.07464,-0.0404 -0.114985,-0.0968 -0.04035,-0.0565 -0.04035,-0.14525 0,-0.13717 0.11095,-0.21181 0.112968,-0.0746 0.294523,-0.0746 0.09885,0 0.183573,0.0202 0.08674,0.0182 0.161382,0.0524 l -0.06052,0.14121 q -0.06859,-0.0282 -0.143227,-0.0484 -0.07464,-0.0202 -0.153314,-0.0202 -0.108933,0 -0.167434,0.0363 -0.05648,0.0343 -0.05648,0.0948 0,0.0444 0.02622,0.0767 0.02622,0.0303 0.08674,0.0605 0.06254,0.0282 0.165417,0.0686 0.102881,0.0383 0.175503,0.0787 0.07262,0.0404 0.110951,0.0988 0.03833,0.0565 0.03833,0.14323 z"
         id="path7863" /><path
         d="m 82.404926,144.68863 q 0.04035,0 0.08271,-0.006 0.04236,-0.008 0.06859,-0.0161 v 0.13516 q -0.02824,0.0141 -0.08069,0.0222 -0.05245,0.0101 -0.100864,0.0101 -0.08473,0 -0.157348,-0.0282 -0.07061,-0.0303 -0.114985,-0.10288 -0.04438,-0.0726 -0.04438,-0.20375 v -0.62939 h -0.153313 v -0.0847 l 0.15533,-0.0706 0.07061,-0.22997 h 0.104898 v 0.24812 h 0.312679 v 0.13718 h -0.312679 v 0.62536 q 0,0.0988 0.0464,0.14726 0.04841,0.0464 0.123054,0.0464 z"
         id="path7865" /></g><g
       aria-label="Board a)"
       id="text1066-6-3-5-6-1-9-6-3-8-4"
       style="font-size:2.01728px;fill:#666666;stroke-width:0.686269"><path
         d="m 75.138116,147.29167 q 0.270315,0 0.40749,0.0807 0.139193,0.0787 0.139193,0.27637 0,0.12709 -0.07061,0.21181 -0.07061,0.0827 -0.203746,0.10692 v 0.0101 q 0.09078,0.0141 0.1634,0.0524 0.07464,0.0383 0.117002,0.10893 0.04236,0.0706 0.04236,0.18357 0,0.19568 -0.135158,0.30259 -0.13314,0.10692 -0.365127,0.10692 h -0.50633 v -1.44034 z m 0.03631,0.61326 q 0.185589,0 0.254177,-0.0585 0.06859,-0.0605 0.06859,-0.17752 0,-0.11902 -0.08473,-0.16945 -0.08271,-0.0524 -0.266281,-0.0524 h -0.238039 v 0.45793 z m -0.266281,0.15129 v 0.52248 h 0.290488 q 0.191642,0 0.266281,-0.0746 0.07464,-0.0746 0.07464,-0.19568 0,-0.11297 -0.07867,-0.18155 -0.07666,-0.0706 -0.276367,-0.0706 z"
         id="path7868" /><path
         d="m 76.953667,148.18936 q 0,0.2683 -0.137175,0.41556 -0.135158,0.14726 -0.367145,0.14726 -0.143227,0 -0.256195,-0.0645 -0.11095,-0.0666 -0.175503,-0.19164 -0.06455,-0.12709 -0.06455,-0.30663 0,-0.2683 0.135158,-0.41354 0.135158,-0.14525 0.367145,-0.14525 0.147261,0 0.258212,0.0666 0.112967,0.0645 0.175503,0.18962 0.06455,0.12305 0.06455,0.30259 z m -0.816999,0 q 0,0.19164 0.07464,0.30461 0.07666,0.11095 0.242073,0.11095 0.1634,0 0.240057,-0.11095 0.07666,-0.11297 0.07666,-0.30461 0,-0.19164 -0.07666,-0.30057 -0.07666,-0.10894 -0.242074,-0.10894 -0.165417,0 -0.240056,0.10894 -0.07464,0.10893 -0.07464,0.30057 z"
         id="path7870" /><path
         d="m 77.643576,147.63259 q 0.197693,0 0.292505,0.0867 0.09481,0.0867 0.09481,0.27636 v 0.73631 h -0.129106 l -0.03429,-0.15331 h -0.0081 q -0.07061,0.0888 -0.149279,0.13112 -0.07666,0.0424 -0.213832,0.0424 -0.147261,0 -0.24409,-0.0767 -0.09683,-0.0787 -0.09683,-0.24409 0,-0.16139 0.127089,-0.24813 0.127088,-0.0888 0.391352,-0.0968 l 0.183573,-0.006 v -0.0645 q 0,-0.13516 -0.0585,-0.18761 -0.0585,-0.0524 -0.165417,-0.0524 -0.08472,0 -0.161382,0.0262 -0.07666,0.0242 -0.143227,0.0565 l -0.05447,-0.13314 q 0.0706,-0.0383 0.167434,-0.0646 0.09683,-0.0282 0.201728,-0.0282 z m 0.05245,0.57694 q -0.201728,0.008 -0.280402,0.0646 -0.07666,0.0565 -0.07666,0.15936 0,0.0908 0.05447,0.13314 0.05648,0.0424 0.143227,0.0424 0.137175,0 0.227953,-0.0746 0.09078,-0.0767 0.09078,-0.23401 v -0.0968 z"
         id="path7872" /><path
         d="m 78.870084,147.63057 q 0.03026,0 0.06455,0.004 0.03631,0.002 0.06254,0.008 l -0.02219,0.1634 q -0.02622,-0.006 -0.0585,-0.0101 -0.03026,-0.004 -0.0585,-0.004 -0.08271,0 -0.15533,0.0464 -0.07262,0.0444 -0.117003,0.12709 -0.04236,0.0807 -0.04236,0.18963 v 0.57694 h -0.17752 v -1.08126 h 0.145244 l 0.02017,0.19769 h 0.0081 q 0.05245,-0.0888 0.135158,-0.15331 0.08271,-0.0646 0.195676,-0.0646 z"
         id="path7874" /><path
         d="m 79.541837,148.75218 q -0.201728,0 -0.322764,-0.13919 -0.121037,-0.14121 -0.121037,-0.41959 0,-0.27839 0.121037,-0.4196 0.123054,-0.14323 0.324782,-0.14323 0.125071,0 0.203745,0.0464 0.08069,0.0464 0.131123,0.11297 h 0.0121 q -0.002,-0.0262 -0.0081,-0.0767 -0.004,-0.0524 -0.004,-0.0827 v -0.43169 h 0.177521 v 1.53313 h -0.143227 l -0.02622,-0.14524 h -0.0081 q -0.04841,0.0686 -0.129106,0.117 -0.08069,0.0484 -0.20778,0.0484 z m 0.02824,-0.14726 q 0.171469,0 0.240057,-0.0928 0.0706,-0.0948 0.0706,-0.28444 v -0.0323 q 0,-0.20172 -0.06657,-0.30864 -0.06657,-0.10893 -0.246108,-0.10893 -0.143227,0 -0.215849,0.11498 -0.07061,0.11297 -0.07061,0.30461 0,0.19366 0.07061,0.30058 0.07262,0.10691 0.217866,0.10691 z"
         id="path7876" /><path
         d="m 81.333182,147.63259 q 0.197693,0 0.292506,0.0867 0.09481,0.0867 0.09481,0.27636 v 0.73631 H 81.591394 L 81.5571,148.5787 H 81.549 q -0.07061,0.0888 -0.149279,0.13112 -0.07666,0.0424 -0.213831,0.0424 -0.147262,0 -0.244091,-0.0767 -0.09683,-0.0787 -0.09683,-0.24409 0,-0.16139 0.127089,-0.24813 0.127089,-0.0888 0.391352,-0.0968 l 0.183573,-0.006 v -0.0645 q 0,-0.13516 -0.0585,-0.18761 -0.0585,-0.0524 -0.165417,-0.0524 -0.08473,0 -0.161383,0.0262 -0.07666,0.0242 -0.143227,0.0565 l -0.05447,-0.13314 q 0.07061,-0.0383 0.167434,-0.0646 0.09683,-0.0282 0.201728,-0.0282 z m 0.05245,0.57694 q -0.201728,0.008 -0.280402,0.0646 -0.07666,0.0565 -0.07666,0.15936 0,0.0908 0.05447,0.13314 0.05648,0.0424 0.143227,0.0424 0.137175,0 0.227953,-0.0746 0.09078,-0.0767 0.09078,-0.23401 v -0.0968 z"
         id="path7878" /><path
         d="m 82.408394,148.17928 q 0,0.24409 -0.07262,0.47002 -0.07061,0.22392 -0.223918,0.40144 h -0.165417 q 0.139192,-0.18962 0.209797,-0.41354 0.07262,-0.22594 0.07262,-0.45994 0,-0.24006 -0.07262,-0.46801 -0.07061,-0.22795 -0.211814,-0.41758 h 0.167434 q 0.153313,0.18357 0.223918,0.41354 0.07262,0.22796 0.07262,0.47407 z"
         id="path7880" /></g><path
       id="rect234-7-7-4-1-7-7-4-3-7-0-8-3-7-6-2"
       style="fill:#ffffff;stroke-width:0.145553"
       d="m 74.045518,150.32349 h 9.05457 c 0.43548,0 0.786065,0.35058 0.786065,0.78606 v 2.05372 c 0,0.43548 -0.350585,0.78606 -0.786065,0.78606 h -9.05457 c -0.43548,0 -0.786065,-0.35058 -0.786065,-0.78606 v -2.05372 c 0,-0.43548 0.350585,-0.78606 0.786065,-0.78606 z" /><g
       aria-label="Board b)"
       id="text1066-6-3-5-6-1-9-6-3-4-4-5"
       style="font-size:2.01728px;fill:#666666;stroke-width:0.686269"><path
         d="m 75.088944,151.30325 q 0.270316,0 0.407491,0.0807 0.139192,0.0787 0.139192,0.27637 0,0.12709 -0.07061,0.21182 -0.07061,0.0827 -0.203745,0.10691 v 0.0101 q 0.09078,0.0141 0.1634,0.0525 0.07464,0.0383 0.117002,0.10893 0.04236,0.0706 0.04236,0.18357 0,0.19568 -0.135158,0.3026 -0.13314,0.10691 -0.365128,0.10691 h -0.506337 v -1.44034 z m 0.03631,0.61326 q 0.18559,0 0.254178,-0.0585 0.06859,-0.0605 0.06859,-0.17753 0,-0.11901 -0.08473,-0.16945 -0.08271,-0.0524 -0.266281,-0.0524 h -0.238039 v 0.45793 z m -0.266281,0.15129 v 0.52248 h 0.290489 q 0.191641,0 0.266281,-0.0746 0.07464,-0.0746 0.07464,-0.19568 0,-0.11297 -0.07867,-0.18155 -0.07666,-0.0706 -0.276367,-0.0706 z"
         id="path7884" /><path
         d="m 76.904495,152.20094 q 0,0.2683 -0.137175,0.41556 -0.135157,0.14726 -0.367145,0.14726 -0.143226,0 -0.256194,-0.0645 -0.110951,-0.0666 -0.175504,-0.19164 -0.06455,-0.12709 -0.06455,-0.30663 0,-0.2683 0.135157,-0.41354 0.135158,-0.14524 0.367145,-0.14524 0.147262,0 0.258212,0.0666 0.112968,0.0645 0.175503,0.18962 0.06455,0.12306 0.06455,0.30259 z m -0.816998,0 q 0,0.19164 0.07464,0.30461 0.07666,0.11095 0.242074,0.11095 0.1634,0 0.240056,-0.11095 0.07666,-0.11297 0.07666,-0.30461 0,-0.19164 -0.07666,-0.30057 -0.07666,-0.10893 -0.242073,-0.10893 -0.165417,0 -0.240057,0.10893 -0.07464,0.10893 -0.07464,0.30057 z"
         id="path7886" /><path
         d="m 77.594404,151.64417 q 0.197694,0 0.292506,0.0867 0.09481,0.0867 0.09481,0.27636 v 0.73631 h -0.129106 l -0.03429,-0.15331 h -0.0081 q -0.0706,0.0888 -0.149278,0.13112 -0.07666,0.0424 -0.213832,0.0424 -0.147261,0 -0.244091,-0.0767 -0.09683,-0.0787 -0.09683,-0.24409 0,-0.16139 0.127088,-0.24813 0.127089,-0.0888 0.391353,-0.0968 l 0.183572,-0.006 v -0.0645 q 0,-0.13516 -0.0585,-0.18761 -0.0585,-0.0525 -0.165417,-0.0525 -0.08473,0 -0.161382,0.0262 -0.07666,0.0242 -0.143227,0.0565 l -0.05447,-0.13314 q 0.07061,-0.0383 0.167434,-0.0646 0.09683,-0.0282 0.201728,-0.0282 z m 0.05245,0.57695 q -0.201728,0.008 -0.280402,0.0645 -0.07666,0.0565 -0.07666,0.15936 0,0.0908 0.05447,0.13314 0.05648,0.0424 0.143227,0.0424 0.137175,0 0.227952,-0.0746 0.09078,-0.0767 0.09078,-0.23401 v -0.0968 z"
         id="path7888" /><path
         d="m 78.820912,151.64216 q 0.03026,0 0.06455,0.004 0.03631,0.002 0.06254,0.008 l -0.02219,0.1634 q -0.02622,-0.006 -0.0585,-0.0101 -0.03026,-0.004 -0.0585,-0.004 -0.08271,0 -0.155331,0.0464 -0.07262,0.0444 -0.117002,0.12708 -0.04236,0.0807 -0.04236,0.18963 v 0.57694 h -0.177521 v -1.08126 h 0.145244 l 0.02017,0.19769 h 0.0081 q 0.05245,-0.0888 0.135158,-0.15331 0.08271,-0.0645 0.195676,-0.0645 z"
         id="path7890" /><path
         d="m 79.492666,152.76376 q -0.201728,0 -0.322765,-0.13919 -0.121037,-0.14121 -0.121037,-0.41959 0,-0.27839 0.121037,-0.4196 0.123054,-0.14322 0.324782,-0.14322 0.125072,0 0.203745,0.0464 0.08069,0.0464 0.131124,0.11297 h 0.0121 q -0.002,-0.0262 -0.0081,-0.0767 -0.004,-0.0524 -0.004,-0.0827 v -0.4317 h 0.17752 v 1.53313 h -0.143227 l -0.02622,-0.14524 h -0.0081 q -0.04842,0.0686 -0.129106,0.117 -0.08069,0.0484 -0.20778,0.0484 z m 0.02824,-0.14726 q 0.171469,0 0.240056,-0.0928 0.07061,-0.0948 0.07061,-0.28444 v -0.0323 q 0,-0.20172 -0.06657,-0.30864 -0.06657,-0.10893 -0.246108,-0.10893 -0.143227,0 -0.215849,0.11498 -0.07061,0.11297 -0.07061,0.30461 0,0.19366 0.07061,0.30058 0.07262,0.10691 0.217866,0.10691 z"
         id="path7892" /><path
         d="m 81.052023,151.58366 q 0,0.0686 -0.004,0.1291 -0.002,0.0585 -0.0061,0.0928 h 0.01009 q 0.0464,-0.0686 0.127089,-0.11499 0.08069,-0.0464 0.20778,-0.0464 0.201728,0 0.322765,0.14121 0.123054,0.1392 0.123054,0.41758 0,0.27838 -0.123054,0.41959 -0.123054,0.14121 -0.322765,0.14121 -0.127089,0 -0.20778,-0.0464 -0.08069,-0.0464 -0.127089,-0.11095 h -0.01412 l -0.03631,0.13717 h -0.127088 v -1.53313 h 0.17752 z m 0.30461,0.20778 q -0.171469,0 -0.238039,0.0988 -0.06657,0.0988 -0.06657,0.30663 v 0.008 q 0,0.19971 0.06455,0.30662 0.06657,0.1049 0.244091,0.1049 0.145244,0 0.215849,-0.10691 0.07262,-0.10692 0.07262,-0.30865 0,-0.4095 -0.292505,-0.4095 z"
         id="path7894" /><path
         d="m 82.468154,152.19086 q 0,0.24409 -0.07262,0.47002 -0.0706,0.22392 -0.223918,0.40144 h -0.165417 q 0.139193,-0.18962 0.209798,-0.41354 0.07262,-0.22594 0.07262,-0.45994 0,-0.24006 -0.07262,-0.46801 -0.07061,-0.22795 -0.211815,-0.41758 h 0.167434 q 0.153314,0.18358 0.223918,0.41355 0.07262,0.22795 0.07262,0.47406 z"
         id="path7896" /></g><g
       aria-label="App b)"
       id="text1066-6-3-5-6-3-4-3-6"
       style="font-size:2.01728px;fill:#eb811b;stroke-width:0.686269"><path
         d="m 75.25846,141.05083 -0.173486,-0.44582 h -0.57089 l -0.171469,0.44582 h -0.183573 l 0.562822,-1.44639 h 0.163399 l 0.560804,1.44639 z m -0.389335,-1.04294 q -0.0061,-0.0161 -0.02017,-0.0585 -0.01412,-0.0424 -0.02824,-0.0867 -0.0121,-0.0464 -0.02017,-0.0706 -0.01412,0.0625 -0.03228,0.12306 -0.01816,0.0585 -0.03026,0.0928 l -0.1634,0.43574 h 0.455905 z"
         id="path7899" /><path
         d="m 76.133959,139.94939 q 0.199711,0 0.320748,0.13919 0.123054,0.1392 0.123054,0.4196 0,0.27637 -0.123054,0.41959 -0.121037,0.14323 -0.322765,0.14323 -0.125071,0 -0.20778,-0.0464 -0.08069,-0.0484 -0.127088,-0.11095 h -0.0121 q 0.004,0.0343 0.0081,0.0868 0.004,0.0524 0.004,0.0908 v 0.4438 h -0.177521 v -1.56541 h 0.145244 l 0.02421,0.14727 h 0.0081 q 0.04841,-0.0706 0.127088,-0.11902 0.07867,-0.0484 0.209797,-0.0484 z m -0.03228,0.14928 q -0.165417,0 -0.234005,0.0928 -0.06657,0.0928 -0.0706,0.28241 v 0.0343 q 0,0.19971 0.06455,0.30864 0.06657,0.10692 0.244091,0.10692 0.09885,0 0.161382,-0.0545 0.06455,-0.0545 0.09481,-0.14726 0.03228,-0.0948 0.03228,-0.21585 0,-0.18559 -0.07262,-0.29654 -0.07061,-0.11095 -0.219884,-0.11095 z"
         id="path7901" /><path
         d="m 77.374586,139.94939 q 0.199711,0 0.320748,0.13919 0.123054,0.1392 0.123054,0.4196 0,0.27637 -0.123054,0.41959 -0.121037,0.14323 -0.322765,0.14323 -0.125071,0 -0.20778,-0.0464 -0.08069,-0.0484 -0.127088,-0.11095 h -0.0121 q 0.004,0.0343 0.0081,0.0868 0.004,0.0524 0.004,0.0908 v 0.4438 H 76.86018 v -1.56541 h 0.145244 l 0.02421,0.14727 h 0.0081 q 0.04841,-0.0706 0.127088,-0.11902 0.07867,-0.0484 0.209797,-0.0484 z m -0.03228,0.14928 q -0.165417,0 -0.234005,0.0928 -0.06657,0.0928 -0.0706,0.28241 v 0.0343 q 0,0.19971 0.06455,0.30864 0.06657,0.10692 0.24409,0.10692 0.09885,0 0.161383,-0.0545 0.06455,-0.0545 0.09481,-0.14726 0.03228,-0.0948 0.03228,-0.21585 0,-0.18559 -0.07262,-0.29654 -0.0706,-0.11095 -0.219883,-0.11095 z"
         id="path7903" /><path
         d="m 78.802821,139.89089 q 0,0.0686 -0.004,0.12911 -0.002,0.0585 -0.0061,0.0928 h 0.01009 q 0.0464,-0.0686 0.127088,-0.11498 0.08069,-0.0464 0.20778,-0.0464 0.201728,0 0.322765,0.14121 0.123054,0.13919 0.123054,0.41758 0,0.27838 -0.123054,0.41959 -0.123054,0.14121 -0.322765,0.14121 -0.127088,0 -0.20778,-0.0464 -0.08069,-0.0464 -0.127088,-0.11095 H 78.7887 l -0.03631,0.13718 H 78.6253 v -1.53314 h 0.177521 z m 0.304609,0.20778 q -0.171469,0 -0.238039,0.0988 -0.06657,0.0988 -0.06657,0.30662 v 0.008 q 0,0.19971 0.06455,0.30663 0.06657,0.1049 0.244091,0.1049 0.145244,0 0.215848,-0.10692 0.07262,-0.10691 0.07262,-0.30864 0,-0.40951 -0.292506,-0.40951 z"
         id="path7905" /><path
         d="m 80.218951,140.49809 q 0,0.24409 -0.07262,0.47003 -0.07061,0.22392 -0.223918,0.40144 h -0.165417 q 0.139192,-0.18963 0.209797,-0.41355 0.07262,-0.22593 0.07262,-0.45994 0,-0.24005 -0.07262,-0.468 -0.07061,-0.22796 -0.211815,-0.41758 h 0.167435 q 0.153313,0.18357 0.223918,0.41354 0.07262,0.22795 0.07262,0.47406 z"
         id="path7907" /></g><path
       id="rect2396-2-6-4"
       style="fill:#ffffff;fill-rule:evenodd;stroke:#808080;stroke-width:0.0727712px"
       d="m 83.500885,142.73305 h 2.443242 v 2.72226 h -2.443242 z" /><path
       id="rect3170-93-0-7"
       style="fill:#ffffff;fill-opacity:0.941176;fill-rule:evenodd;stroke:#808080;stroke-width:0.0737769px"
       inkscape:transform-center-x="0.99999999"
       inkscape:transform-center-y="-0.99999906"
       d="m 83.692162,143.06407 h 0.148014 v 0.1471 h -0.148014 z" /><path
       id="rect3172-9-4-2"
       style="fill:#ffffff;fill-opacity:0.941176;fill-rule:evenodd;stroke:#808080;stroke-width:0.0737769px"
       inkscape:transform-center-x="0.99999999"
       inkscape:transform-center-y="-0.99999906"
       d="m 83.685921,143.65396 h 0.148014 v 0.1471 h -0.148014 z" /><path
       id="rect3174-0-8-4"
       style="fill:#ffffff;fill-opacity:0.941176;fill-rule:evenodd;stroke:#808080;stroke-width:0.0737769px"
       inkscape:transform-center-x="0.99999999"
       inkscape:transform-center-y="-0.99999906"
       d="m 83.685921,144.23767 h 0.148014 v 0.1471 h -0.148014 z" /><path
       id="rect3176-8-8-0"
       style="fill:#ffffff;fill-rule:evenodd;stroke:#808080;stroke-width:0.0737769px"
       d="m 84.128906,143.06407 h 1.332127 v 0.1471 h -1.332127 z" /><path
       id="rect3178-8-8-6"
       style="fill:#ffffff;fill-rule:evenodd;stroke:#808080;stroke-width:0.0737769px"
       d="m 84.125488,143.65396 h 1.332127 v 0.1471 h -1.332127 z" /><path
       id="rect3180-5-9-2"
       style="fill:#ffffff;fill-rule:evenodd;stroke:#808080;stroke-width:0.0737769px"
       d="m 84.133018,144.24515 h 1.332128 v 0.14709 h -1.332128 z" /><path
       id="rect3182-0-7-9"
       style="fill:#ffffff;fill-rule:evenodd;stroke:#808080;stroke-width:0.0737769px"
       d="m 84.133018,144.537 h 1.332128 v 0.1471 h -1.332128 z" /><path
       id="rect3184-9-7-9"
       style="fill:#ffffff;fill-rule:evenodd;stroke:#808080;stroke-width:0.0737769px"
       d="m 84.133018,143.36212 h 1.036099 v 0.1471 h -1.036099 z" /><path
       id="rect3186-6-6-0"
       style="fill:#ffffff;fill-rule:evenodd;stroke:#808080;stroke-width:0.0737769px"
       d="m 84.130432,143.94582 h 1.036099 v 0.14709 h -1.036099 z" /><path
       id="rect3188-3-4-8"
       style="fill:#ffffff;fill-rule:evenodd;stroke:#808080;stroke-width:0.0737769px"
       d="m 84.137962,144.82886 h 1.036099 v 0.14709 h -1.036099 z" /><path
       id="rect234-7-7-4-1-7-7-4-3-5-6-3-0-2"
       style="fill:#37595f;stroke-width:0.339816"
       d="m 59.33152,139.16379 h 11.186153 c 0.644958,0 1.164184,0.51922 1.164184,1.16418 v 13.21186 c 0,0.64496 -0.519226,1.16419 -1.164184,1.16419 H 59.33152 c -0.644958,0 -1.164184,-0.51923 -1.164184,-1.16419 v -13.21186 c 0,-0.64496 0.519226,-1.16418 1.164184,-1.16418 z" /><path
       id="rect234-7-7-4-1-7-7-4-3-7-0-7-8-8-9"
       style="fill:#ffffff;stroke-width:0.145552"
       d="m 59.555348,142.23926 h 9.054571 c 0.435481,0 0.786066,0.35058 0.786066,0.78606 v 2.05372 c 0,0.43548 -0.350585,0.78606 -0.786066,0.78606 h -9.054571 c -0.43548,0 -0.786065,-0.35058 -0.786065,-0.78606 v -2.05372 c 0,-0.43548 0.350585,-0.78606 0.786065,-0.78606 z" /><path
       id="rect234-7-7-4-1-7-7-4-3-7-0-8-3-8-5-6"
       style="fill:#ffffff;stroke-width:0.145552"
       d="m 59.555348,146.25819 h 9.054571 c 0.435481,0 0.786066,0.35059 0.786066,0.78607 v 2.05371 c 0,0.43549 -0.350585,0.78607 -0.786066,0.78607 h -9.054571 c -0.43548,0 -0.786065,-0.35058 -0.786065,-0.78607 v -2.05371 c 0,-0.43548 0.350585,-0.78607 0.786065,-0.78607 z" /><g
       aria-label="Manifest"
       id="text1066-6-3-5-6-1-9-65-3-0-1"
       style="font-size:2.01728px;fill:#666666;stroke-width:0.686268"><path
         d="m 60.71075,144.81371 -0.47406,-1.26282 h -0.0081 q 0.0061,0.0625 0.01009,0.16945 0.004,0.1049 0.004,0.21988 v 0.87349 h -0.167434 v -1.44034 h 0.268298 l 0.443802,1.18011 h 0.0081 l 0.451871,-1.18011 h 0.266281 v 1.44034 H 61.33409 v -0.88559 q 0,-0.1049 0.004,-0.20778 0.0061,-0.10288 0.01009,-0.16743 h -0.0081 l -0.480113,1.2608 z"
         id="path7924" /><path
         d="m 62.29028,143.71429 q 0.197693,0 0.292506,0.0867 0.09481,0.0867 0.09481,0.27637 v 0.73631 H 62.54849 l -0.03429,-0.15332 h -0.0081 q -0.07061,0.0888 -0.149279,0.13113 -0.07666,0.0424 -0.213832,0.0424 -0.147261,0 -0.24409,-0.0767 -0.09683,-0.0787 -0.09683,-0.24409 0,-0.16138 0.127089,-0.24812 0.127088,-0.0888 0.391352,-0.0968 l 0.183573,-0.006 v -0.0645 q 0,-0.13516 -0.0585,-0.18761 -0.0585,-0.0525 -0.165416,-0.0525 -0.08473,0 -0.161383,0.0262 -0.07666,0.0242 -0.143227,0.0565 l -0.05447,-0.13314 q 0.0706,-0.0383 0.167434,-0.0646 0.09683,-0.0282 0.201728,-0.0282 z m 0.05245,0.57694 q -0.201728,0.008 -0.280402,0.0645 -0.07666,0.0565 -0.07666,0.15937 0,0.0908 0.05447,0.13314 0.05648,0.0424 0.143227,0.0424 0.137175,0 0.227953,-0.0746 0.09078,-0.0767 0.09078,-0.234 v -0.0968 z"
         id="path7926" /><path
         d="m 63.532926,143.71227 q 0.193659,0 0.292506,0.0948 0.09885,0.0928 0.09885,0.30259 v 0.70404 h -0.175504 v -0.69193 q 0,-0.26023 -0.242073,-0.26023 -0.179538,0 -0.248126,0.10086 -0.06859,0.10087 -0.06859,0.29049 v 0.56081 h -0.177521 v -1.08127 h 0.143227 l 0.02622,0.14726 h 0.01009 q 0.05245,-0.0847 0.145244,-0.12507 0.0928,-0.0424 0.195676,-0.0424 z"
         id="path7928" /><path
         d="m 64.349924,143.32697 q 0.04035,0 0.07061,0.0282 0.03228,0.0262 0.03228,0.0847 0,0.0565 -0.03228,0.0847 -0.03026,0.0282 -0.07061,0.0282 -0.04438,0 -0.07464,-0.0282 -0.03026,-0.0282 -0.03026,-0.0847 0,-0.0585 0.03026,-0.0847 0.03026,-0.0282 0.07464,-0.0282 z m 0.08674,0.40547 v 1.08127 h -0.17752 v -1.08127 z"
         id="path7930" /><path
         d="m 65.277872,143.86962 h -0.272333 v 0.94409 h -0.17752 v -0.94409 h -0.189625 v -0.0827 l 0.189625,-0.0605 v -0.0625 q 0,-0.2098 0.09279,-0.30058 0.0928,-0.0928 0.258211,-0.0928 0.06455,0 0.117003,0.0121 0.05447,0.0101 0.09279,0.0242 l -0.0464,0.13919 q -0.03228,-0.0101 -0.07464,-0.0202 -0.04236,-0.0101 -0.08674,-0.0101 -0.08876,0 -0.133141,0.0605 -0.04236,0.0585 -0.04236,0.18559 v 0.0706 h 0.272333 z"
         id="path7932" /><path
         d="m 65.891125,143.71227 q 0.139192,0 0.238039,0.0605 0.100864,0.0605 0.153313,0.17147 0.05447,0.10893 0.05447,0.25619 v 0.10692 h -0.740342 q 0.004,0.18357 0.09279,0.2804 0.09078,0.0948 0.25216,0.0948 0.102881,0 0.181555,-0.0181 0.08069,-0.0202 0.165417,-0.0565 v 0.15533 q -0.08271,0.0363 -0.1634,0.0524 -0.08069,0.0182 -0.191641,0.0182 -0.153313,0 -0.272333,-0.0625 -0.117002,-0.0625 -0.183572,-0.18559 -0.06455,-0.12507 -0.06455,-0.30461 0,-0.17752 0.0585,-0.30461 0.06052,-0.12708 0.167434,-0.19567 0.108933,-0.0686 0.25216,-0.0686 z m -0.002,0.14524 q -0.127089,0 -0.201728,0.0827 -0.07262,0.0807 -0.08674,0.22594 h 0.550717 q -0.002,-0.13718 -0.06455,-0.2219 -0.06254,-0.0868 -0.197693,-0.0868 z"
         id="path7934" /><path
         d="m 67.315323,144.51515 q 0,0.15735 -0.117002,0.23804 -0.117002,0.0807 -0.314696,0.0807 -0.112967,0 -0.195676,-0.0182 -0.08069,-0.0181 -0.143227,-0.0504 v -0.16138 q 0.06455,0.0323 0.155331,0.0605 0.0928,0.0262 0.187607,0.0262 0.135158,0 0.195676,-0.0424 0.06052,-0.0444 0.06052,-0.117 0,-0.0404 -0.02219,-0.0726 -0.02219,-0.0323 -0.08069,-0.0645 -0.05648,-0.0323 -0.1634,-0.0726 -0.104898,-0.0404 -0.179538,-0.0807 -0.07464,-0.0404 -0.114984,-0.0968 -0.04035,-0.0565 -0.04035,-0.14525 0,-0.13717 0.11095,-0.21181 0.112968,-0.0746 0.294523,-0.0746 0.09885,0 0.183573,0.0202 0.08674,0.0182 0.161382,0.0524 l -0.06052,0.14121 q -0.06859,-0.0282 -0.143227,-0.0484 -0.07464,-0.0202 -0.153313,-0.0202 -0.108934,0 -0.167435,0.0363 -0.05648,0.0343 -0.05648,0.0948 0,0.0444 0.02623,0.0767 0.02622,0.0303 0.08674,0.0605 0.06254,0.0282 0.165417,0.0686 0.102881,0.0383 0.175503,0.0787 0.07262,0.0404 0.110951,0.0988 0.03833,0.0565 0.03833,0.14323 z"
         id="path7936" /><path
         d="m 67.938663,144.68863 q 0.04035,0 0.08271,-0.006 0.04236,-0.008 0.06859,-0.0161 v 0.13516 q -0.02824,0.0141 -0.08069,0.0222 -0.05245,0.0101 -0.100864,0.0101 -0.08473,0 -0.157348,-0.0282 -0.07061,-0.0303 -0.114985,-0.10288 -0.04438,-0.0726 -0.04438,-0.20375 v -0.62939 h -0.153313 v -0.0847 l 0.15533,-0.0706 0.07061,-0.22997 h 0.104899 v 0.24812 H 68.0819 v 0.13718 h -0.312678 v 0.62536 q 0,0.0988 0.0464,0.14726 0.04842,0.0464 0.123054,0.0464 z"
         id="path7938" /></g><g
       aria-label="Board a)"
       id="text1066-6-3-5-6-1-9-6-3-8-4-4"
       style="font-size:2.01728px;fill:#666666;stroke-width:0.686268"><path
         d="m 60.671849,147.29169 q 0.270316,0 0.407491,0.0807 0.139192,0.0787 0.139192,0.27637 0,0.12708 -0.07061,0.21181 -0.07061,0.0827 -0.203745,0.10692 v 0.0101 q 0.09078,0.0141 0.163399,0.0524 0.07464,0.0383 0.117003,0.10893 0.04236,0.0706 0.04236,0.18358 0,0.19567 -0.135158,0.30259 -0.133141,0.10692 -0.365128,0.10692 h -0.506337 v -1.44034 z m 0.03631,0.61325 q 0.18559,0 0.254177,-0.0585 0.06859,-0.0605 0.06859,-0.17752 0,-0.11902 -0.08473,-0.16945 -0.08271,-0.0524 -0.266281,-0.0524 h -0.238039 v 0.45792 z m -0.266281,0.1513 v 0.52247 h 0.290488 q 0.191642,0 0.266281,-0.0746 0.07464,-0.0746 0.07464,-0.19567 0,-0.11297 -0.07867,-0.18156 -0.07666,-0.0706 -0.276368,-0.0706 z"
         id="path7941" /><path
         d="m 62.4874,148.18938 q 0,0.2683 -0.137175,0.41556 -0.135158,0.14726 -0.367145,0.14726 -0.143227,0 -0.256194,-0.0646 -0.110951,-0.0666 -0.175504,-0.19164 -0.06455,-0.12709 -0.06455,-0.30662 0,-0.2683 0.135158,-0.41355 0.135158,-0.14524 0.367145,-0.14524 0.147262,0 0.258212,0.0666 0.112968,0.0645 0.175503,0.18962 0.06455,0.12306 0.06455,0.3026 z m -0.816998,0 q 0,0.19164 0.07464,0.30461 0.07666,0.11095 0.242074,0.11095 0.163399,0 0.240056,-0.11095 0.07666,-0.11297 0.07666,-0.30461 0,-0.19164 -0.07666,-0.30058 -0.07666,-0.10893 -0.242073,-0.10893 -0.165417,0 -0.240057,0.10893 -0.07464,0.10894 -0.07464,0.30058 z"
         id="path7943" /><path
         d="m 63.177309,147.63261 q 0.197694,0 0.292506,0.0867 0.09481,0.0867 0.09481,0.27637 v 0.73631 h -0.129106 l -0.03429,-0.15332 h -0.0081 q -0.07061,0.0888 -0.149279,0.13113 -0.07666,0.0424 -0.213831,0.0424 -0.147262,0 -0.244091,-0.0767 -0.09683,-0.0787 -0.09683,-0.24409 0,-0.16138 0.127089,-0.24813 0.127089,-0.0888 0.391352,-0.0968 l 0.183573,-0.006 v -0.0645 q 0,-0.13516 -0.0585,-0.18761 -0.0585,-0.0524 -0.165417,-0.0524 -0.08473,0 -0.161383,0.0262 -0.07666,0.0242 -0.143226,0.0565 l -0.05447,-0.13314 q 0.07061,-0.0383 0.167434,-0.0645 0.09683,-0.0282 0.201728,-0.0282 z m 0.05245,0.57694 q -0.201729,0.008 -0.280402,0.0645 -0.07666,0.0565 -0.07666,0.15937 0,0.0908 0.05447,0.13314 0.05648,0.0424 0.143227,0.0424 0.137175,0 0.227953,-0.0746 0.09078,-0.0767 0.09078,-0.234 v -0.0968 z"
         id="path7945" /><path
         d="m 64.403817,147.63059 q 0.03026,0 0.06455,0.004 0.03631,0.002 0.06254,0.008 l -0.02219,0.1634 q -0.02623,-0.006 -0.0585,-0.0101 -0.03026,-0.004 -0.0585,-0.004 -0.08271,0 -0.15533,0.0464 -0.07262,0.0444 -0.117002,0.12709 -0.04236,0.0807 -0.04236,0.18962 v 0.57695 h -0.177521 v -1.08127 h 0.145244 l 0.02017,0.1977 h 0.0081 q 0.05245,-0.0888 0.135158,-0.15332 0.08271,-0.0645 0.195676,-0.0645 z"
         id="path7947" /><path
         d="m 65.075571,148.7522 q -0.201728,0 -0.322765,-0.13919 -0.121037,-0.14121 -0.121037,-0.4196 0,-0.27838 0.121037,-0.41959 0.123054,-0.14323 0.324782,-0.14323 0.125071,0 0.203745,0.0464 0.08069,0.0464 0.131124,0.11297 h 0.0121 q -0.002,-0.0262 -0.0081,-0.0767 -0.004,-0.0524 -0.004,-0.0827 v -0.4317 h 0.17752 V 148.732 H 65.44675 l -0.02622,-0.14525 h -0.0081 q -0.04842,0.0686 -0.129106,0.117 -0.08069,0.0484 -0.20778,0.0484 z m 0.02824,-0.14726 q 0.171468,0 0.240056,-0.0928 0.07061,-0.0948 0.07061,-0.28443 v -0.0323 q 0,-0.20173 -0.06657,-0.30865 -0.06657,-0.10893 -0.246109,-0.10893 -0.143227,0 -0.215849,0.11499 -0.0706,0.11296 -0.0706,0.30461 0,0.19365 0.0706,0.30057 0.07262,0.10692 0.217867,0.10692 z"
         id="path7949" /><path
         d="m 66.866915,147.63261 q 0.197694,0 0.292506,0.0867 0.09481,0.0867 0.09481,0.27637 v 0.73631 h -0.129106 l -0.03429,-0.15332 h -0.0081 q -0.0706,0.0888 -0.149278,0.13113 -0.07666,0.0424 -0.213832,0.0424 -0.147261,0 -0.244091,-0.0767 -0.09683,-0.0787 -0.09683,-0.24409 0,-0.16138 0.127088,-0.24813 0.127089,-0.0888 0.391353,-0.0968 l 0.183572,-0.006 v -0.0645 q 0,-0.13516 -0.0585,-0.18761 -0.0585,-0.0524 -0.165417,-0.0524 -0.08473,0 -0.161382,0.0262 -0.07666,0.0242 -0.143227,0.0565 l -0.05447,-0.13314 q 0.07061,-0.0383 0.167434,-0.0645 0.09683,-0.0282 0.201728,-0.0282 z m 0.05245,0.57694 q -0.201728,0.008 -0.280402,0.0645 -0.07666,0.0565 -0.07666,0.15937 0,0.0908 0.05447,0.13314 0.05648,0.0424 0.143227,0.0424 0.137175,0 0.227952,-0.0746 0.09078,-0.0767 0.09078,-0.234 v -0.0968 z"
         id="path7951" /><path
         d="m 67.942127,148.17929 q 0,0.24409 -0.07262,0.47003 -0.07061,0.22391 -0.223918,0.40144 H 67.48017 q 0.139192,-0.18963 0.209797,-0.41355 0.07262,-0.22593 0.07262,-0.45994 0,-0.24005 -0.07262,-0.46801 -0.07061,-0.22795 -0.211814,-0.41757 h 0.167434 q 0.153313,0.18357 0.223918,0.41354 0.07262,0.22795 0.07262,0.47406 z"
         id="path7953" /></g><path
       id="rect234-7-7-4-1-7-7-4-3-7-0-8-3-7-6-2-2"
       style="fill:#ffffff;stroke-width:0.145552"
       d="m 59.579255,150.32349 h 9.054571 c 0.43548,0 0.786065,0.35058 0.786065,0.78606 v 2.05372 c 0,0.43548 -0.350585,0.78606 -0.786065,0.78606 h -9.054571 c -0.43548,0 -0.786065,-0.35058 -0.786065,-0.78606 v -2.05372 c 0,-0.43548 0.350585,-0.78606 0.786065,-0.78606 z" /><g
       aria-label="Board b)"
       id="text1066-6-3-5-6-1-9-6-3-4-4-5-2"
       style="font-size:2.01728px;fill:#666666;stroke-width:0.686268"><path
         d="m 60.622689,151.30327 q 0.270316,0 0.407491,0.0807 0.139192,0.0787 0.139192,0.27637 0,0.12709 -0.07061,0.21181 -0.07061,0.0827 -0.203745,0.10692 v 0.0101 q 0.09078,0.0141 0.163399,0.0525 0.07464,0.0383 0.117003,0.10894 0.04236,0.0706 0.04236,0.18357 0,0.19567 -0.135158,0.30259 -0.133141,0.10692 -0.365128,0.10692 h -0.506337 v -1.44034 z m 0.03631,0.61325 q 0.18559,0 0.254177,-0.0585 0.06859,-0.0605 0.06859,-0.17752 0,-0.11902 -0.08473,-0.16945 -0.08271,-0.0525 -0.266281,-0.0525 h -0.238039 v 0.45792 z m -0.266281,0.1513 v 0.52247 h 0.290488 q 0.191642,0 0.266281,-0.0746 0.07464,-0.0746 0.07464,-0.19567 0,-0.11297 -0.07867,-0.18156 -0.07666,-0.0706 -0.276368,-0.0706 z"
         id="path7957" /><path
         d="m 62.43824,152.20096 q 0,0.2683 -0.137175,0.41556 -0.135158,0.14726 -0.367145,0.14726 -0.143227,0 -0.256194,-0.0645 -0.110951,-0.0666 -0.175504,-0.19165 -0.06455,-0.12708 -0.06455,-0.30662 0,-0.2683 0.135158,-0.41354 0.135158,-0.14525 0.367145,-0.14525 0.147262,0 0.258212,0.0666 0.112968,0.0645 0.175503,0.18963 0.06455,0.12305 0.06455,0.30259 z m -0.816998,0 q 0,0.19164 0.07464,0.30461 0.07666,0.11095 0.242074,0.11095 0.163399,0 0.240056,-0.11095 0.07666,-0.11297 0.07666,-0.30461 0,-0.19164 -0.07666,-0.30058 -0.07666,-0.10893 -0.242073,-0.10893 -0.165417,0 -0.240057,0.10893 -0.07464,0.10894 -0.07464,0.30058 z"
         id="path7959" /><path
         d="m 63.128149,151.64419 q 0.197694,0 0.292506,0.0867 0.09481,0.0867 0.09481,0.27637 v 0.73631 h -0.129106 l -0.03429,-0.15332 h -0.0081 q -0.07061,0.0888 -0.149279,0.13113 -0.07666,0.0424 -0.213831,0.0424 -0.147262,0 -0.244091,-0.0767 -0.09683,-0.0787 -0.09683,-0.24409 0,-0.16138 0.127089,-0.24812 0.127089,-0.0888 0.391352,-0.0968 l 0.183573,-0.006 v -0.0646 q 0,-0.13516 -0.0585,-0.1876 -0.0585,-0.0524 -0.165417,-0.0524 -0.08473,0 -0.161383,0.0262 -0.07666,0.0242 -0.143226,0.0565 l -0.05447,-0.13314 q 0.07061,-0.0383 0.167434,-0.0645 0.09683,-0.0282 0.201728,-0.0282 z m 0.05245,0.57694 q -0.201728,0.008 -0.280401,0.0646 -0.07666,0.0565 -0.07666,0.15937 0,0.0908 0.05447,0.13314 0.05648,0.0424 0.143227,0.0424 0.137175,0 0.227953,-0.0746 0.09078,-0.0767 0.09078,-0.234 v -0.0968 z"
         id="path7961" /><path
         d="m 64.354657,151.64217 q 0.03026,0 0.06455,0.004 0.03631,0.002 0.06254,0.008 l -0.02219,0.1634 q -0.02623,-0.006 -0.0585,-0.0101 -0.03026,-0.004 -0.0585,-0.004 -0.08271,0 -0.15533,0.0464 -0.07262,0.0444 -0.117002,0.12709 -0.04236,0.0807 -0.04236,0.18962 v 0.57695 h -0.177521 v -1.08127 h 0.145244 l 0.02017,0.1977 h 0.0081 q 0.05245,-0.0888 0.135158,-0.15332 0.08271,-0.0645 0.195676,-0.0645 z"
         id="path7963" /><path
         d="m 65.026411,152.76378 q -0.201728,0 -0.322765,-0.13919 -0.121037,-0.14121 -0.121037,-0.4196 0,-0.27838 0.121037,-0.41959 0.123054,-0.14323 0.324782,-0.14323 0.125071,0 0.203745,0.0464 0.08069,0.0464 0.131124,0.11297 h 0.0121 q -0.002,-0.0262 -0.0081,-0.0767 -0.004,-0.0525 -0.004,-0.0827 v -0.4317 h 0.17752 v 1.53314 H 65.39759 l -0.02622,-0.14525 h -0.0081 q -0.04842,0.0686 -0.129106,0.117 -0.08069,0.0484 -0.20778,0.0484 z m 0.02824,-0.14726 q 0.171468,0 0.240056,-0.0928 0.07061,-0.0948 0.07061,-0.28443 v -0.0323 q 0,-0.20173 -0.06657,-0.30864 -0.06657,-0.10894 -0.246109,-0.10894 -0.143227,0 -0.215849,0.11499 -0.0706,0.11297 -0.0706,0.30461 0,0.19366 0.0706,0.30057 0.07262,0.10692 0.217867,0.10692 z"
         id="path7965" /><path
         d="m 66.585768,151.58367 q 0,0.0686 -0.004,0.12911 -0.002,0.0585 -0.0061,0.0928 h 0.01009 q 0.0464,-0.0686 0.127089,-0.11498 0.08069,-0.0464 0.20778,-0.0464 0.201728,0 0.322765,0.14121 0.123054,0.13919 0.123054,0.41758 0,0.27838 -0.123054,0.41959 -0.123055,0.14121 -0.322765,0.14121 -0.127089,0 -0.20778,-0.0464 -0.08069,-0.0464 -0.127089,-0.11095 h -0.01412 l -0.03631,0.13718 H 66.40824 v -1.53314 h 0.17752 z m 0.304609,0.20778 q -0.171468,0 -0.238039,0.0988 -0.06657,0.0988 -0.06657,0.30662 v 0.008 q 0,0.19971 0.06455,0.30663 0.06657,0.1049 0.244091,0.1049 0.145244,0 0.215849,-0.10692 0.07262,-0.10691 0.07262,-0.30864 0,-0.40951 -0.292506,-0.40951 z"
         id="path7967" /><path
         d="m 68.001898,152.19087 q 0,0.24409 -0.07262,0.47003 -0.07061,0.22392 -0.223918,0.40144 h -0.165417 q 0.139193,-0.18963 0.209797,-0.41355 0.07262,-0.22593 0.07262,-0.45994 0,-0.24005 -0.07262,-0.468 -0.0706,-0.22796 -0.211814,-0.41758 h 0.167434 q 0.153313,0.18357 0.223918,0.41354 0.07262,0.22795 0.07262,0.47406 z"
         id="path7969" /></g><g
       aria-label="App a)"
       id="text1066-6-3-5-6-3-4-3-6-5"
       style="font-size:2.01728px;fill:#66cd22;stroke-width:0.686268"><path
         d="m 60.792197,141.05083 -0.173486,-0.44582 h -0.57089 l -0.171469,0.44582 H 59.69278 l 0.562821,-1.44639 H 60.419 l 0.560804,1.44639 z m -0.389335,-1.04294 q -0.0061,-0.0161 -0.02017,-0.0585 -0.01412,-0.0424 -0.02824,-0.0867 -0.0121,-0.0464 -0.02017,-0.0706 -0.01412,0.0625 -0.03228,0.12306 -0.01816,0.0585 -0.03026,0.0928 l -0.1634,0.43574 h 0.455906 z"
         id="path7972" /><path
         d="m 61.667697,139.94939 q 0.19971,0 0.320747,0.13919 0.123054,0.1392 0.123054,0.4196 0,0.27637 -0.123054,0.41959 -0.121037,0.14323 -0.322765,0.14323 -0.125071,0 -0.207779,-0.0464 -0.08069,-0.0484 -0.127089,-0.11095 h -0.0121 q 0.004,0.0343 0.0081,0.0868 0.004,0.0524 0.004,0.0908 v 0.4438 H 61.15329 v -1.56541 h 0.145244 l 0.02421,0.14727 h 0.0081 q 0.04842,-0.0706 0.127089,-0.11902 0.07867,-0.0484 0.209797,-0.0484 z m -0.03228,0.14928 q -0.165417,0 -0.234004,0.0928 -0.06657,0.0928 -0.07061,0.28241 v 0.0343 q 0,0.19971 0.06455,0.30864 0.06657,0.10692 0.244091,0.10692 0.09885,0 0.161382,-0.0545 0.06455,-0.0545 0.09481,-0.14726 0.03228,-0.0948 0.03228,-0.21585 0,-0.18559 -0.07262,-0.29654 -0.0706,-0.11095 -0.219884,-0.11095 z"
         id="path7974" /><path
         d="m 62.908324,139.94939 q 0.19971,0 0.320747,0.13919 0.123054,0.1392 0.123054,0.4196 0,0.27637 -0.123054,0.41959 -0.121037,0.14323 -0.322765,0.14323 -0.125071,0 -0.20778,-0.0464 -0.08069,-0.0484 -0.127088,-0.11095 h -0.0121 q 0.004,0.0343 0.0081,0.0868 0.004,0.0524 0.004,0.0908 v 0.4438 h -0.177521 v -1.56541 h 0.145244 l 0.02421,0.14727 h 0.0081 q 0.04841,-0.0706 0.127088,-0.11902 0.07867,-0.0484 0.209798,-0.0484 z m -0.03228,0.14928 q -0.165417,0 -0.234004,0.0928 -0.06657,0.0928 -0.07061,0.28241 v 0.0343 q 0,0.19971 0.06455,0.30864 0.06657,0.10692 0.244091,0.10692 0.09885,0 0.161382,-0.0545 0.06455,-0.0545 0.09481,-0.14726 0.03228,-0.0948 0.03228,-0.21585 0,-0.18559 -0.07262,-0.29654 -0.07061,-0.11095 -0.219884,-0.11095 z"
         id="path7976" /><path
         d="m 64.568545,139.95141 q 0.197693,0 0.292506,0.0867 0.09481,0.0867 0.09481,0.27637 v 0.73631 h -0.129106 l -0.03429,-0.15332 h -0.0081 q -0.07061,0.0888 -0.149279,0.13113 -0.07666,0.0424 -0.213831,0.0424 -0.147262,0 -0.244091,-0.0767 -0.09683,-0.0787 -0.09683,-0.24409 0,-0.16138 0.127089,-0.24812 0.127089,-0.0888 0.391352,-0.0968 l 0.183573,-0.006 v -0.0646 q 0,-0.13516 -0.0585,-0.1876 -0.0585,-0.0524 -0.165417,-0.0524 -0.08473,0 -0.161383,0.0262 -0.07666,0.0242 -0.143227,0.0565 l -0.05447,-0.13314 q 0.07061,-0.0383 0.167434,-0.0645 0.09683,-0.0282 0.201728,-0.0282 z m 0.05245,0.57694 q -0.201728,0.008 -0.280402,0.0645 -0.07666,0.0565 -0.07666,0.15937 0,0.0908 0.05447,0.13314 0.05648,0.0424 0.143227,0.0424 0.137175,0 0.227953,-0.0746 0.09078,-0.0767 0.09078,-0.234 v -0.0968 z"
         id="path7978" /><path
         d="m 65.643757,140.49809 q 0,0.24409 -0.07262,0.47003 -0.07061,0.22392 -0.223918,0.40144 H 65.1818 q 0.139192,-0.18963 0.209797,-0.41355 0.07262,-0.22593 0.07262,-0.45994 0,-0.24005 -0.07262,-0.468 -0.07061,-0.22796 -0.211814,-0.41758 h 0.167434 q 0.153313,0.18357 0.223918,0.41354 0.07262,0.22795 0.07262,0.47406 z"
         id="path7980" /></g><path
       id="rect2396-2-6-4-9"
       style="fill:#ffffff;fill-rule:evenodd;stroke:#808080;stroke-width:0.0727712px"
       d="m 69.034622,142.73305 h 2.443242 v 2.72226 h -2.443242 z" /><path
       id="rect3170-93-0-7-0"
       style="fill:#ffffff;fill-opacity:0.941176;fill-rule:evenodd;stroke:#808080;stroke-width:0.0737769px"
       inkscape:transform-center-x="0.99999999"
       inkscape:transform-center-y="-0.99999906"
       d="m 69.225899,143.06407 h 0.148014 v 0.1471 h -0.148014 z" /><path
       id="rect3172-9-4-2-2"
       style="fill:#ffffff;fill-opacity:0.941176;fill-rule:evenodd;stroke:#808080;stroke-width:0.0737769px"
       inkscape:transform-center-x="0.99999999"
       inkscape:transform-center-y="-0.99999906"
       d="m 69.219658,143.65396 h 0.148014 v 0.1471 h -0.148014 z" /><path
       id="rect3174-0-8-4-8"
       style="fill:#ffffff;fill-opacity:0.941176;fill-rule:evenodd;stroke:#808080;stroke-width:0.0737769px"
       inkscape:transform-center-x="0.99999999"
       inkscape:transform-center-y="-0.99999906"
       d="m 69.219658,144.23767 h 0.148014 v 0.1471 h -0.148014 z" /><path
       id="rect3176-8-8-0-3"
       style="fill:#ffffff;fill-rule:evenodd;stroke:#808080;stroke-width:0.0737769px"
       d="m 69.662643,143.06407 h 1.332128 v 0.1471 h -1.332128 z" /><path
       id="rect3178-8-8-6-8"
       style="fill:#ffffff;fill-rule:evenodd;stroke:#808080;stroke-width:0.0737769px"
       d="m 69.659225,143.65396 h 1.332128 v 0.1471 h -1.332128 z" /><path
       id="rect3180-5-9-2-0"
       style="fill:#ffffff;fill-rule:evenodd;stroke:#808080;stroke-width:0.0737769px"
       d="m 69.666756,144.24515 h 1.332127 v 0.14709 h -1.332127 z" /><path
       id="rect3182-0-7-9-4"
       style="fill:#ffffff;fill-rule:evenodd;stroke:#808080;stroke-width:0.0737769px"
       d="m 69.666756,144.537 h 1.332127 v 0.1471 h -1.332127 z" /><path
       id="rect3184-9-7-9-0"
       style="fill:#ffffff;fill-rule:evenodd;stroke:#808080;stroke-width:0.0737769px"
       d="m 69.666756,143.36212 h 1.036099 v 0.1471 h -1.036099 z" /><path
       id="rect3186-6-6-0-9"
       style="fill:#ffffff;fill-rule:evenodd;stroke:#808080;stroke-width:0.0737769px"
       d="m 69.664169,143.94582 h 1.036099 v 0.14709 h -1.036099 z" /><path
       id="rect3188-3-4-8-1"
       style="fill:#ffffff;fill-rule:evenodd;stroke:#808080;stroke-width:0.0737769px"
       d="m 69.6717,144.82886 h 1.036098 v 0.14709 H 69.6717 Z" /><path
       id="rect234-7-7-4-1-7-7-4-3-5-7-5-0-3"
       style="fill:#37595f;stroke-width:0.236214"
       d="m 90.140759,147.19505 h 11.462891 c 0.5683,0 1.02582,0.45752 1.02582,1.02582 v 5.45734 c 0,0.5683 -0.45752,1.02582 -1.02582,1.02582 H 90.140759 c -0.568301,0 -1.025815,-0.45752 -1.025815,-1.02582 v -5.45734 c 0,-0.5683 0.457514,-1.02582 1.025815,-1.02582 z" /><path
       id="rect234-7-7-4-1-7-7-4-3-7-0-9-6-3-1"
       style="fill:#ffffff;stroke-width:0.145552"
       d="m 90.513101,150.29533 h 9.054571 c 0.435478,0 0.786068,0.35059 0.786068,0.78607 v 2.05371 c 0,0.43548 -0.35059,0.78607 -0.786068,0.78607 h -9.054571 c -0.43548,0 -0.786065,-0.35059 -0.786065,-0.78607 v -2.05371 c 0,-0.43548 0.350585,-0.78607 0.786065,-0.78607 z" /><g
       aria-label="Manifest"
       id="text1066-6-3-5-6-1-9-02-1-0-1"
       style="font-size:2.01728px;fill:#666666;stroke-width:0.686268"><path
         d="m 91.668491,152.86975 -0.474061,-1.26282 h -0.0081 q 0.0061,0.0625 0.01009,0.16946 0.004,0.10489 0.004,0.21988 v 0.87348 h -0.167434 v -1.44034 h 0.268298 l 0.443802,1.18011 h 0.0081 l 0.451871,-1.18011 h 0.266281 v 1.44034 H 92.2918 v -0.88558 q 0,-0.1049 0.004,-0.20778 0.0061,-0.10289 0.01009,-0.16744 h -0.0081 l -0.480113,1.2608 z"
         id="path7996" /><path
         d="m 93.248021,151.77033 q 0.197693,0 0.292505,0.0867 0.09481,0.0867 0.09481,0.27636 v 0.73631 h -0.129105 l -0.03429,-0.15331 h -0.0081 q -0.07061,0.0888 -0.149279,0.13112 -0.07666,0.0424 -0.213832,0.0424 -0.147261,0 -0.244091,-0.0767 -0.09683,-0.0787 -0.09683,-0.24409 0,-0.16139 0.127089,-0.24813 0.127088,-0.0888 0.391352,-0.0968 l 0.183572,-0.006 v -0.0645 q 0,-0.13516 -0.0585,-0.18761 -0.0585,-0.0525 -0.165417,-0.0525 -0.08472,0 -0.161382,0.0262 -0.07666,0.0242 -0.143227,0.0565 l -0.05447,-0.13314 q 0.07061,-0.0383 0.167435,-0.0646 0.09683,-0.0282 0.201728,-0.0282 z m 0.05245,0.57695 q -0.201728,0.008 -0.280402,0.0645 -0.07666,0.0565 -0.07666,0.15936 0,0.0908 0.05447,0.13314 0.05648,0.0424 0.143227,0.0424 0.137175,0 0.227953,-0.0746 0.09078,-0.0767 0.09078,-0.23401 v -0.0968 z"
         id="path7998" /><path
         d="m 94.490667,151.76832 q 0.193659,0 0.292506,0.0948 0.09885,0.0928 0.09885,0.30259 v 0.70403 H 94.70652 v -0.69193 q 0,-0.26023 -0.242074,-0.26023 -0.179538,0 -0.248125,0.10087 -0.06859,0.10086 -0.06859,0.29049 v 0.5608 h -0.17752 v -1.08126 h 0.143227 l 0.02622,0.14726 h 0.01009 q 0.05245,-0.0847 0.145244,-0.12507 0.0928,-0.0424 0.195676,-0.0424 z"
         id="path8000" /><path
         d="m 95.307665,151.38302 q 0.04035,0 0.07061,0.0282 0.03228,0.0262 0.03228,0.0847 0,0.0565 -0.03228,0.0847 -0.03026,0.0282 -0.07061,0.0282 -0.04438,0 -0.07464,-0.0282 -0.03026,-0.0282 -0.03026,-0.0847 0,-0.0585 0.03026,-0.0847 0.03026,-0.0282 0.07464,-0.0282 z m 0.08674,0.40547 v 1.08126 h -0.17752 v -1.08126 z"
         id="path8002" /><path
         d="M 96.235613,151.92566 H 95.96328 v 0.94409 h -0.17752 v -0.94409 h -0.189625 v -0.0827 l 0.189625,-0.0605 v -0.0625 q 0,-0.2098 0.09279,-0.30057 0.0928,-0.0928 0.258212,-0.0928 0.06455,0 0.117003,0.0121 0.05447,0.0101 0.09279,0.0242 l -0.0464,0.1392 q -0.03228,-0.0101 -0.07464,-0.0202 -0.04236,-0.0101 -0.08674,-0.0101 -0.08876,0 -0.133141,0.0605 -0.04236,0.0585 -0.04236,0.18559 v 0.0706 h 0.272333 z"
         id="path8004" /><path
         d="m 96.848866,151.76832 q 0.139192,0 0.238039,0.0605 0.100864,0.0605 0.153313,0.17147 0.05447,0.10894 0.05447,0.2562 v 0.10691 h -0.740342 q 0.004,0.18358 0.09279,0.28041 0.09078,0.0948 0.25216,0.0948 0.102881,0 0.181555,-0.0182 0.08069,-0.0202 0.165417,-0.0565 v 0.15533 q -0.08271,0.0363 -0.1634,0.0524 -0.08069,0.0181 -0.191641,0.0181 -0.153314,0 -0.272333,-0.0625 -0.117002,-0.0625 -0.183573,-0.18559 -0.06455,-0.12507 -0.06455,-0.30461 0,-0.17752 0.0585,-0.30461 0.06052,-0.12709 0.167434,-0.19568 0.108933,-0.0686 0.25216,-0.0686 z m -0.002,0.14524 q -0.127088,0 -0.201728,0.0827 -0.07262,0.0807 -0.08674,0.22593 h 0.550718 q -0.002,-0.13717 -0.06455,-0.2219 -0.06254,-0.0867 -0.197694,-0.0867 z"
         id="path8006" /><path
         d="m 98.273064,152.57119 q 0,0.15735 -0.117002,0.23804 -0.117003,0.0807 -0.314696,0.0807 -0.112968,0 -0.195676,-0.0181 -0.08069,-0.0182 -0.143227,-0.0504 v -0.16139 q 0.06455,0.0323 0.155331,0.0605 0.09279,0.0262 0.187607,0.0262 0.135157,0 0.195676,-0.0424 0.06052,-0.0444 0.06052,-0.117 0,-0.0403 -0.02219,-0.0726 -0.02219,-0.0323 -0.08069,-0.0645 -0.05648,-0.0323 -0.1634,-0.0726 -0.104898,-0.0403 -0.179538,-0.0807 -0.07464,-0.0403 -0.114985,-0.0968 -0.04035,-0.0565 -0.04035,-0.14524 0,-0.13718 0.11095,-0.21181 0.112968,-0.0746 0.294523,-0.0746 0.09885,0 0.183572,0.0202 0.08674,0.0181 0.161383,0.0524 l -0.06052,0.14121 q -0.06859,-0.0282 -0.143226,-0.0484 -0.07464,-0.0202 -0.153314,-0.0202 -0.108933,0 -0.167434,0.0363 -0.05648,0.0343 -0.05648,0.0948 0,0.0444 0.02622,0.0767 0.02622,0.0303 0.08674,0.0605 0.06254,0.0282 0.165417,0.0686 0.102881,0.0383 0.175503,0.0787 0.07262,0.0404 0.110951,0.0988 0.03833,0.0565 0.03833,0.14322 z"
         id="path8008" /><path
         d="m 98.896404,152.74468 q 0.04035,0 0.08271,-0.006 0.04236,-0.008 0.06859,-0.0161 v 0.13516 q -0.02824,0.0141 -0.08069,0.0222 -0.05245,0.0101 -0.100864,0.0101 -0.08473,0 -0.157348,-0.0282 -0.07061,-0.0303 -0.114985,-0.10288 -0.04438,-0.0726 -0.04438,-0.20374 v -0.6294 h -0.153314 v -0.0847 l 0.155331,-0.0706 0.07061,-0.22997 h 0.104898 v 0.24813 h 0.312679 v 0.13717 h -0.312679 v 0.62536 q 0,0.0988 0.0464,0.14726 0.04842,0.0464 0.123054,0.0464 z"
         id="path8010" /></g><g
       aria-label="Zephyr"
       id="text1066-6-3-5-6-3-9-5-2-3"
       style="font-size:2.01728px;stroke-width:0.686268"><path
         d="m 93.603767,149.20615 h -0.998554 v -0.13718 l 0.758498,-1.14178 h -0.73429 v -0.16138 h 0.954173 v 0.13717 l -0.758497,1.14178 h 0.77867 z"
         style="fill:#ffffff"
         id="path8013" /><path
         d="m 94.271488,148.10471 q 0.139192,0 0.238039,0.0605 0.100864,0.0605 0.153313,0.17147 0.05447,0.10893 0.05447,0.25619 v 0.10692 h -0.740342 q 0.004,0.18357 0.09279,0.2804 0.09078,0.0948 0.25216,0.0948 0.102881,0 0.181555,-0.0181 0.08069,-0.0202 0.165417,-0.0565 v 0.15533 q -0.08271,0.0363 -0.1634,0.0524 -0.08069,0.0182 -0.191641,0.0182 -0.153314,0 -0.272333,-0.0625 -0.117002,-0.0625 -0.183573,-0.18559 -0.06455,-0.12507 -0.06455,-0.30461 0,-0.17752 0.0585,-0.30461 0.06052,-0.12708 0.167434,-0.19567 0.108933,-0.0686 0.25216,-0.0686 z m -0.002,0.14525 q -0.127089,0 -0.201728,0.0827 -0.07262,0.0807 -0.08674,0.22594 h 0.550717 q -0.002,-0.13718 -0.06455,-0.2219 -0.06254,-0.0867 -0.197693,-0.0867 z"
         style="fill:#ffffff"
         id="path8015" /><path
         d="m 95.506062,148.10471 q 0.19971,0 0.320747,0.13919 0.123054,0.1392 0.123054,0.4196 0,0.27637 -0.123054,0.41959 -0.121037,0.14323 -0.322765,0.14323 -0.125071,0 -0.20778,-0.0464 -0.08069,-0.0484 -0.127088,-0.11095 h -0.0121 q 0.004,0.0343 0.0081,0.0867 0.004,0.0524 0.004,0.0908 v 0.4438 h -0.177521 v -1.56541 h 0.145244 l 0.02421,0.14727 h 0.0081 q 0.04842,-0.0706 0.127088,-0.11902 0.07867,-0.0484 0.209798,-0.0484 z m -0.03228,0.14928 q -0.165417,0 -0.234004,0.0928 -0.06657,0.0928 -0.07061,0.28242 v 0.0343 q 0,0.19971 0.06455,0.30864 0.06657,0.10692 0.244091,0.10692 0.09885,0 0.161382,-0.0545 0.06455,-0.0545 0.09481,-0.14726 0.03228,-0.0948 0.03228,-0.21585 0,-0.18559 -0.07262,-0.29654 -0.07061,-0.11095 -0.219884,-0.11095 z"
         style="fill:#ffffff"
         id="path8017" /><path
         d="m 96.409803,148.12287 q 0,0.0807 -0.01009,0.15129 h 0.0121 q 0.05245,-0.0827 0.14121,-0.12507 0.09078,-0.0424 0.195676,-0.0424 0.197693,0 0.29654,0.0948 0.09885,0.0928 0.09885,0.30058 v 0.70403 h -0.175504 v -0.69193 q 0,-0.26023 -0.242073,-0.26023 -0.181556,0 -0.250143,0.10288 -0.06657,0.10087 -0.06657,0.29049 v 0.55879 h -0.177521 v -1.53314 h 0.177521 z"
         style="fill:#ffffff"
         id="path8019" /><path
         d="m 97.30951,148.12488 h 0.189624 l 0.234004,0.61527 q 0.03026,0.0807 0.05447,0.15534 0.02421,0.0726 0.03631,0.13919 h 0.0081 q 0.0121,-0.0504 0.03833,-0.13113 0.02623,-0.0827 0.05447,-0.16541 l 0.219883,-0.61326 h 0.191642 l -0.465992,1.23054 q -0.05648,0.15332 -0.147261,0.2441 -0.08876,0.0908 -0.246108,0.0908 -0.04842,0 -0.08473,-0.006 -0.03631,-0.004 -0.06254,-0.0101 v -0.14121 q 0.02219,0.004 0.05245,0.008 0.03228,0.004 0.06657,0.004 0.0928,0 0.149279,-0.0524 0.0585,-0.0525 0.09078,-0.13919 l 0.05648,-0.14323 z"
         style="fill:#ffffff"
         id="path8021" /><path
         d="m 99.012094,148.10471 q 0.03026,0 0.06455,0.004 0.03631,0.002 0.06254,0.008 l -0.02219,0.1634 q -0.02622,-0.006 -0.0585,-0.0101 -0.03026,-0.004 -0.0585,-0.004 -0.08271,0 -0.155331,0.0464 -0.07262,0.0444 -0.117002,0.12709 -0.04236,0.0807 -0.04236,0.18962 v 0.57695 H 98.50778 v -1.08127 h 0.145245 l 0.02017,0.1977 h 0.0081 q 0.05245,-0.0888 0.135157,-0.15332 0.08271,-0.0645 0.195676,-0.0645 z"
         style="fill:#ffffff"
         id="path8023" /></g><path
       id="rect2396-8-4-0-3"
       style="fill:#ffffff;fill-rule:evenodd;stroke:#808080;stroke-width:0.0727712px"
       d="m 99.982231,150.76428 h 2.443239 v 2.72226 h -2.443239 z" /><path
       id="rect3170-9-8-5-9"
       style="fill:#ffffff;fill-opacity:0.941176;fill-rule:evenodd;stroke:#808080;stroke-width:0.0737769px"
       inkscape:transform-center-x="0.99999999"
       inkscape:transform-center-y="-0.99999906"
       d="m 100.1735,151.09531 h 0.14801 v 0.14709 h -0.14801 z" /><path
       id="rect3172-7-1-9-1"
       style="fill:#ffffff;fill-opacity:0.941176;fill-rule:evenodd;stroke:#808080;stroke-width:0.0737769px"
       inkscape:transform-center-x="0.99999999"
       inkscape:transform-center-y="-0.99999906"
       d="m 100.16727,151.6852 h 0.14801 v 0.14709 h -0.14801 z" /><path
       id="rect3174-3-0-4-9"
       style="fill:#ffffff;fill-opacity:0.941176;fill-rule:evenodd;stroke:#808080;stroke-width:0.0737769px"
       inkscape:transform-center-x="0.99999999"
       inkscape:transform-center-y="-0.99999906"
       d="m 100.16727,152.26889 h 0.14801 v 0.1471 h -0.14801 z" /><path
       id="rect3176-6-3-6-6"
       style="fill:#ffffff;fill-rule:evenodd;stroke:#808080;stroke-width:0.0737769px"
       d="m 100.61024,151.09531 h 1.33212 v 0.14709 h -1.33212 z" /><path
       id="rect3178-1-0-9-9"
       style="fill:#ffffff;fill-rule:evenodd;stroke:#808080;stroke-width:0.0737769px"
       d="m 100.60683,151.6852 h 1.33212 v 0.14709 h -1.33212 z" /><path
       id="rect3180-2-4-2-3"
       style="fill:#ffffff;fill-rule:evenodd;stroke:#808080;stroke-width:0.0737769px"
       d="m 100.61436,152.27638 h 1.33212 v 0.1471 h -1.33212 z" /><path
       id="rect3182-9-4-2-3"
       style="fill:#ffffff;fill-rule:evenodd;stroke:#808080;stroke-width:0.0737769px"
       d="m 100.61436,152.56824 h 1.33212 v 0.14709 h -1.33212 z" /><path
       id="rect3184-3-4-4-8"
       style="fill:#ffffff;fill-rule:evenodd;stroke:#808080;stroke-width:0.0737769px"
       d="m 100.61436,151.39334 h 1.0361 v 0.1471 h -1.0361 z" /><path
       id="rect3186-1-4-7-0"
       style="fill:#ffffff;fill-rule:evenodd;stroke:#808080;stroke-width:0.0737769px"
       d="m 100.61178,151.97705 h 1.0361 v 0.1471 h -1.0361 z" /><path
       id="rect3188-9-7-7-5"
       style="fill:#ffffff;fill-rule:evenodd;stroke:#808080;stroke-width:0.0737769px"
       d="m 100.61931,152.86008 h 1.0361 v 0.14709 h -1.0361 z" /><path
       id="rect234-7-7-4-1-7-7-4-3-5-7-7-1-8-4"
       style="fill:#37595f;stroke-width:0.160633"
       d="m 104.90144,151.23152 h 11.86541 c 0.4568,0 0.82455,0.36775 0.82455,0.82456 v 1.82338 c 0,0.45681 -0.36775,0.82456 -0.82455,0.82456 h -11.86541 c -0.45681,0 -0.82456,-0.36775 -0.82456,-0.82456 v -1.82338 c 0,-0.45681 0.36775,-0.82456 0.82456,-0.82456 z" /><g
       aria-label="Modules"
       id="text1066-6-3-5-6-3-9-0-7-1-0"
       style="font-size:2.01728px;stroke-width:0.686268"><path
         d="m 107.53185,153.72424 -0.47406,-1.26281 h -0.008 q 0.006,0.0625 0.0101,0.16945 0.004,0.1049 0.004,0.21988 v 0.87348 h -0.16743 v -1.44033 h 0.26829 l 0.44381,1.1801 h 0.008 l 0.45188,-1.1801 h 0.26628 v 1.44033 h -0.17954 v -0.88558 q 0,-0.1049 0.004,-0.20778 0.006,-0.10288 0.0101,-0.16744 h -0.008 l -0.48011,1.2608 z"
         style="fill:#ffffff"
         id="path8038" /><path
         d="m 109.64192,153.18159 q 0,0.2683 -0.13717,0.41556 -0.13516,0.14727 -0.36715,0.14727 -0.14322,0 -0.25619,-0.0646 -0.11095,-0.0666 -0.17551,-0.19164 -0.0645,-0.12709 -0.0645,-0.30663 0,-0.26829 0.13516,-0.41354 0.13516,-0.14524 0.36714,-0.14524 0.14727,0 0.25822,0.0666 0.11296,0.0645 0.1755,0.18962 0.0645,0.12306 0.0645,0.30259 z m -0.817,0 q 0,0.19165 0.0746,0.30461 0.0767,0.11095 0.24208,0.11095 0.1634,0 0.24005,-0.11095 0.0767,-0.11296 0.0767,-0.30461 0,-0.19164 -0.0767,-0.30057 -0.0767,-0.10893 -0.24207,-0.10893 -0.16542,0 -0.24006,0.10893 -0.0746,0.10893 -0.0746,0.30057 z"
         style="fill:#ffffff"
         id="path8040" /><path
         d="m 110.30561,153.74442 q -0.20173,0 -0.32277,-0.1392 -0.12103,-0.14121 -0.12103,-0.41959 0,-0.27839 0.12103,-0.41959 0.12306,-0.14323 0.32478,-0.14323 0.12508,0 0.20375,0.0464 0.0807,0.0464 0.13112,0.11296 h 0.0121 q -0.002,-0.0262 -0.008,-0.0767 -0.004,-0.0524 -0.004,-0.0827 v -0.4317 h 0.17752 v 1.53313 h -0.14322 l -0.0262,-0.14524 h -0.008 q -0.0484,0.0686 -0.1291,0.117 -0.0807,0.0484 -0.20778,0.0484 z m 0.0282,-0.14727 q 0.17147,0 0.24006,-0.0928 0.0706,-0.0948 0.0706,-0.28444 v -0.0323 q 0,-0.20173 -0.0666,-0.30865 -0.0666,-0.10893 -0.24611,-0.10893 -0.14323,0 -0.21585,0.11498 -0.0706,0.11297 -0.0706,0.30461 0,0.19366 0.0706,0.30058 0.0726,0.10691 0.21787,0.10691 z"
         style="fill:#ffffff"
         id="path8042" /><path
         d="m 112.06669,152.64298 v 1.08126 h -0.14524 l -0.0262,-0.14322 h -0.008 q -0.0525,0.0847 -0.14524,0.12507 -0.0928,0.0383 -0.19769,0.0383 -0.19568,0 -0.29453,-0.0928 -0.0988,-0.0948 -0.0988,-0.30057 v -0.70807 h 0.17953 v 0.69596 q 0,0.25821 0.24006,0.25821 0.17954,0 0.24813,-0.10086 0.0706,-0.10086 0.0706,-0.29049 v -0.56282 z"
         style="fill:#ffffff"
         id="path8044" /><path
         d="m 112.58715,153.72424 h -0.17752 v -1.53313 h 0.17752 z"
         style="fill:#ffffff"
         id="path8046" /><path
         d="m 113.34766,152.62281 q 0.1392,0 0.23804,0.0605 0.10087,0.0605 0.15332,0.17147 0.0545,0.10893 0.0545,0.25619 v 0.10692 h -0.74034 q 0.004,0.18357 0.0928,0.2804 0.0908,0.0948 0.25216,0.0948 0.10288,0 0.18155,-0.0182 0.0807,-0.0202 0.16542,-0.0565 v 0.15533 q -0.0827,0.0363 -0.1634,0.0524 -0.0807,0.0182 -0.19164,0.0182 -0.15332,0 -0.27234,-0.0625 -0.117,-0.0625 -0.18357,-0.18559 -0.0645,-0.12507 -0.0645,-0.30461 0,-0.17752 0.0585,-0.30461 0.0605,-0.12709 0.16743,-0.19567 0.10894,-0.0686 0.25216,-0.0686 z m -0.002,0.14524 q -0.12709,0 -0.20173,0.0827 -0.0726,0.0807 -0.0867,0.22594 h 0.55071 q -0.002,-0.13718 -0.0645,-0.2219 -0.0625,-0.0868 -0.19769,-0.0868 z"
         style="fill:#ffffff"
         id="path8048" /><path
         d="m 114.77186,153.42569 q 0,0.15734 -0.117,0.23803 -0.117,0.0807 -0.3147,0.0807 -0.11296,0 -0.19567,-0.0182 -0.0807,-0.0182 -0.14323,-0.0504 v -0.16138 q 0.0645,0.0323 0.15533,0.0605 0.0928,0.0262 0.18761,0.0262 0.13516,0 0.19567,-0.0424 0.0605,-0.0444 0.0605,-0.11701 0,-0.0403 -0.0222,-0.0726 -0.0222,-0.0323 -0.0807,-0.0645 -0.0565,-0.0323 -0.1634,-0.0726 -0.1049,-0.0404 -0.17954,-0.0807 -0.0746,-0.0404 -0.11498,-0.0968 -0.0404,-0.0565 -0.0404,-0.14525 0,-0.13717 0.11095,-0.21181 0.11297,-0.0746 0.29453,-0.0746 0.0988,0 0.18357,0.0202 0.0867,0.0182 0.16138,0.0524 l -0.0605,0.14121 q -0.0686,-0.0282 -0.14322,-0.0484 -0.0746,-0.0202 -0.15332,-0.0202 -0.10893,0 -0.16743,0.0363 -0.0565,0.0343 -0.0565,0.0948 0,0.0444 0.0262,0.0767 0.0262,0.0303 0.0867,0.0605 0.0625,0.0282 0.16542,0.0686 0.10288,0.0383 0.1755,0.0787 0.0726,0.0404 0.11095,0.0988 0.0383,0.0565 0.0383,0.14323 z"
         style="fill:#ffffff"
         id="path8050" /></g><path
       style="fill:none;stroke:#303030;stroke-width:0.194197;stroke-dasharray:0.194197, 0.194197;stroke-dashoffset:0;stroke-opacity:1;marker-end:url(#TriangleStart-1-8-0)"
       d="m 101.18431,150.7402 c -0.0357,-1.97688 1.76191,-4.27177 4.89776,-4.5304 2.97615,-0.32119 4.40271,2.62024 4.39449,4.34763"
       id="path2641-96-8-4"
       sodipodi:nodetypes="ccc" /><path
       style="fill:none;stroke:#eb811b;stroke-width:0.194197;stroke-dasharray:none;stroke-opacity:1;marker-end:url(#TriangleStart-7-7-9-1)"
       d="m 84.692059,142.7147 c 0.133356,-1.72475 1.965347,-2.39519 4.171799,-2.6367 4.581502,-0.48644 6.417107,4.6918 6.408887,6.41919"
       id="path2641-5-2-9-6"
       sodipodi:nodetypes="ccc" /><path
       style="fill:none;stroke:#eb811b;stroke-width:0.194197;stroke-dasharray:none;stroke-opacity:1;marker-end:url(#TriangleStart-7-7-9-3-5)"
       d="m 84.694751,142.71052 c 0.133357,-1.72474 2.001288,-2.47167 4.20774,-2.71319 1.936092,-0.20554 9.072289,-0.51329 13.228899,1.46565 5.67947,2.70397 8.30845,6.6985 8.37266,9.07138"
       id="path2641-5-2-9-8-2"
       sodipodi:nodetypes="ccsc" /><path
       style="fill:none;stroke:#66cd22;stroke-width:0.194197;stroke-dasharray:none;stroke-opacity:1;marker-end:url(#TriangleStart-7-7-9-3-5-9)"
       d="m 70.286325,142.7081 c 0.133357,-1.72475 4.674062,-4.03386 7.47643,-4.70069 2.970288,-0.48142 5.827295,-0.95978 10.69131,0.17787 6.125012,1.43251 6.768384,5.93433 6.832599,8.30721"
       id="path2641-5-2-9-8-2-2"
       sodipodi:nodetypes="ccsc" /><path
       style="fill:none;stroke:#66cd22;stroke-width:0.194197;stroke-dasharray:none;stroke-opacity:1;marker-end:url(#TriangleStart-7-7-9-3-5-9-5)"
       d="m 70.291032,142.65019 c 0.133357,-1.72474 6.591204,-6.19889 18.004964,-6.16621 8.723317,0.42856 21.989984,5.86946 22.150124,14.13766"
       id="path2641-5-2-9-8-2-2-4"
       sodipodi:nodetypes="ccc" /></g></svg>
